<svg width="196" height="60" viewBox="0 0 196 60" fill="none" xmlns="http://www.w3.org/2000/svg">
<path fill-rule="evenodd" clip-rule="evenodd" d="M121.595 46.922C110.205 55.45 93.6958 60.0001 79.4819 60.0001C59.5517 60.0001 41.6094 52.512 28.0354 40.0579C26.969 39.0785 27.9245 37.7439 29.2043 38.5065C43.8533 47.1646 61.9662 52.3733 80.6764 52.3733C93.2948 52.3733 107.176 49.7213 119.939 44.2179C121.868 43.3859 123.48 45.5006 121.595 46.922Z" fill="#FF9900"/>
<path fill-rule="evenodd" clip-rule="evenodd" d="M126.33 41.4185C124.879 39.5292 116.706 40.5259 113.037 40.9679C111.92 41.1065 111.749 40.1185 112.756 39.4079C119.265 34.7538 129.947 36.0972 131.193 37.6572C132.438 39.2259 130.869 50.1026 124.751 55.294C123.813 56.0914 122.917 55.6667 123.335 54.6093C124.709 51.1253 127.789 43.3166 126.33 41.4185Z" fill="#FF9900"/>
<path fill-rule="evenodd" clip-rule="evenodd" d="M113.293 6.55209V2.02804C113.293 1.34337 113.805 0.884033 114.419 0.884033H134.358C134.998 0.884033 135.51 1.35204 135.51 2.02804V5.90208C135.501 6.55209 134.964 7.40143 134.008 8.74478L123.676 23.7296C127.515 23.6343 131.568 24.2149 135.049 26.2083C135.834 26.659 136.047 27.3176 136.107 27.9676V32.795C136.107 33.4537 135.39 34.225 134.639 33.8264C128.505 30.559 120.357 30.2037 113.574 33.861C112.883 34.2424 112.158 33.4797 112.158 32.821V28.2363C112.158 27.4996 112.167 26.243 112.892 25.125L124.862 7.68744H114.445C113.805 7.68744 113.293 7.2281 113.293 6.55209Z" fill="black"/>
<path fill-rule="evenodd" clip-rule="evenodd" d="M40.5598 34.7796H34.4937C33.9135 34.7362 33.4528 34.2942 33.4102 33.7309V2.10591C33.4102 1.47324 33.9306 0.970565 34.579 0.970565H40.2356C40.8243 0.996547 41.2935 1.4559 41.3362 2.02791V6.16195H41.4471C42.9231 2.16658 45.6959 0.303223 49.4328 0.303223C53.2294 0.303223 55.6012 2.16658 57.3076 6.16195C58.7751 2.16658 62.111 0.303223 65.6858 0.303223C68.2282 0.303223 71.0096 1.36923 72.7074 3.76126C74.6271 6.42195 74.2346 10.2873 74.2346 13.676L74.2261 33.6356C74.2261 34.2682 73.7056 34.7796 73.0572 34.7796H66.9997C66.3939 34.7362 65.9076 34.2422 65.9076 33.6356V16.8741C65.9076 15.5394 66.0271 12.2113 65.737 10.946C65.2848 8.82265 63.9282 8.22464 62.1707 8.22464C60.7032 8.22464 59.1675 9.22131 58.5447 10.816C57.9219 12.4107 57.9816 15.08 57.9816 16.8741V33.6356C57.9816 34.2682 57.4612 34.7796 56.8128 34.7796H50.7552C50.1409 34.7362 49.6632 34.2422 49.6632 33.6356L49.6546 16.8741C49.6546 13.3467 50.2262 8.1553 45.9177 8.1553C41.558 8.1553 41.7286 13.2167 41.7286 16.8741V33.6356C41.7286 34.2682 41.2082 34.7796 40.5598 34.7796Z" fill="black"/>
<path fill-rule="evenodd" clip-rule="evenodd" d="M152.676 0.303223C161.677 0.303223 166.548 8.1553 166.548 18.1394C166.548 27.7855 161.165 35.4383 152.676 35.4383C143.837 35.4383 139.025 27.5862 139.025 17.8014C139.025 7.95597 143.897 0.303223 152.676 0.303223ZM152.727 6.75996C148.256 6.75996 147.975 12.948 147.975 16.8047C147.975 20.6701 147.915 28.9209 152.676 28.9209C157.377 28.9209 157.599 22.2648 157.599 18.2087C157.599 15.5394 157.488 12.35 156.694 9.81932C156.012 7.61797 154.655 6.75996 152.727 6.75996Z" fill="black"/>
<path fill-rule="evenodd" clip-rule="evenodd" d="M178.22 34.7796H172.18C171.574 34.7362 171.088 34.2422 171.088 33.6356L171.079 2.00191C171.13 1.42123 171.634 0.970565 172.248 0.970565H177.87C178.399 0.996547 178.834 1.36057 178.954 1.85457V6.69062H179.065C180.763 2.36591 183.143 0.303223 187.332 0.303223C190.054 0.303223 192.707 1.2999 194.413 4.02993C196 6.56062 196 10.816 196 13.8754V33.7829C195.932 34.3376 195.429 34.7796 194.832 34.7796H188.748C188.194 34.7362 187.733 34.3202 187.673 33.7829V16.6054C187.673 13.1474 188.066 8.08597 183.877 8.08597C182.401 8.08597 181.044 9.09132 180.37 10.6167C179.517 12.5494 179.406 14.4734 179.406 16.6054V33.6356C179.398 34.2682 178.869 34.7796 178.22 34.7796Z" fill="black"/>
<path fill-rule="evenodd" clip-rule="evenodd" d="M97.3984 19.6735C97.3984 22.0742 97.4582 24.0763 96.2637 26.2083C95.2996 27.9416 93.7639 29.0076 92.0661 29.0076C89.7369 29.0076 88.3718 27.2049 88.3718 24.5443C88.3718 19.2922 93.0046 18.3389 97.3984 18.3389V19.6735ZM103.516 34.693C103.115 35.057 102.535 35.083 102.082 34.8404C100.069 33.1417 99.702 32.353 98.6014 30.7323C95.274 34.1817 92.9107 35.213 88.6022 35.213C83.4917 35.213 79.5244 32.015 79.5244 25.6103C79.5244 20.6096 82.1863 17.2035 85.9915 15.5395C89.2847 14.0661 93.8834 13.8061 97.3984 13.3988V12.6015C97.3984 11.1368 97.5094 9.40343 96.6562 8.13809C95.9224 7.00274 94.5062 6.53473 93.252 6.53473C90.9399 6.53473 88.8838 7.73941 88.3804 10.2354C88.278 10.7901 87.877 11.3361 87.3224 11.3621L81.4441 10.7208C80.9492 10.6081 80.3947 10.2008 80.5397 9.42944C81.8877 2.18403 88.3377 0 94.1052 0C97.0572 0 100.914 0.797343 103.243 3.06803C106.195 5.86739 105.913 9.60277 105.913 13.6675V23.2702C105.913 26.1563 107.091 27.4216 108.2 28.9816C108.584 29.5363 108.669 30.2036 108.174 30.6196C106.937 31.6683 104.736 33.6184 103.524 34.7104L103.516 34.693Z" fill="black"/>
<path fill-rule="evenodd" clip-rule="evenodd" d="M17.874 19.6735C17.874 22.0742 17.9337 24.0763 16.7393 26.2083C15.7752 27.9416 14.248 29.0076 12.5417 29.0076C10.2125 29.0076 8.85596 27.2049 8.85596 24.5443C8.85596 19.2922 13.4887 18.3389 17.874 18.3389V19.6735ZM23.9913 34.693C23.5903 35.057 23.0101 35.083 22.558 34.8404C20.5445 33.1417 20.1861 32.353 19.077 30.7323C15.7496 34.1817 13.3949 35.213 9.07778 35.213C3.97579 35.213 0 32.015 0 25.6103C0 20.6096 2.67044 17.2035 6.46707 15.5395C9.76032 14.0661 14.3589 13.8061 17.874 13.3988V12.6015C17.874 11.1368 17.9849 9.40343 17.1403 8.13809C16.398 7.00274 14.9818 6.53473 13.7361 6.53473C11.424 6.53473 9.35933 7.73941 8.85596 10.2354C8.75358 10.7901 8.35258 11.3361 7.80656 11.3621L1.91964 10.7208C1.4248 10.6081 0.878769 10.2008 1.01528 9.42944C2.37183 2.18403 8.8133 0 14.5808 0C17.5327 0 21.3891 0.797343 23.7183 3.06803C26.6703 5.86739 26.3887 9.60277 26.3887 13.6675V23.2702C26.3887 26.1563 27.5661 27.4216 28.6752 28.9816C29.0677 29.5363 29.153 30.2036 28.6582 30.6196C27.4211 31.6683 25.2199 33.6184 24.0083 34.7104L23.9913 34.693Z" fill="black"/>
</svg>
