<svg width="574" height="321" viewBox="0 0 574 321" fill="none" xmlns="http://www.w3.org/2000/svg">
<path d="M456.656 125.776H573.513L554.479 139.131V165.442C554.479 166.897 553.884 168.292 552.826 169.321C551.768 170.35 550.333 170.928 548.836 170.928H456.656C455.16 170.928 453.724 170.35 452.666 169.321C451.608 168.292 451.014 166.897 451.014 165.442V131.262C451.014 129.807 451.608 128.412 452.666 127.383C453.724 126.354 455.16 125.776 456.656 125.776Z" fill="#F5F5F5"/>
<path d="M461.527 144.346C461.527 144.457 479.151 144.545 500.893 144.545C522.634 144.545 540.258 144.457 540.258 144.346C540.258 144.234 522.634 144.146 500.893 144.146C479.151 144.146 461.527 144.234 461.527 144.346Z" fill="#E0E0E0"/>
<path d="M461.527 154.432C461.527 154.543 479.151 154.631 500.893 154.631C522.634 154.631 540.258 154.543 540.258 154.432C540.258 154.32 522.634 154.232 500.893 154.232C479.151 154.232 461.527 154.328 461.527 154.432Z" fill="#E0E0E0"/>
<path d="M279.176 28.8242H273.706V46.636H279.176V28.8242Z" fill="#E0E0E0"/>
<path d="M233.496 26.249H228.026V46.636H233.496V26.249Z" fill="#E0E0E0"/>
<path d="M244.92 21.9993H239.45V46.636H244.92V21.9993Z" fill="#E0E0E0"/>
<path d="M256.336 23.3467H250.866V46.636H256.336V23.3467Z" fill="#E0E0E0"/>
<path d="M267.752 15.4694H262.282V46.636H267.752V15.4694Z" fill="#E0E0E0"/>
<path d="M290.592 15.6208H285.122V46.636H290.592V15.6208Z" fill="#E0E0E0"/>
<path d="M302.016 25.8104H296.546V46.636H302.016V25.8104Z" fill="#E0E0E0"/>
<path d="M313.432 16.9843H307.962V46.636H313.432V16.9843Z" fill="#E0E0E0"/>
<path d="M324.856 10.3108H319.386V46.6359H324.856V10.3108Z" fill="#E0E0E0"/>
<path d="M336.272 16.8328H330.802V46.636H336.272V16.8328Z" fill="#E0E0E0"/>
<path d="M480.365 44.9855L525.586 38.2642C527.036 47.4543 525.488 56.855 521.159 65.1457C516.831 73.4364 509.939 80.2003 501.453 84.4872C492.967 88.7741 483.312 90.3685 473.846 89.0464C464.379 87.7244 455.577 83.5523 448.675 77.1163C441.773 70.6803 437.119 62.3038 435.366 53.1638C433.613 44.0238 434.85 34.5795 438.902 26.1579C442.954 17.7362 449.619 10.7604 457.959 6.21054C466.299 1.66067 475.896 -0.234628 485.401 0.790939L480.365 44.9855Z" fill="#EBEBEB"/>
<path d="M495.037 0.894653L489.551 34.9714L523.995 28.6887C523.995 28.6887 518.902 9.61715 495.037 0.894653Z" fill="#E0E0E0"/>
<path d="M18.5782 127.666C18.5237 123.359 19.7831 119.132 22.1975 115.52C24.6119 111.908 28.0729 109.072 32.1437 107.371C36.2145 105.67 40.7125 105.18 45.0697 105.962C49.427 106.744 53.4482 108.764 56.6256 111.766C59.803 114.768 61.9942 118.619 62.9225 122.831C63.8508 127.043 63.4746 131.428 61.8414 135.432C60.2082 139.437 57.3912 142.881 53.7461 145.33C50.101 147.779 45.7912 149.123 41.3609 149.193C35.4064 149.266 29.6651 147.041 25.3947 143.006C21.1244 138.971 18.6733 133.455 18.5782 127.666ZM51.7189 127.14C51.6733 125.083 51.0025 123.085 49.7908 121.398C48.5792 119.711 46.881 118.411 44.9103 117.66C42.9396 116.91 40.7847 116.744 38.717 117.183C36.6493 117.622 34.7615 118.645 33.2915 120.126C31.8214 121.606 30.835 123.476 30.4565 125.5C30.078 127.524 30.3243 129.612 31.1645 131.501C32.0047 133.389 33.4011 134.994 35.1776 136.112C36.9542 137.23 39.0315 137.812 41.1476 137.784C42.561 137.761 43.9559 137.467 45.2525 136.92C46.549 136.372 47.7218 135.582 48.7037 134.593C49.6856 133.604 50.4573 132.437 50.9747 131.158C51.492 129.879 51.7449 128.514 51.7189 127.14Z" fill="#F5F5F5"/>
<path d="M18.5781 127.666C18.4749 121.873 20.7396 116.276 24.8754 112.105C29.0113 107.933 34.6804 105.526 40.639 105.413L40.8277 116.839C38.0151 116.943 35.356 118.113 33.4191 120.098C31.4823 122.084 30.4213 124.727 30.4631 127.463C30.5048 130.199 31.6461 132.811 33.6427 134.739C35.6394 136.668 38.333 137.761 41.1475 137.784L41.3607 149.193C35.4056 149.268 29.663 147.043 25.3922 143.008C21.1214 138.973 18.671 133.455 18.5781 127.666Z" fill="#E0E0E0"/>
<path d="M38.6299 103.651C42.0383 103.573 45.4286 104.156 48.6023 105.367C51.7761 106.578 54.6695 108.392 57.1133 110.703C59.557 113.014 61.5021 115.776 62.8346 118.827C64.167 121.878 64.8602 125.157 64.8734 128.471L51.1776 128.679C51.0709 121.925 45.7812 117.676 38.8759 117.787L38.6299 103.651Z" fill="#EBEBEB"/>
<path d="M164.262 204.558H135.755V237.503H164.262V204.558Z" fill="#F5F5F5"/>
<path d="M136.748 202.405H7.93311V239.568H136.748V202.405Z" fill="#E0E0E0"/>
<path d="M165.123 205.531H133.287V202.405H165.123C165.558 202.405 165.976 202.573 166.283 202.872C166.591 203.171 166.764 203.577 166.764 204C166.747 204.412 166.566 204.801 166.261 205.086C165.955 205.372 165.547 205.531 165.123 205.531Z" fill="#E0E0E0"/>
<path d="M165.123 239.567H133.287V236.442H165.123C165.558 236.442 165.976 236.61 166.283 236.909C166.591 237.208 166.764 237.614 166.764 238.037C166.747 238.448 166.566 238.838 166.261 239.123C165.955 239.409 165.547 239.568 165.123 239.567Z" fill="#E0E0E0"/>
<path d="M126.619 202.405H111.398V239.568H126.619V202.405Z" fill="#EBEBEB"/>
<path d="M35.3986 202.82H20.1774V239.982H35.3986V202.82Z" fill="#EBEBEB"/>
<path d="M164.262 210.003C164.262 210.099 158.095 210.171 150.485 210.171C142.874 210.171 136.707 210.099 136.707 210.003C136.707 209.908 142.874 209.836 150.485 209.836C158.095 209.836 164.262 209.916 164.262 210.003Z" fill="#E0E0E0"/>
<path d="M164.262 214.947C164.262 215.034 158.095 215.106 150.485 215.106C142.874 215.106 136.707 215.034 136.707 214.947C136.707 214.859 142.874 214.779 150.485 214.779C158.095 214.779 164.262 214.851 164.262 214.947Z" fill="#E0E0E0"/>
<path d="M164.262 221.03C164.262 221.118 158.095 221.19 150.485 221.19C142.874 221.19 136.707 221.118 136.707 221.03C136.707 220.943 142.874 220.863 150.485 220.863C158.095 220.863 164.262 220.95 164.262 221.03Z" fill="#E0E0E0"/>
<path d="M164.262 227.106C164.262 227.201 158.095 227.273 150.485 227.273C142.874 227.273 136.707 227.201 136.707 227.106C136.707 227.01 142.874 226.946 150.485 226.946C158.095 226.946 164.262 227.018 164.262 227.106Z" fill="#E0E0E0"/>
<path d="M164.262 233.189C164.262 233.285 158.095 233.356 150.485 233.356C142.874 233.356 136.707 233.285 136.707 233.189C136.707 233.093 142.874 233.03 150.485 233.03C158.095 233.03 164.262 233.101 164.262 233.189Z" fill="#E0E0E0"/>
<path d="M103.213 217.682H45.2644V224.371H103.213V217.682Z" fill="#EBEBEB"/>
<path d="M163.975 240.301H135.034V260.377H163.975V240.301Z" fill="#FAFAFA"/>
<path d="M135.362 239.568H12.1976V261.095H135.362V239.568Z" fill="#F5F5F5"/>
<path d="M134.459 241.027H165.566C165.664 241.027 165.761 241.008 165.852 240.971C165.942 240.935 166.025 240.881 166.094 240.814C166.163 240.747 166.218 240.667 166.256 240.579C166.293 240.491 166.313 240.396 166.313 240.301C166.313 240.108 166.234 239.922 166.094 239.785C165.955 239.648 165.765 239.57 165.566 239.568H134.459V241.027Z" fill="#F5F5F5"/>
<path d="M134.459 259.644H165.968C166.059 259.644 166.147 259.679 166.212 259.742C166.276 259.804 166.313 259.89 166.313 259.978V260.776C166.313 260.865 166.276 260.95 166.212 261.013C166.147 261.075 166.059 261.111 165.968 261.111H134.459V259.652V259.644Z" fill="#F5F5F5"/>
<path d="M163.975 244.112C163.975 244.2 157.562 244.28 149.664 244.28C141.767 244.28 135.353 244.2 135.353 244.112C135.353 244.024 141.758 243.945 149.664 243.945C157.57 243.945 163.975 244.024 163.975 244.112Z" fill="#E0E0E0"/>
<path d="M163.975 247.907C163.975 248.003 157.562 248.075 149.664 248.075C141.767 248.075 135.353 248.003 135.353 247.907C135.353 247.812 141.758 247.748 149.664 247.748C157.57 247.748 163.975 247.82 163.975 247.907Z" fill="#E0E0E0"/>
<path d="M163.975 251.71C163.975 251.798 157.562 251.87 149.664 251.87C141.767 251.87 135.353 251.798 135.353 251.71C135.353 251.623 141.758 251.543 149.664 251.543C157.57 251.543 163.975 251.615 163.975 251.71Z" fill="#E0E0E0"/>
<path d="M163.975 255.506C163.975 255.593 157.562 255.665 149.664 255.665C141.767 255.665 135.353 255.593 135.353 255.506C135.353 255.418 141.758 255.338 149.664 255.338C157.57 255.338 163.975 255.41 163.975 255.506Z" fill="#E0E0E0"/>
<path d="M168.363 263.016H138.823V317.432H168.363V263.016Z" fill="#EBEBEB"/>
<path d="M138.823 261.103H0.166748V320.103H138.823V261.103Z" fill="#E0E0E0"/>
<path d="M170.676 320.095H135.034V316.268H170.676C171.197 316.27 171.696 316.472 172.065 316.831C172.434 317.189 172.642 317.675 172.644 318.182C172.644 318.433 172.593 318.682 172.494 318.914C172.395 319.146 172.25 319.357 172.067 319.535C171.885 319.712 171.668 319.853 171.429 319.949C171.19 320.046 170.934 320.095 170.676 320.095Z" fill="#E0E0E0"/>
<path d="M135.034 261.103H171.742C171.86 261.103 171.978 261.125 172.087 261.169C172.196 261.214 172.296 261.278 172.38 261.36C172.463 261.441 172.53 261.538 172.575 261.644C172.621 261.75 172.644 261.865 172.644 261.98V264.053C172.644 264.285 172.549 264.508 172.38 264.673C172.211 264.837 171.981 264.93 171.742 264.93H135.034V261.103Z" fill="#E0E0E0"/>
<path d="M168.363 270.304C168.363 270.399 161.753 270.471 153.601 270.471C145.449 270.471 138.839 270.399 138.839 270.304C138.839 270.208 145.449 270.144 153.601 270.144C161.753 270.144 168.363 270.216 168.363 270.304Z" fill="#E0E0E0"/>
<path d="M168.363 277.288C168.363 277.376 161.753 277.447 153.601 277.447C145.449 277.447 138.839 277.376 138.839 277.288C138.839 277.2 145.449 277.12 153.601 277.12C161.753 277.12 168.363 277.192 168.363 277.288Z" fill="#E0E0E0"/>
<path d="M168.363 284.264C168.363 284.352 161.753 284.432 153.601 284.432C145.449 284.432 138.839 284.352 138.839 284.264C138.839 284.177 145.449 284.097 153.601 284.097C161.753 284.097 168.363 284.177 168.363 284.264Z" fill="#E0E0E0"/>
<path d="M168.363 291.241C168.363 291.336 161.753 291.408 153.601 291.408C145.449 291.408 138.839 291.336 138.839 291.241C138.839 291.145 145.449 291.081 153.601 291.081C161.753 291.081 168.363 291.153 168.363 291.241Z" fill="#E0E0E0"/>
<path d="M168.363 298.225C168.363 298.313 161.753 298.385 153.601 298.385C145.449 298.385 138.839 298.313 138.839 298.225C138.839 298.137 145.449 298.058 153.601 298.058C161.753 298.058 168.363 298.129 168.363 298.225Z" fill="#E0E0E0"/>
<path d="M168.363 305.202C168.363 305.289 161.753 305.369 153.601 305.369C145.449 305.369 138.839 305.289 138.839 305.202C138.839 305.114 145.449 305.034 153.601 305.034C161.753 305.034 168.363 305.114 168.363 305.202Z" fill="#E0E0E0"/>
<path d="M168.363 312.178C168.363 312.274 161.753 312.345 153.601 312.345C145.449 312.345 138.839 312.274 138.839 312.178C138.839 312.082 145.449 312.018 153.601 312.018C161.753 312.018 168.363 312.09 168.363 312.178Z" fill="#E0E0E0"/>
<path d="M47.6101 293.824V297.109C47.6101 301.095 45.5763 303.32 41.6561 303.32C37.736 303.32 35.7021 301.063 35.7021 297.109V284.264C35.7021 280.278 37.736 278.045 41.6561 278.045C45.5763 278.045 47.6101 280.31 47.6101 284.264V286.656H43.8376V284.017C43.8376 282.247 43.0175 281.577 41.771 281.577C40.5244 281.577 39.6961 282.247 39.6961 284.017V297.356C39.6961 299.126 40.5162 299.748 41.771 299.748C43.0257 299.748 43.8376 299.118 43.8376 297.356V293.824H47.6101Z" fill="#EBEBEB"/>
<path d="M49.7178 284.264C49.7178 280.278 51.8583 278.045 55.7784 278.045C59.6985 278.045 61.839 280.31 61.839 284.264V297.109C61.839 301.095 59.6985 303.32 55.7784 303.32C51.8583 303.32 49.7178 301.063 49.7178 297.109V284.264ZM53.7117 297.356C53.7117 299.126 54.5318 299.796 55.7784 299.796C57.0249 299.796 57.8451 299.126 57.8451 297.356V284.017C57.8451 282.247 57.0249 281.577 55.7784 281.577C54.5318 281.577 53.7117 282.247 53.7117 284.017V297.356Z" fill="#EBEBEB"/>
<path d="M64.4141 278.356H68.408V299.533H74.9689V303.073H64.4141V278.356Z" fill="#EBEBEB"/>
<path d="M76.4122 284.264C76.4122 280.278 78.5527 278.045 82.4728 278.045C86.393 278.045 88.5416 280.31 88.5416 284.264V297.109C88.5416 301.095 86.4012 303.32 82.4728 303.32C78.5445 303.32 76.4122 301.063 76.4122 297.109V284.264ZM80.4062 297.356C80.4062 299.126 81.2263 299.796 82.4728 299.796C83.7194 299.796 84.5477 299.126 84.5477 297.356V284.017C84.5477 282.247 83.7276 281.577 82.4728 281.577C81.2181 281.577 80.4062 282.247 80.4062 284.017V297.356Z" fill="#EBEBEB"/>
<path d="M94.9139 278.356V297.42C94.9139 299.182 95.734 299.812 96.9805 299.812C98.2271 299.812 99.0472 299.174 99.0472 297.42V278.356H102.828V297.173C102.828 301.119 100.794 303.384 96.8739 303.384C92.9538 303.384 90.9199 301.119 90.9199 297.173V278.356H94.9139Z" fill="#EBEBEB"/>
<path d="M113.899 303.073C113.563 302.096 113.437 301.061 113.53 300.035V296.152C113.53 293.856 112.71 293.011 110.922 293.011H109.536V303.073H105.542V278.356H111.57C115.671 278.356 117.491 280.23 117.491 284.041V285.978C117.491 288.522 116.671 290.18 114.875 290.993C116.876 291.791 117.524 293.672 117.524 296.248V300.067C117.453 301.085 117.604 302.107 117.967 303.065L113.899 303.073ZM109.536 281.896V289.479H111.103C112.587 289.479 113.498 288.849 113.498 286.871V284.432C113.498 282.67 112.882 281.896 111.464 281.896H109.536Z" fill="#EBEBEB"/>
<path d="M46.7489 248.059H43.8375L43.9933 247.325H50.6772L50.5132 248.059H47.61L46.1092 255.346H45.2481L46.7489 248.059Z" fill="#E0E0E0"/>
<path d="M56.2867 249.311L51.7596 256.12C50.9887 257.268 50.4147 257.626 49.5207 257.626C49.2504 257.639 48.9802 257.598 48.7266 257.506C48.4729 257.414 48.2409 257.273 48.0446 257.092L48.4874 256.494C48.6297 256.637 48.8007 256.75 48.9898 256.825C49.1789 256.901 49.382 256.937 49.5864 256.933C50.1194 256.933 50.5295 256.686 51.0133 255.952L51.448 255.314L49.9062 249.319H50.7263L52.0385 254.437L55.4255 249.303L56.2867 249.311Z" fill="#E0E0E0"/>
<path d="M63.1756 251.806C63.2025 252.269 63.1315 252.733 62.967 253.169C62.8024 253.604 62.5479 254.002 62.219 254.338C61.8901 254.674 61.4938 254.942 61.0547 255.123C60.6155 255.305 60.1427 255.397 59.6655 255.394C59.1797 255.443 58.6902 255.343 58.2663 255.107C57.8424 254.87 57.5057 254.511 57.3036 254.078L56.5983 257.563H55.7782L57.4676 249.311H58.2877L58.0909 250.275C58.3989 249.941 58.7791 249.676 59.2045 249.501C59.6298 249.326 60.0897 249.245 60.5512 249.263C60.8998 249.246 61.2482 249.3 61.574 249.421C61.8998 249.543 62.1958 249.73 62.443 249.969C62.6902 250.209 62.883 250.496 63.0092 250.812C63.1354 251.129 63.192 251.467 63.1756 251.806ZM62.3555 251.854C62.3745 251.593 62.3339 251.331 62.2364 251.087C62.1389 250.844 61.9871 250.624 61.7918 250.444C61.5966 250.264 61.3627 250.128 61.1071 250.047C60.8514 249.965 60.5804 249.94 60.3134 249.972C59.937 249.972 59.5647 250.048 59.2202 250.195C58.8756 250.343 58.5666 250.558 58.3126 250.828C58.0587 251.099 57.8655 251.417 57.7455 251.764C57.6254 252.111 57.581 252.478 57.6152 252.843C57.5944 253.104 57.634 253.366 57.7309 253.61C57.8279 253.854 57.9799 254.074 58.1757 254.254C58.3715 254.434 58.6062 254.568 58.8626 254.648C59.119 254.728 59.3905 254.752 59.6573 254.716C60.0309 254.713 60.3998 254.635 60.7407 254.487C61.0817 254.338 61.3874 254.123 61.6385 253.854C61.8897 253.585 62.0809 253.269 62.2 252.924C62.3192 252.58 62.3637 252.216 62.3309 251.854H62.3555Z" fill="#E0E0E0"/>
<path d="M64.1516 252.843C64.129 252.375 64.2055 251.907 64.3764 251.47C64.5472 251.032 64.8087 250.633 65.1447 250.297C65.4807 249.961 65.884 249.696 66.3297 249.518C66.7753 249.341 67.2538 249.254 67.7354 249.263C69.4577 249.263 70.5566 250.251 70.5566 251.806C70.5791 252.274 70.5026 252.742 70.3319 253.18C70.1611 253.619 69.8997 254.018 69.5639 254.355C69.228 254.691 68.8247 254.957 68.3791 255.135C67.9334 255.314 67.4548 255.402 66.9727 255.394C66.6095 255.432 66.2421 255.393 65.8954 255.281C65.5487 255.169 65.2309 254.986 64.9634 254.744C64.6959 254.502 64.485 254.207 64.3449 253.879C64.2048 253.551 64.1389 253.198 64.1516 252.843ZM69.7201 251.854C69.7391 251.593 69.6985 251.331 69.601 251.087C69.5036 250.844 69.3517 250.624 69.1565 250.444C68.9612 250.264 68.7273 250.128 68.4717 250.047C68.216 249.965 67.945 249.94 67.678 249.972C67.3072 249.977 66.9411 250.055 66.6023 250.202C66.2635 250.348 65.9589 250.561 65.7072 250.825C65.4555 251.09 65.2619 251.402 65.1383 251.742C65.0146 252.082 64.9635 252.443 64.9881 252.803C64.9688 253.063 65.0094 253.325 65.1069 253.568C65.2044 253.812 65.3564 254.031 65.5518 254.211C65.7473 254.39 65.9814 254.525 66.237 254.605C66.4927 254.686 66.7636 254.71 67.0301 254.676C67.401 254.674 67.7674 254.598 68.1068 254.452C68.4461 254.307 68.7513 254.096 69.0033 253.831C69.2554 253.567 69.449 253.255 69.5723 252.915C69.6956 252.575 69.7459 252.214 69.7201 251.854Z" fill="#E0E0E0"/>
<path d="M78.5772 249.311L77.4947 254.605C77.06 256.741 75.9037 257.618 73.8862 257.618C72.8833 257.669 71.8981 257.347 71.1306 256.717L71.6227 256.096C72.2626 256.646 73.0982 256.932 73.9518 256.893C74.2739 256.923 74.5988 256.89 74.908 256.798C75.2172 256.705 75.5045 256.554 75.7536 256.353C76.0027 256.153 76.2087 255.906 76.3597 255.628C76.5106 255.35 76.6037 255.045 76.6335 254.732L76.7812 254.07C76.4719 254.405 76.0918 254.67 75.6671 254.847C75.2423 255.025 74.783 255.111 74.3208 255.099C72.6806 255.099 71.5817 254.174 71.5817 252.707C71.5692 252.253 71.6522 251.802 71.8256 251.38C71.999 250.959 72.2592 250.576 72.5901 250.256C72.9211 249.935 73.3159 249.684 73.7503 249.518C74.1847 249.351 74.6496 249.272 75.1163 249.287C75.6179 249.238 76.1226 249.345 76.5574 249.593C76.9922 249.841 77.3348 250.216 77.5357 250.666L77.7981 249.334L78.5772 249.311ZM77.1666 251.702C77.1666 250.602 76.4039 249.948 75.1163 249.948C74.756 249.939 74.3976 250.002 74.0633 250.134C73.729 250.265 73.426 250.461 73.1731 250.711C72.9201 250.961 72.7226 251.258 72.5927 251.585C72.4629 251.912 72.4035 252.261 72.4182 252.611C72.4182 253.712 73.1727 254.365 74.4685 254.365C74.8267 254.374 75.183 254.312 75.5155 254.182C75.8481 254.053 76.1499 253.858 76.4025 253.611C76.6551 253.364 76.8532 253.069 76.9846 252.745C77.1159 252.421 77.1779 252.075 77.1666 251.726V251.702Z" fill="#E0E0E0"/>
<path d="M84.0474 249.263L83.8916 250.06H83.6619C82.3416 250.06 81.4558 250.793 81.1442 252.292L80.5209 255.354H79.7008L80.931 249.326H81.7511L81.4968 250.451C81.7762 250.051 82.1594 249.731 82.6074 249.522C83.0554 249.314 83.5522 249.224 84.0474 249.263Z" fill="#E0E0E0"/>
<path d="M91.1742 249.311L89.9358 255.338H89.1157L89.3125 254.389C89.0082 254.715 88.6354 254.973 88.2194 255.147C87.8033 255.32 87.3539 255.404 86.9014 255.394C86.5455 255.423 86.1873 255.377 85.851 255.261C85.5147 255.144 85.208 254.958 84.9516 254.716C84.6952 254.475 84.495 254.182 84.3645 253.859C84.234 253.536 84.1762 253.189 84.195 252.843C84.1693 252.381 84.241 251.919 84.4055 251.485C84.5701 251.05 84.8241 250.654 85.152 250.319C85.4799 249.983 85.8747 249.717 86.3123 249.535C86.75 249.354 87.2211 249.261 87.6969 249.263C88.1818 249.213 88.6706 249.312 89.0944 249.547C89.5181 249.781 89.8555 250.139 90.0588 250.57L90.3213 249.311H91.1742ZM89.78 251.854C89.799 251.593 89.7584 251.331 89.6609 251.087C89.5634 250.844 89.4116 250.624 89.2163 250.444C89.0211 250.264 88.7872 250.128 88.5316 250.047C88.2759 249.965 88.0049 249.94 87.7379 249.972C87.3674 249.977 87.0017 250.055 86.6633 250.202C86.3248 250.348 86.0208 250.561 85.7697 250.826C85.5186 251.091 85.3259 251.403 85.2032 251.743C85.0805 252.083 85.0304 252.443 85.0561 252.803C85.036 253.061 85.0751 253.321 85.1707 253.563C85.2663 253.806 85.416 254.024 85.6089 254.204C85.8019 254.383 86.0334 254.518 86.2867 254.6C86.5399 254.682 86.8087 254.708 87.0736 254.676C87.4445 254.674 87.8109 254.598 88.1502 254.452C88.4896 254.307 88.7947 254.095 89.0468 253.831C89.2988 253.567 89.4925 253.255 89.6158 252.915C89.7391 252.575 89.7894 252.214 89.7636 251.854H89.78Z" fill="#E0E0E0"/>
<path d="M99.203 251.806C99.2299 252.269 99.1589 252.733 98.9944 253.169C98.8299 253.604 98.5753 254.002 98.2464 254.338C97.9175 254.675 97.5213 254.942 97.0821 255.123C96.643 255.305 96.1702 255.397 95.693 255.394C95.2071 255.443 94.7176 255.343 94.2938 255.107C93.8699 254.871 93.5331 254.511 93.3311 254.078L92.6258 257.563H91.8057L93.4869 249.311H94.307L94.1102 250.275C94.412 249.946 94.7842 249.685 95.2006 249.51C95.6171 249.335 96.0678 249.251 96.5213 249.263C96.8742 249.239 97.2283 249.288 97.5605 249.406C97.8926 249.525 98.1952 249.71 98.4484 249.95C98.7017 250.19 98.8998 250.48 99.0299 250.8C99.1599 251.12 99.2189 251.463 99.203 251.806ZM98.3829 251.854C98.402 251.593 98.3613 251.331 98.2639 251.087C98.1664 250.844 98.0146 250.624 97.8193 250.444C97.624 250.264 97.3902 250.128 97.1345 250.047C96.8789 249.965 96.6078 249.94 96.3409 249.972C95.9638 249.971 95.5905 250.046 95.245 250.193C94.8996 250.34 94.5895 250.555 94.3347 250.826C94.0798 251.096 93.8859 251.415 93.7654 251.762C93.6448 252.11 93.6002 252.478 93.6345 252.843C93.6139 253.103 93.6533 253.364 93.7498 253.608C93.8464 253.851 93.9976 254.071 94.1924 254.25C94.3873 254.43 94.6209 254.565 94.8762 254.646C95.1316 254.726 95.4022 254.75 95.6684 254.716C96.0433 254.716 96.414 254.639 96.7569 254.492C97.0999 254.344 97.4075 254.129 97.6605 253.86C97.9134 253.591 98.106 253.274 98.2261 252.928C98.3463 252.583 98.3913 252.217 98.3583 251.854H98.3829Z" fill="#E0E0E0"/>
<path d="M106.707 251.248C106.708 251.478 106.686 251.708 106.641 251.934L105.936 255.362H105.116L105.829 251.926C105.863 251.744 105.882 251.56 105.887 251.376C105.887 250.514 105.354 250.02 104.247 250.02C103.628 249.991 103.022 250.194 102.553 250.587C102.084 250.98 101.789 251.534 101.729 252.133L101.065 255.362H100.245L101.991 246.855H102.811L102.114 250.235C102.415 249.92 102.783 249.671 103.192 249.507C103.601 249.343 104.042 249.268 104.484 249.287C105.936 249.263 106.707 249.996 106.707 251.248Z" fill="#E0E0E0"/>
<path d="M114.547 249.311L110.037 256.12C109.266 257.268 108.692 257.618 107.798 257.618C107.527 257.631 107.257 257.59 107.004 257.498C106.75 257.406 106.518 257.265 106.322 257.084L106.773 256.486C106.913 256.63 107.082 256.743 107.27 256.818C107.458 256.894 107.66 256.93 107.863 256.925C108.396 256.925 108.806 256.678 109.29 255.944L109.733 255.306L108.183 249.311H109.003L110.283 254.445L113.67 249.311H114.547Z" fill="#E0E0E0"/>
<path d="M133.229 1.52456H7.43286L27.9356 15.876V44.1564C27.9345 44.9325 28.091 45.7013 28.396 46.4185C28.701 47.1358 29.1486 47.7875 29.7131 48.3363C30.2776 48.8851 30.948 49.3203 31.6858 49.6168C32.4235 49.9133 33.2143 50.0654 34.0126 50.0644H133.246C134.858 50.0644 136.403 49.4419 137.543 48.334C138.683 47.226 139.323 45.7233 139.323 44.1564V7.43258C139.323 6.65538 139.165 5.88582 138.859 5.16799C138.552 4.45015 138.103 3.79815 137.537 3.24933C136.971 2.70051 136.299 2.26566 135.56 1.96969C134.821 1.67373 134.029 1.52246 133.229 1.52456Z" fill="#F5F5F5"/>
<path d="M127.981 21.5129C127.981 21.6325 109.012 21.7282 85.6139 21.7282C62.2162 21.7282 43.2389 21.6246 43.2389 21.5129C43.2389 21.4013 62.208 21.2977 85.6139 21.2977C109.02 21.2977 127.981 21.3933 127.981 21.5129Z" fill="#E0E0E0"/>
<path d="M127.981 32.3722C127.981 32.4918 109.012 32.5875 85.6139 32.5875C62.2162 32.5875 43.2389 32.4918 43.2389 32.3722C43.2389 32.2526 62.208 32.1569 85.6139 32.1569C109.02 32.1569 127.981 32.2526 127.981 32.3722Z" fill="#E0E0E0"/>
</svg>
