<svg width="192" height="60" viewBox="0 0 192 60" fill="none" xmlns="http://www.w3.org/2000/svg">
<path d="M24.0172 21.4091V27.8182H39.5254C39.1137 31.3636 37.8785 34.0909 35.9571 35.8636C33.7613 38.0455 30.193 40.5 24.0172 40.5C14.5475 40.5 7.13653 32.8636 7.13653 23.4545C7.13653 14.0455 14.4103 6.40909 24.0172 6.40909C29.0951 6.40909 32.9378 8.45455 35.6826 11.0455L40.2116 6.54546C36.3688 2.86364 31.1537 0 24.0172 0C10.9793 0 0 10.5 0 23.4545C0 36.4091 10.9793 46.9091 24.0172 46.9091C31.0164 46.9091 36.3688 44.5909 40.4861 40.3636C44.7405 36.1364 46.1129 30.1364 46.1129 25.3636C46.1129 23.8636 45.9757 22.5 45.8385 21.4091H24.0172Z" fill="#4285F4"/>
<path d="M65.3265 16.0908C56.9548 16.0908 49.9556 22.4999 49.9556 31.2272C49.9556 39.9545 56.8176 46.3635 65.3265 46.3635C73.8355 46.3635 80.6975 40.0908 80.6975 31.3635C80.6975 22.4999 73.8355 16.0908 65.3265 16.0908ZM65.3265 40.4999C60.6604 40.4999 56.6804 36.6817 56.6804 31.3635C56.6804 25.909 60.6604 22.2272 65.3265 22.2272C69.9927 22.2272 73.9727 25.909 73.9727 31.3635C73.9727 36.6817 69.9927 40.4999 65.3265 40.4999Z" fill="#EA4335"/>
<path d="M140.397 19.4999H140.123C138.613 17.7272 135.731 16.0908 132.025 16.0908C124.34 16.0908 117.752 22.6363 117.752 31.2272C117.752 39.6817 124.34 46.3635 132.025 46.3635C135.731 46.3635 138.613 44.7272 140.123 42.9545H140.397V45.1363C140.397 50.8635 137.241 53.9999 132.3 53.9999C128.183 53.9999 125.712 51.1363 124.614 48.5454L118.85 50.9999C120.497 54.9545 125.026 59.9999 132.437 59.9999C140.26 59.9999 146.985 55.3636 146.985 44.1817V16.909H140.672V19.4999H140.397ZM132.712 40.4999C128.045 40.4999 124.614 36.5454 124.614 31.3635C124.614 26.0454 128.183 22.2272 132.712 22.2272C137.241 22.2272 140.809 26.1817 140.809 31.4999C140.946 36.6817 137.378 40.4999 132.712 40.4999Z" fill="#4285F4"/>
<path d="M99.4999 16.0908C91.1282 16.0908 84.1289 22.4999 84.1289 31.2272C84.1289 39.9545 90.991 46.3635 99.4999 46.3635C108.009 46.3635 114.871 40.0908 114.871 31.3635C114.871 22.4999 108.009 16.0908 99.4999 16.0908ZM99.4999 40.4999C94.8337 40.4999 90.8537 36.6817 90.8537 31.3635C90.8537 25.909 94.8337 22.2272 99.4999 22.2272C104.166 22.2272 108.146 25.909 108.146 31.3635C108.146 36.6817 104.166 40.4999 99.4999 40.4999Z" fill="#FBBC05"/>
<path d="M152.063 0.681885H158.651V46.5001H152.063V0.681885Z" fill="#34A853"/>
<path d="M178.962 40.4999C175.531 40.4999 173.198 38.9999 171.551 35.8635L192 27.5454L191.314 25.7726C190.079 22.3635 186.099 16.0908 178.276 16.0908C170.453 16.0908 163.866 22.2272 163.866 31.2272C163.866 39.6817 170.316 46.3635 178.962 46.3635C185.961 46.3635 189.941 42.1363 191.726 39.6817L186.51 36.2726C184.726 38.8635 182.393 40.4999 178.962 40.4999ZM178.551 21.8181C181.295 21.8181 183.628 23.1817 184.315 25.0908L170.591 30.8181C170.453 24.5454 175.119 21.8181 178.551 21.8181Z" fill="#EA4335"/>
</svg>
