<svg width="11" height="10" viewBox="0 0 11 10" fill="none" xmlns="http://www.w3.org/2000/svg">
<path d="M9.94115 0H0.792554C0.355046 0 0 0.321215 0 0.71676V9.22959C0 9.62569 0.355046 9.94732 0.792554 9.94732H9.94115C10.379 9.94732 10.7364 9.62569 10.7364 9.22959V0.71676C10.7364 0.321215 10.379 0 9.94115 0ZM3.18423 8.4765H1.59107V3.72955H3.18423V8.4765ZM2.38765 3.08049C1.87723 3.08049 1.46462 2.69724 1.46462 2.22475C1.46462 1.75294 1.87723 1.36969 2.38765 1.36969C2.89688 1.36969 3.31053 1.75294 3.31053 2.22475C3.31053 2.69724 2.89688 3.08049 2.38765 3.08049ZM9.14829 8.4765H7.55767V6.16817C7.55767 5.61747 7.54604 4.90942 6.72992 4.90942C5.90113 4.90942 5.77483 5.50916 5.77483 6.12824V8.47664H4.18301V3.72955H5.71071V4.37779H5.73248C5.94512 4.00476 6.46464 3.61115 7.23945 3.61115C8.85081 3.61115 9.14844 4.594 9.14844 5.87265L9.14829 8.4765Z" fill="#5F61BE"/>
</svg>
