<svg width="226" height="61" viewBox="0 0 226 61" fill="none" xmlns="http://www.w3.org/2000/svg">
<path d="M213.923 29.0443L226 61C222.46 60.5148 218.851 59.8216 215.241 59.267L208.439 41.5909L201.429 57.8114C198.028 57.2568 194.627 57.0489 191.156 56.633L203.442 28.6977L192.336 0H202.678L208.925 16.0125L215.588 0H226L213.923 29.0443ZM184.215 0H174.845V55.3852C177.899 55.5932 181.092 55.7318 184.215 56.0784V0ZM166.793 54.7614C158.256 54.2068 149.718 53.6523 141.042 53.5136V0H150.551V44.5023C156.034 44.6409 161.518 45.0568 166.793 45.3341V54.7614ZM130.838 21.6966V31.1932H117.789V52.8898H108.35V0H135.072V9.49659H117.789V21.6273H130.838V21.6966ZM92.3157 9.49659V53.375C89.1228 53.375 85.8606 53.375 82.7371 53.5136V9.49659H72.8808V0H102.241V9.49659H92.3157ZM62.6081 31.6784C58.4435 31.6784 53.4459 31.6784 49.906 31.8864V46.0273C55.5283 45.6114 61.0811 45.1955 66.7727 44.9875V54.1375L40.3968 56.217V0H66.7727V9.49659H49.906V22.3205C53.5848 22.3205 59.2764 22.1125 62.6081 22.1125V31.6784ZM9.71744 26.3409V59.6136C6.31634 60.0295 3.26228 60.5148 0 61V0H9.09275L21.5172 34.6591V0H31.0958V57.0489C27.6947 57.6034 24.2936 57.8114 20.6843 58.2966L9.71744 26.3409Z" fill="#E50914"/>
</svg>
