<svg width="575" height="272" viewBox="0 0 575 272" fill="none" xmlns="http://www.w3.org/2000/svg">
<path d="M574.519 271.095C574.519 271.215 445.893 271.303 287.276 271.303C128.659 271.303 0 271.215 0 271.095C0 270.976 128.593 270.888 287.276 270.888C445.959 270.888 574.519 270.984 574.519 271.095Z" fill="#263238"/>
<path d="M520.54 230.401C520.54 230.401 498.799 206.083 490.598 181.765C482.397 157.448 486.292 160.238 486.292 160.238C486.292 160.238 497.364 183.87 505.77 195.28C514.176 206.689 529.192 223.424 529.192 223.424L520.54 230.401Z" fill="#455A64"/>
<path d="M524.87 163.977C524.727 163.722 524.495 163.524 524.216 163.419C523.936 163.314 523.628 163.309 523.345 163.405C523.062 163.5 522.824 163.691 522.672 163.942C522.52 164.193 522.465 164.488 522.516 164.775C523.837 173.322 526.707 193.374 526.617 206.378C526.469 223.273 526.617 229.803 526.617 229.803H535.638C535.638 229.803 533.998 194.881 531.989 184.229C530.562 176.782 527.552 168.49 524.87 163.977Z" fill="#455A64"/>
<path d="M529.807 226.964C533.598 218.612 536.107 209.763 537.254 200.701C538 194.482 536.663 186.079 534.687 174.861C533.927 170.759 533.545 166.599 533.547 162.431C533.55 161.966 533.712 161.515 534.007 161.149C534.303 160.784 534.715 160.524 535.179 160.411C535.642 160.297 536.132 160.337 536.57 160.524C537.008 160.711 537.37 161.034 537.598 161.442C538.689 163.34 541.855 169.814 542.658 173.864C544.848 184.939 547.325 190.48 545.43 200.972C543.536 211.465 536.524 227.666 536.524 227.666L529.807 226.964Z" fill="#455A64"/>
<path d="M537.951 227.69C537.951 227.69 561.824 177.819 563.481 170.42C565.137 163.021 570.755 145.974 571.419 146.939C572.084 147.904 573.06 156.913 568.77 167.207C564.481 177.5 546.103 229.205 546.103 229.205H537.951" fill="#455A64"/>
<path d="M527.191 225.458C526.956 225.325 526.731 225.176 526.518 225.011C526.1 224.7 525.452 224.262 524.673 223.64C522.439 221.912 520.298 220.073 518.26 218.13C511.536 211.699 505.712 204.434 500.939 196.523C496.179 188.618 492.221 180.282 489.122 171.632C487.924 168.323 487.047 165.612 486.481 163.722C486.186 162.789 485.981 162.048 485.841 161.554C485.754 161.294 485.694 161.027 485.661 160.756C485.774 160.996 485.867 161.244 485.94 161.498L486.669 163.643C487.293 165.508 488.219 168.203 489.458 171.488C492.655 180.076 496.646 188.365 501.382 196.252C506.142 204.134 511.903 211.401 518.531 217.883C521.081 220.355 523.271 222.228 524.813 223.464C525.575 224.11 526.199 224.573 526.601 224.907C526.812 225.075 527.01 225.259 527.191 225.458Z" fill="#263238"/>
<path d="M529.799 201.53C529.686 201.051 529.615 200.563 529.585 200.071C529.471 199.035 529.323 197.679 529.151 196.085C528.774 192.704 528.183 188.056 527.338 182.945C526.494 177.835 525.55 173.234 524.821 169.917C524.468 168.323 524.173 166.999 523.951 165.987C523.819 165.508 523.729 165.02 523.681 164.528C523.876 164.984 524.029 165.456 524.14 165.939C524.411 166.856 524.763 168.187 525.173 169.838C525.993 173.138 526.994 177.739 527.839 182.866C528.683 187.992 529.216 192.656 529.479 196.045C529.626 197.743 529.717 199.115 529.758 200.032C529.825 200.528 529.839 201.031 529.799 201.53Z" fill="#263238"/>
<path d="M535.392 161.067C535.505 161.271 535.599 161.485 535.671 161.705C535.86 162.176 536.097 162.79 536.393 163.555C536.688 164.32 537.065 165.349 537.418 166.529C537.771 167.709 538.238 169.017 538.574 170.515L539.165 172.86C539.37 173.657 539.509 174.542 539.69 175.427C540.083 177.197 540.321 179.118 540.608 181.136C541.698 189.917 541.371 198.811 539.64 207.494C539.206 209.488 538.82 211.385 538.304 213.123C538.058 213.992 537.852 214.845 537.59 215.643C537.328 216.44 537.073 217.237 536.827 217.947C536.368 219.422 535.819 220.706 535.376 221.846C534.933 222.986 534.506 223.959 534.137 224.74L533.317 226.534C533.229 226.749 533.12 226.954 532.989 227.148C533.046 226.923 533.126 226.704 533.227 226.494L533.982 224.66C534.326 223.863 534.736 222.898 535.138 221.75C535.54 220.602 536.081 219.31 536.516 217.835C536.745 217.102 536.991 216.336 537.246 215.539C537.5 214.742 537.689 213.889 537.926 213.02C538.427 211.282 538.746 209.392 539.214 207.439C540.879 198.793 541.205 189.954 540.182 181.215C539.903 179.206 539.681 177.292 539.312 175.53C539.132 174.645 539.001 173.784 538.812 172.971C538.623 172.158 538.435 171.377 538.254 170.627C537.935 169.128 537.5 167.805 537.172 166.641C536.844 165.476 536.524 164.472 536.237 163.659C535.95 162.845 535.769 162.255 535.614 161.777C535.515 161.549 535.441 161.311 535.392 161.067Z" fill="#263238"/>
<path d="M571.141 147.944C571.155 148.017 571.155 148.093 571.141 148.167C571.141 148.342 571.075 148.558 571.034 148.813C570.927 149.379 570.796 150.224 570.567 151.3C570.107 153.445 569.336 156.531 568.106 160.278C566.876 164.025 565.293 168.41 563.358 173.242C561.422 178.074 559.192 183.328 557.076 188.925C554.96 194.522 553.262 199.976 551.704 204.919C550.146 209.862 548.702 214.327 547.284 217.995C546.191 220.904 544.934 223.752 543.519 226.526C543.027 227.515 542.584 228.248 542.306 228.758L541.969 229.324C541.935 229.394 541.891 229.459 541.838 229.516C541.856 229.441 541.883 229.369 541.92 229.301L542.215 228.711C542.47 228.184 542.88 227.435 543.339 226.438C544.298 224.461 545.594 221.559 546.947 217.875C548.301 214.192 549.736 209.751 551.261 204.791C552.787 199.832 554.435 194.363 556.592 188.758C558.749 183.153 560.971 177.89 562.923 173.075C564.875 168.259 566.54 163.89 567.762 160.166C568.984 156.443 569.82 153.381 570.337 151.253C570.599 150.192 570.763 149.355 570.903 148.797C570.968 148.542 571.018 148.334 571.059 148.159C571.074 148.083 571.102 148.011 571.141 147.944Z" fill="#263238"/>
<path d="M497.544 136.925C497.214 136.619 496.789 136.428 496.336 136.382C495.882 136.336 495.426 136.438 495.038 136.672C494.651 136.905 494.354 137.257 494.195 137.673C494.035 138.088 494.022 138.543 494.157 138.966C494.974 141.53 495.977 144.035 497.159 146.461C500.439 153.246 510.084 177.556 514.594 190.926C519.105 204.297 525.461 229.197 525.461 229.197L535.097 227.682C535.097 227.682 526.281 186.741 517.711 171.951C510.748 160.127 503.826 143 497.544 136.925Z" fill="#455A64"/>
<path d="M517.227 199.282C517.436 199.637 517.604 200.014 517.727 200.406C518.014 201.14 518.399 202.208 518.834 203.548C519.72 206.219 520.81 209.926 521.901 214.096C522.992 218.266 523.902 222.021 524.534 224.756C524.829 226.048 525.067 227.148 525.264 228.001C525.369 228.395 525.435 228.798 525.46 229.205C525.287 228.834 525.155 228.447 525.067 228.049C524.837 227.196 524.542 226.119 524.189 224.86L521.409 214.208C520.318 210.062 519.285 206.322 518.49 203.635L517.538 200.446C517.395 200.069 517.291 199.679 517.227 199.282Z" fill="#263238"/>
<path d="M530.299 228.448C530.273 228.367 530.257 228.284 530.25 228.2C530.25 228.001 530.184 227.762 530.135 227.459C530.037 226.813 529.946 225.864 529.741 224.62C529.389 222.165 528.757 218.617 527.724 214.295C526.489 209.234 524.983 204.239 523.213 199.33C521.237 193.749 518.76 187.785 515.947 181.574C510.28 169.176 504.621 158.181 500.898 150.057C499.02 145.998 497.56 142.69 496.601 140.377C496.109 139.229 495.781 138.328 495.518 137.714C495.412 137.427 495.321 137.204 495.248 137.013C495.212 136.937 495.187 136.856 495.174 136.774C495.174 136.774 495.223 136.845 495.297 136.997C495.371 137.148 495.485 137.403 495.617 137.675L496.781 140.306C497.798 142.586 499.307 145.887 501.226 149.873C505.023 157.966 510.739 168.929 516.415 181.343C519.228 187.562 521.696 193.573 523.656 199.147C525.412 204.084 526.888 209.112 528.077 214.208C528.875 217.63 529.496 221.09 529.938 224.573C530.11 225.808 530.168 226.773 530.242 227.427C530.242 227.73 530.283 227.969 530.299 228.168C530.312 228.261 530.312 228.355 530.299 228.448Z" fill="#263238"/>
<path d="M535.097 227.69C534.947 227.167 534.837 226.634 534.769 226.095C534.58 224.995 534.326 223.544 534.022 221.79C533.358 218.162 532.382 213.163 530.89 207.726C529.397 202.288 527.814 197.432 526.568 193.956L525.091 189.858C524.878 189.363 524.708 188.85 524.583 188.327C524.853 188.796 525.086 189.283 525.28 189.786C525.69 190.735 526.272 192.122 526.92 193.852C528.663 198.359 530.158 202.953 531.398 207.614C532.639 212.274 533.638 216.992 534.392 221.75C534.67 223.576 534.875 225.059 534.982 226.087C535.062 226.618 535.1 227.154 535.097 227.69Z" fill="#263238"/>
<path d="M554.869 226.343H517.259V270.888H554.869V226.343Z" fill="#7476D1"/>
<g opacity="0.3">
<path d="M554.869 226.343H517.259V270.888H554.869V226.343Z" fill="black"/>
</g>
<path d="M542.871 226.343H509.509V270.888H542.871V226.343Z" fill="#7476D1"/>
<path d="M53.9632 210.859C47.5499 206.873 38.6764 206.793 32.4435 211.026C26.5223 215.053 23.5125 222.372 23.775 229.364C24.0374 236.357 27.5393 244.952 34.0755 248.643L53.2661 248.564C56.3501 246.381 58.8974 243.561 60.7241 240.306C62.5507 237.05 63.6113 233.441 63.8291 229.739C64.1161 222.372 60.3682 214.846 53.9632 210.859Z" fill="#455A64"/>
<path d="M44.5073 249.345C44.4171 248.818 44.3787 248.284 44.3925 247.75C44.3925 246.602 44.3105 245.135 44.2613 243.373C44.1629 239.681 44.0153 234.603 43.761 228.95C43.5068 223.297 43.1952 218.218 42.9409 214.527C42.8343 212.772 42.7441 211.337 42.6703 210.157C42.6177 209.627 42.6177 209.093 42.6703 208.563C42.8076 209.085 42.8955 209.619 42.9327 210.157C43.064 211.186 43.2198 212.677 43.4002 214.519C43.7446 218.202 44.1219 223.289 44.3843 228.942C44.6468 234.595 44.7206 239.697 44.7042 243.397C44.7042 245.247 44.7042 246.738 44.6386 247.774C44.6434 248.3 44.5995 248.826 44.5073 249.345Z" fill="#263238"/>
<path d="M25.7104 227.802C25.7104 227.961 24.6524 228.017 23.3813 227.913C22.1101 227.81 21.0932 227.594 21.1014 227.435C21.1096 227.275 22.1593 227.22 23.4305 227.315C24.7016 227.411 25.7268 227.634 25.7104 227.802Z" fill="#263238"/>
<path d="M26.0714 221.503C25.9976 221.654 25.1036 221.415 24.0621 220.961C23.0206 220.506 22.2333 220.028 22.2989 219.876C22.3645 219.725 23.2666 219.972 24.3081 220.419C25.3497 220.865 26.137 221.383 26.0714 221.503Z" fill="#263238"/>
<path d="M29.401 216.831C29.3108 216.966 28.3021 216.504 27.2524 215.659C26.2026 214.814 25.5383 213.929 25.6613 213.825C25.7844 213.721 26.6209 214.375 27.6378 215.196C28.6547 216.018 29.4913 216.687 29.401 216.831Z" fill="#263238"/>
<path d="M32.7552 212.422C32.5994 212.486 32.1155 211.752 31.6727 210.779C31.2298 209.807 30.992 208.961 31.1478 208.89C31.3036 208.818 31.7875 209.559 32.2304 210.54C32.6732 211.521 32.9028 212.358 32.7552 212.422Z" fill="#263238"/>
<path d="M38.0121 209.296C37.8563 209.36 37.3396 208.579 36.987 207.494C36.6344 206.41 36.6097 205.469 36.7738 205.445C36.9378 205.421 37.2412 206.243 37.5939 207.311C37.9465 208.379 38.168 209.225 38.0121 209.296Z" fill="#263238"/>
<path d="M46.779 205.764C46.9431 205.82 46.8446 206.49 46.5658 207.263C46.287 208.037 45.9261 208.611 45.7457 208.555C45.5653 208.499 45.6801 207.837 45.9589 207.064C46.2378 206.29 46.6232 205.708 46.779 205.764Z" fill="#263238"/>
<path d="M53.2907 208.483C53.4055 208.603 52.9873 209.161 52.3558 209.727C51.7243 210.293 51.1256 210.652 51.0108 210.524C50.896 210.396 51.3142 209.846 51.9375 209.28C52.5608 208.714 53.1759 208.363 53.2907 208.483Z" fill="#263238"/>
<path d="M59.015 212.079C59.1134 212.214 58.605 212.709 57.8833 213.187C57.1616 213.665 56.4973 213.937 56.3989 213.801C56.3005 213.665 56.8171 213.171 57.5388 212.693C58.2605 212.214 58.9248 211.943 59.015 212.079Z" fill="#263238"/>
<path d="M63.0828 217.437C63.1484 217.588 62.3529 218.067 61.2949 218.505C60.237 218.944 59.3267 219.175 59.2611 219.023C59.1955 218.872 59.9992 218.394 61.0571 217.963C62.1151 217.532 63.0172 217.285 63.0828 217.437Z" fill="#263238"/>
<path d="M64.6903 223.289C64.6903 223.448 63.8701 223.688 62.8614 223.807C61.8527 223.927 60.9916 223.903 60.967 223.735C60.9424 223.568 61.7871 223.345 62.7876 223.217C63.7881 223.09 64.6656 223.122 64.6903 223.289Z" fill="#263238"/>
<path d="M65.5186 230.489C65.453 230.64 64.5837 230.417 63.5831 229.994C62.5826 229.572 61.8117 229.101 61.8773 228.95C61.9429 228.798 62.8204 229.022 63.821 229.444C64.8215 229.867 65.5924 230.337 65.5186 230.489Z" fill="#263238"/>
<path d="M64.7887 236.668C64.7313 236.819 63.6323 236.564 62.4841 235.831C61.336 235.097 60.6553 234.236 60.7701 234.116C60.8849 233.997 61.7297 234.643 62.8204 235.328C63.9111 236.014 64.8461 236.532 64.7887 236.668Z" fill="#263238"/>
<path d="M61.4754 242.289C61.377 242.416 60.4995 241.922 59.663 241.037C58.8264 240.152 58.3754 239.275 58.5066 239.179C58.6378 239.084 59.3267 239.793 60.1468 240.63C60.9669 241.467 61.5902 242.161 61.4754 242.289Z" fill="#263238"/>
<path d="M30.0652 242.95C30.139 243.094 29.2451 243.748 28.0067 244.322C26.7684 244.896 25.7514 245.303 25.6448 245.175C25.5382 245.047 26.4649 244.378 27.6951 243.796C28.9253 243.214 29.9832 242.807 30.0652 242.95Z" fill="#263238"/>
<path d="M27.1948 237.864C27.2604 238.015 26.5223 238.486 25.5545 238.916C24.5868 239.347 23.7257 239.578 23.6519 239.426C23.5781 239.275 24.3244 238.804 25.2921 238.374C26.2598 237.943 27.121 237.712 27.1948 237.864Z" fill="#263238"/>
<path d="M25.0872 233.343C25.0872 233.502 24.2015 233.765 23.0534 233.925C21.9052 234.084 20.9703 234.076 20.9457 233.925C20.9211 233.773 21.8314 233.502 22.9713 233.351C24.1113 233.199 25.0626 233.191 25.0872 233.343Z" fill="#263238"/>
<path d="M32.0007 230.871C32.05 231.031 31.1806 231.429 29.9915 231.557C28.8023 231.685 27.851 231.485 27.8674 231.326C27.8838 231.166 28.8023 231.095 29.9177 230.967C31.033 230.839 31.9515 230.712 32.0007 230.871Z" fill="#263238"/>
<path d="M37.7497 225.314C37.7989 225.466 37.0936 225.816 36.1095 225.904C35.1254 225.992 34.4037 225.792 34.4201 225.633C34.4365 225.474 35.1746 225.402 36.0603 225.314C36.946 225.226 37.7005 225.155 37.7497 225.314Z" fill="#263238"/>
<path d="M38.8486 220.857C38.7912 221.017 38.0285 220.897 37.1428 220.602C36.257 220.307 35.5846 219.94 35.642 219.805C35.6994 219.669 36.4621 219.765 37.3478 220.068C38.2335 220.371 38.906 220.706 38.8486 220.857Z" fill="#263238"/>
<path d="M40.9563 216.352C40.8415 216.472 40.3167 216.137 39.9394 215.499C39.5622 214.861 39.5293 214.263 39.6934 214.224C39.8574 214.184 40.1362 214.646 40.5135 215.204C40.8907 215.762 41.0794 216.241 40.9563 216.352Z" fill="#263238"/>
<path d="M38.414 234.794C38.455 234.954 37.7989 235.249 36.9378 235.456C36.5332 235.56 36.1177 235.619 35.6994 235.631L35.5846 235.28C35.806 235.28 35.9454 235.28 35.9782 235.32C36.011 235.36 35.9126 235.488 35.7322 235.623L35.6092 235.272C35.9894 235.098 36.3881 234.964 36.7984 234.874C37.6513 234.674 38.373 234.635 38.414 234.794Z" fill="#263238"/>
<path d="M39.5867 242.695C39.6441 242.847 38.7666 243.309 37.7004 243.732C36.6343 244.154 35.6583 244.37 35.6009 244.218C35.5435 244.067 36.421 243.596 37.479 243.182C38.5369 242.767 39.5375 242.544 39.5867 242.695Z" fill="#263238"/>
<path d="M33.1078 239.187C33.1652 239.339 32.5994 239.665 31.8531 239.913C31.1068 240.16 30.4589 240.24 30.4015 240.08C30.3441 239.921 30.9099 239.602 31.6562 239.355C32.4025 239.107 33.0258 239.028 33.1078 239.187Z" fill="#263238"/>
<path d="M33.5999 223.114C33.5999 223.273 32.583 223.177 31.4594 222.787C30.3359 222.396 29.5075 221.87 29.5814 221.726C29.6552 221.583 30.5655 221.846 31.6644 222.221C32.7634 222.595 33.6409 222.978 33.5999 223.114Z" fill="#263238"/>
<path d="M49.3132 221.383C49.4116 221.519 48.8622 222.029 48.0913 222.524C47.3203 223.018 46.615 223.321 46.5166 223.169C46.4182 223.018 46.9759 222.524 47.7468 222.029C48.5177 221.535 49.223 221.224 49.3132 221.383Z" fill="#263238"/>
<path d="M50.1743 229.293C50.1743 229.452 49.6249 229.707 48.8786 229.859C48.1323 230.01 47.5008 230.002 47.4598 229.859C47.4188 229.715 48.0093 229.444 48.7556 229.293C49.5019 229.141 50.1333 229.133 50.1743 229.293Z" fill="#263238"/>
<path d="M51.1667 238.214C51.0929 238.358 50.2563 238.135 49.305 237.704C48.3537 237.274 47.6648 236.803 47.6648 236.652C47.6648 236.5 48.5751 236.731 49.5264 237.162C50.4778 237.593 51.2323 238.063 51.1667 238.214Z" fill="#263238"/>
<path d="M49.0589 246.897C48.9277 247.009 48.3864 246.578 47.8534 245.94C47.3203 245.302 47.0333 244.704 47.1235 244.601C47.2137 244.497 47.7878 244.928 48.329 245.566C48.8703 246.203 49.1901 246.785 49.0589 246.897Z" fill="#263238"/>
<path d="M48.608 215.523C48.7146 215.651 48.3537 216.089 47.7386 216.384C47.1236 216.679 46.5577 216.703 46.5167 216.544C46.4757 216.384 46.9185 216.129 47.468 215.858C48.0175 215.587 48.5259 215.396 48.608 215.523Z" fill="#263238"/>
<path d="M56.3333 223.52C56.3907 223.672 55.6772 224.054 54.6931 224.19C53.709 224.325 52.9299 224.142 52.9381 223.983C52.9463 223.823 53.7008 223.719 54.5783 223.6C55.4558 223.48 56.2759 223.369 56.3333 223.52Z" fill="#263238"/>
<path d="M54.7996 216.344C54.8735 216.488 54.1682 216.982 53.1594 217.293C52.1507 217.604 51.2896 217.604 51.265 217.445C51.2404 217.285 52.0195 217.022 52.9708 216.719C53.9221 216.416 54.7176 216.193 54.7996 216.344Z" fill="#263238"/>
<path d="M58.0146 234.643C58.0146 234.802 56.8008 234.906 55.341 234.643C53.8812 234.379 52.7905 233.845 52.8807 233.726C52.9709 233.606 54.0863 233.813 55.4887 234.053C56.891 234.292 58.0146 234.475 58.0146 234.643Z" fill="#263238"/>
<path d="M55.1687 245.071C55.0703 245.199 54.1764 244.689 53.2907 243.82C52.405 242.951 51.8883 242.113 51.9949 241.986C52.1015 241.858 52.815 242.56 53.709 243.405C54.6029 244.25 55.259 244.944 55.1687 245.071Z" fill="#263238"/>
<path d="M42.5719 207.829C40.6136 208.986 38.8094 210.373 37.2002 211.959C33.4678 215.937 31.1254 220.96 30.5081 226.311C30.2301 229.252 30.3653 232.216 30.91 235.121C31.3493 237.505 31.9159 239.866 32.6076 242.193C33.1981 244.178 33.7393 245.773 34.1002 246.881C34.3184 247.447 34.4911 248.028 34.6169 248.619C34.3165 248.091 34.0693 247.535 33.8788 246.961C33.4441 245.877 32.8372 244.298 32.1975 242.313C31.434 239.987 30.8205 237.617 30.3605 235.217C29.7656 232.264 29.611 229.243 29.9012 226.247C30.5157 220.764 32.9714 215.63 36.8886 211.64C38.0782 210.467 39.4242 209.453 40.8907 208.627C41.2857 208.392 41.6967 208.185 42.1208 208.005C42.2624 207.927 42.4141 207.868 42.5719 207.829Z" fill="#263238"/>
<path d="M50.9288 249.05C50.7894 248.978 52.2984 246.722 53.6762 242.671C55.5205 237.385 56.0819 231.755 55.3164 226.223C54.903 223.171 54.024 220.197 52.7085 217.397C51.6082 215.146 50.1028 213.105 48.2635 211.369C46.9627 210.259 45.4904 209.355 43.9005 208.69C42.7688 208.236 42.0881 208.124 42.0963 208.076C42.262 208.052 42.4308 208.052 42.5965 208.076C43.0679 208.159 43.5315 208.279 43.9825 208.435C45.647 209.029 47.1907 209.903 48.5423 211.018C50.4815 212.747 52.0675 214.817 53.217 217.118C54.5845 219.942 55.4973 222.954 55.9233 226.048C56.7074 231.668 56.0741 237.39 54.0781 242.719C53.7336 243.748 53.258 244.625 52.9545 245.422C52.6511 246.219 52.2328 246.857 51.9376 247.383C51.6452 247.963 51.308 248.52 50.9288 249.05Z" fill="#263238"/>
<path d="M27.1948 247.639H60.9669L61.172 254.208H27.1948V247.639Z" fill="#7476D1"/>
<path d="M30.0652 250.923L32.0006 270.984H56.6941L58.6788 251.147L30.0652 250.923Z" fill="#7476D1"/>
<path d="M61.1721 254.288C61.1721 254.455 53.5696 254.583 44.1876 254.583C34.8055 254.583 27.2031 254.455 27.2031 254.288C27.2031 254.121 34.8055 253.993 44.1876 253.993C53.5696 253.993 61.1721 254.121 61.1721 254.288Z" fill="#263238"/>
<path d="M57.744 260.395C57.568 260.847 57.3249 261.272 57.0223 261.655C56.2605 262.745 55.3806 263.753 54.3979 264.661L54.2421 264.805L54.0945 264.645C52.0655 262.578 49.8476 260.694 47.468 259.016H47.8453L44.9093 261.52L41.4402 264.438L41.2516 264.605L41.0548 264.446L35.4206 259.837L35.7487 259.798C34.5841 261.185 33.6 262.341 32.8291 263.266C32.4927 263.709 32.1077 264.115 31.6809 264.478C31.9511 263.993 32.2668 263.534 32.624 263.106L35.3796 259.526L35.5272 259.343L35.7158 259.487L41.4566 263.999H41.0794L44.532 261.049L47.4762 258.554L47.6566 258.402L47.8535 258.538C50.239 260.252 52.4375 262.2 54.4143 264.35H54.1027C55.4266 263.132 56.6445 261.809 57.744 260.395Z" fill="#263238"/>
<path d="M463.542 20.2795H106.04C99.4408 20.2795 94.0911 25.4805 94.0911 31.8962V253.866C94.0911 260.281 99.4408 265.482 106.04 265.482H463.542C470.141 265.482 475.491 260.281 475.491 253.866V31.8962C475.491 25.4805 470.141 20.2795 463.542 20.2795Z" fill="#455A64"/>
<path d="M81.6089 249.64H494.821V256.903C494.821 260.667 493.283 264.277 490.545 266.939C487.808 269.6 484.095 271.095 480.223 271.095H96.174C92.3024 271.095 88.5893 269.6 85.8517 266.939C83.114 264.277 81.576 260.667 81.576 256.903V249.64H81.6089Z" fill="#455A64"/>
<path d="M247.197 247.344L252.323 255.277H324.476L329.233 247.344H247.197Z" fill="#263238"/>
<path d="M472.211 247.344C472.211 247.479 387.559 247.583 283.167 247.583C178.776 247.583 94.0911 247.479 94.0911 247.344C94.0911 247.208 178.726 247.104 283.167 247.104C387.608 247.104 472.211 247.208 472.211 247.344Z" fill="#263238"/>
<path d="M460.393 34.3759H107.697C106.216 34.3759 105.015 35.5431 105.015 36.983V238.254C105.015 239.694 106.216 240.862 107.697 240.862H460.393C461.874 240.862 463.075 239.694 463.075 238.254V36.983C463.075 35.5431 461.874 34.3759 460.393 34.3759Z" fill="#EBEBEB"/>
<path d="M462.689 241.165H104.629L105.015 49.8116H462.689V241.165Z" fill="white"/>
<path d="M134.383 42.3568C134.388 42.9082 134.224 43.4485 133.913 43.9092C133.601 44.3699 133.156 44.7303 132.633 44.9446C132.111 45.1589 131.534 45.2174 130.978 45.1128C130.421 45.0081 129.909 44.745 129.506 44.3568C129.103 43.9686 128.828 43.4729 128.716 42.9325C128.603 42.392 128.658 41.8313 128.874 41.3215C129.09 40.8116 129.457 40.3756 129.928 40.0688C130.399 39.762 130.954 39.5982 131.521 39.5982C132.276 39.596 133.002 39.8852 133.538 40.4024C134.075 40.9195 134.379 41.6223 134.383 42.3568Z" fill="#263238"/>
<path d="M117.054 42.3569C117.059 42.9092 116.895 43.4505 116.582 43.9117C116.269 44.373 115.823 44.7333 115.299 44.9469C114.775 45.1604 114.197 45.2176 113.64 45.111C113.082 45.0043 112.57 44.7388 112.168 44.3483C111.766 43.9577 111.493 43.4597 111.384 42.9177C111.274 42.3757 111.333 41.8142 111.552 41.3048C111.772 40.7954 112.143 40.3611 112.617 40.0572C113.092 39.7532 113.648 39.5935 114.217 39.5982C114.968 39.6024 115.687 39.8944 116.218 40.4108C116.749 40.9273 117.05 41.6265 117.054 42.3569Z" fill="#263238"/>
<path d="M125.37 42.3568C125.37 42.9072 125.202 43.4451 124.888 43.9027C124.573 44.3603 124.126 44.717 123.603 44.9276C123.08 45.1382 122.505 45.1933 121.949 45.0859C121.394 44.9786 120.884 44.7136 120.484 44.3244C120.084 43.9352 119.811 43.4394 119.701 42.8997C119.59 42.3599 119.647 41.8004 119.863 41.292C120.08 40.7835 120.447 40.3489 120.918 40.0432C121.388 39.7374 121.942 39.5742 122.508 39.5742C122.884 39.5732 123.257 39.6444 123.604 39.7839C123.952 39.9234 124.268 40.1283 124.534 40.3869C124.8 40.6455 125.011 40.9527 125.154 41.2907C125.298 41.6288 125.371 41.9911 125.37 42.3568Z" fill="#263238"/>
<path d="M463.074 222.683H104.629V241.164H463.074V222.683Z" fill="#263238"/>
<path d="M118.178 234.061V234.651H115.324V234.188L116.857 232.769C117.234 232.418 117.3 232.195 117.3 231.972C117.3 231.629 117.054 231.429 116.578 231.429C116.407 231.42 116.236 231.451 116.079 231.519C115.922 231.587 115.784 231.69 115.676 231.82L115.168 231.445C115.348 231.238 115.574 231.074 115.831 230.966C116.087 230.858 116.365 230.809 116.644 230.824C117.464 230.824 118.03 231.23 118.03 231.9C118.025 232.133 117.963 232.362 117.851 232.568C117.738 232.775 117.578 232.953 117.382 233.088L116.349 234.045L118.178 234.061Z" fill="white"/>
<path d="M118.563 232.195C118.563 232.106 118.59 232.02 118.641 231.946C118.692 231.872 118.764 231.815 118.849 231.782C118.933 231.748 119.026 231.74 119.115 231.758C119.204 231.775 119.286 231.819 119.35 231.882C119.414 231.945 119.457 232.026 119.474 232.113C119.491 232.2 119.48 232.29 119.444 232.371C119.408 232.453 119.348 232.522 119.271 232.57C119.195 232.618 119.105 232.643 119.014 232.641C118.954 232.642 118.894 232.632 118.838 232.609C118.782 232.587 118.732 232.554 118.69 232.513C118.647 232.471 118.614 232.421 118.593 232.366C118.571 232.312 118.561 232.253 118.563 232.195ZM118.563 234.244C118.554 234.181 118.56 234.117 118.578 234.056C118.597 233.995 118.629 233.938 118.672 233.89C118.716 233.843 118.769 233.804 118.828 233.778C118.888 233.751 118.953 233.738 119.018 233.738C119.084 233.738 119.148 233.751 119.208 233.778C119.268 233.804 119.321 233.843 119.364 233.89C119.407 233.938 119.439 233.995 119.458 234.056C119.477 234.117 119.482 234.181 119.473 234.244C119.482 234.307 119.477 234.371 119.458 234.432C119.439 234.493 119.407 234.549 119.364 234.597C119.321 234.645 119.268 234.684 119.208 234.71C119.148 234.736 119.084 234.75 119.018 234.75C118.953 234.75 118.888 234.736 118.828 234.71C118.769 234.684 118.716 234.645 118.672 234.597C118.629 234.549 118.597 234.493 118.578 234.432C118.56 234.371 118.554 234.307 118.563 234.244Z" fill="white"/>
<path d="M121.269 230.887V234.651H120.556V231.461H119.736V230.871L121.269 230.887Z" fill="white"/>
<path d="M125.493 233.797H124.804V234.651H124.107V233.797H121.983V233.343L123.894 230.951H124.665L122.86 233.271H124.132V232.514H124.804V233.271H125.493V233.797Z" fill="white"/>
<path d="M425.612 232.291H131.816V233.59H425.612V232.291Z" fill="white"/>
<path d="M223.406 230.895H131.594V234.372H223.406V230.895Z" fill="#7476D1"/>
<path d="M226.375 232.944C226.375 233.804 226.113 234.644 225.621 235.358C225.13 236.073 224.432 236.63 223.616 236.959C222.799 237.288 221.9 237.374 221.033 237.206C220.166 237.038 219.37 236.625 218.745 236.017C218.12 235.409 217.694 234.635 217.521 233.792C217.349 232.949 217.437 232.075 217.776 231.281C218.114 230.487 218.687 229.809 219.422 229.331C220.157 228.854 221.021 228.599 221.905 228.599C223.091 228.599 224.227 229.057 225.066 229.872C225.904 230.687 226.375 231.792 226.375 232.944Z" fill="#7476D1"/>
<path d="M433.009 232.904C433.008 233.078 432.969 233.249 432.896 233.408C432.823 233.566 432.717 233.708 432.584 233.824C432.451 233.94 432.295 234.028 432.126 234.083C431.956 234.137 431.777 234.157 431.599 234.14C430.541 234.14 429.959 233.478 429.959 232.267C429.926 232.009 429.952 231.748 430.034 231.501C430.116 231.254 430.252 231.028 430.433 230.837C430.614 230.647 430.836 230.497 431.082 230.398C431.329 230.3 431.595 230.254 431.861 230.265C432.217 230.257 432.568 230.342 432.878 230.512L432.608 231.039C432.389 230.908 432.134 230.844 431.878 230.855C431.148 230.855 430.689 231.294 430.689 232.147C430.821 232.012 430.982 231.908 431.161 231.84C431.339 231.773 431.531 231.744 431.722 231.756C431.885 231.745 432.049 231.767 432.203 231.819C432.357 231.872 432.499 231.954 432.619 232.062C432.739 232.169 432.836 232.299 432.903 232.444C432.97 232.589 433.006 232.746 433.009 232.904ZM432.312 232.904C432.312 232.514 432.009 232.267 431.541 232.267C431.443 232.251 431.342 232.255 431.246 232.28C431.149 232.305 431.06 232.349 430.982 232.41C430.905 232.471 430.841 232.548 430.796 232.634C430.751 232.721 430.726 232.815 430.721 232.912C430.721 233.263 431.008 233.542 431.541 233.542C431.634 233.557 431.728 233.553 431.819 233.529C431.909 233.506 431.994 233.464 432.067 233.407C432.139 233.35 432.199 233.278 432.241 233.197C432.284 233.116 432.308 233.027 432.312 232.936V232.904Z" fill="white"/>
<path d="M433.362 231.613C433.353 231.55 433.359 231.486 433.377 231.425C433.396 231.364 433.428 231.307 433.471 231.259C433.515 231.211 433.568 231.173 433.627 231.147C433.687 231.12 433.752 231.107 433.817 231.107C433.883 231.107 433.947 231.12 434.007 231.147C434.067 231.173 434.12 231.211 434.163 231.259C434.206 231.307 434.238 231.364 434.257 231.425C434.276 231.486 434.281 231.55 434.272 231.613C434.281 231.676 434.276 231.74 434.257 231.801C434.238 231.862 434.206 231.918 434.163 231.966C434.12 232.014 434.067 232.053 434.007 232.079C433.947 232.105 433.883 232.119 433.817 232.119C433.752 232.119 433.687 232.105 433.627 232.079C433.568 232.053 433.515 232.014 433.471 231.966C433.428 231.918 433.396 231.862 433.377 231.801C433.359 231.74 433.353 231.676 433.362 231.613ZM433.362 233.662C433.353 233.599 433.359 233.535 433.377 233.474C433.396 233.413 433.428 233.356 433.471 233.308C433.515 233.261 433.568 233.222 433.627 233.196C433.687 233.169 433.752 233.156 433.817 233.156C433.883 233.156 433.947 233.169 434.007 233.196C434.067 233.222 434.12 233.261 434.163 233.308C434.206 233.356 434.238 233.413 434.257 233.474C434.276 233.535 434.281 233.599 434.272 233.662C434.281 233.725 434.276 233.789 434.257 233.85C434.238 233.911 434.206 233.967 434.163 234.015C434.12 234.063 434.067 234.102 434.007 234.128C433.947 234.154 433.883 234.168 433.817 234.168C433.752 234.168 433.687 234.154 433.627 234.128C433.568 234.102 433.515 234.063 433.471 234.015C433.428 233.967 433.396 233.911 433.377 233.85C433.359 233.789 433.353 233.725 433.362 233.662Z" fill="white"/>
<path d="M434.731 232.187C434.731 230.951 435.429 230.249 436.372 230.249C437.315 230.249 438.012 230.951 438.012 232.187C438.012 233.423 437.315 234.124 436.372 234.124C435.429 234.124 434.731 233.423 434.731 232.187ZM437.241 232.187C437.241 231.278 436.88 230.863 436.347 230.863C435.814 230.863 435.453 231.278 435.453 232.187C435.453 233.096 435.822 233.518 436.347 233.518C436.872 233.518 437.241 233.096 437.241 232.187Z" fill="white"/>
<path d="M438.447 232.187C438.447 230.951 439.144 230.249 440.087 230.249C441.03 230.249 441.727 230.951 441.727 232.187C441.727 233.423 441.03 234.124 440.087 234.124C439.144 234.124 438.447 233.423 438.447 232.187ZM440.965 232.187C440.965 231.278 440.595 230.863 440.062 230.863C439.529 230.863 439.177 231.278 439.177 232.187C439.177 233.096 439.538 233.518 440.062 233.518C440.587 233.518 440.965 233.096 440.965 232.187Z" fill="white"/>
<path d="M447.944 231.956H446.599V228.2H450.461V229.5H447.944V231.956Z" fill="white"/>
<path d="M450.461 236.851H446.599V233.104H447.935V235.551H450.461V236.851Z" fill="white"/>
<path d="M456.612 236.851H452.757V235.552H455.267V233.096H456.612V236.851Z" fill="white"/>
<path d="M456.612 231.948H455.275V229.5H452.75V228.2H456.612V231.948Z" fill="white"/>
<path d="M153.738 61.1891H132.628L122.081 78.961L132.628 96.725H153.738L164.284 78.961L153.738 61.1891Z" fill="#EBEBEB"/>
<path d="M134.35 82.4373C133.369 81.4563 132.505 80.3703 131.775 79.2002C131.039 78.0191 130.73 76.6328 130.897 75.2616C131.119 74.4929 131.297 73.713 131.431 72.9255C131.513 71.8252 131.037 70.6771 131.431 69.6485C132.054 68.0539 134.276 67.7908 135.629 66.6826C136.679 65.8135 137.196 64.4103 138.352 63.6847C139.426 63.1319 140.667 62.968 141.854 63.2223C143.028 63.4853 144.235 63.5873 145.438 63.5252C146.269 63.3522 147.09 63.1366 147.898 62.8794C148.711 62.6311 149.59 62.6909 150.359 63.0469C150.734 63.2463 151.015 63.5805 151.14 63.9782C151.266 64.376 151.227 64.8057 151.031 65.1757C152.417 64.5538 154.172 65.6062 154.549 67.0334C154.694 67.7639 154.626 68.5192 154.352 69.2139C154.078 69.9085 153.609 70.5148 152.999 70.9641C151.772 71.8528 150.333 72.4235 148.817 72.6225C144.577 73.4198 139.984 72.9653 136.335 70.7329" fill="#263238"/>
<path d="M153.918 86.8225C153.778 84.2791 153.049 79.0647 152.327 74.3527C151.954 71.9116 150.65 69.696 148.676 68.1454C146.701 66.5947 144.199 65.8222 141.665 65.981H141.141C135.531 66.6667 132.997 71.6817 133.858 77.1432L135.498 96.717H149.194C149.194 96.717 148.866 93.2807 148.866 93.2488C148.866 93.2169 154.213 92.0847 153.918 86.8225Z" fill="#FFBE9D"/>
<path d="M148.858 93.1849C146.362 93.3892 143.859 92.8704 141.666 91.694C141.666 91.694 143.601 95.3695 148.964 94.5483L148.858 93.1849Z" fill="#EB996E"/>
<path d="M150.58 78.8654C150.596 79.0596 150.533 79.2522 150.404 79.4014C150.275 79.5506 150.091 79.6444 149.891 79.6627C149.795 79.6749 149.698 79.6685 149.604 79.6438C149.511 79.619 149.424 79.5765 149.347 79.5186C149.271 79.4608 149.207 79.3887 149.16 79.3067C149.112 79.2246 149.082 79.1342 149.071 79.0408C149.057 78.847 149.121 78.6556 149.25 78.5068C149.378 78.3581 149.561 78.2637 149.76 78.2435C149.856 78.2312 149.953 78.2376 150.047 78.2624C150.14 78.2871 150.228 78.3296 150.304 78.3875C150.38 78.4454 150.444 78.5174 150.491 78.5995C150.539 78.6815 150.569 78.7719 150.58 78.8654Z" fill="#263238"/>
<path d="M151.343 76.9997C151.253 77.1034 150.638 76.7207 149.801 76.7765C148.965 76.8323 148.39 77.2788 148.292 77.1831C148.194 77.0874 148.292 76.9599 148.587 76.7526C148.93 76.4887 149.348 76.333 149.785 76.3061C150.218 76.2758 150.649 76.3821 151.015 76.6091C151.285 76.7845 151.384 76.9519 151.343 76.9997Z" fill="#263238"/>
<path d="M142.723 79.4155C142.726 79.6066 142.658 79.7923 142.531 79.9386C142.405 80.0849 142.229 80.1823 142.035 80.2128C141.84 80.2331 141.645 80.1785 141.492 80.0608C141.339 79.943 141.239 79.7714 141.214 79.583C141.212 79.3919 141.28 79.2062 141.406 79.0599C141.533 78.9135 141.709 78.8162 141.903 78.7857C142.098 78.7653 142.292 78.82 142.446 78.9377C142.599 79.0555 142.699 79.2271 142.723 79.4155Z" fill="#263238"/>
<path d="M143.175 77.6854C143.084 77.7891 142.469 77.4064 141.633 77.4622C140.796 77.518 140.222 77.9565 140.124 77.8688C140.025 77.7811 140.124 77.6456 140.419 77.4383C140.762 77.1684 141.184 77.0089 141.624 76.9818C142.065 76.9547 142.504 77.0612 142.879 77.2868C143.117 77.4622 143.216 77.6376 143.175 77.6854Z" fill="#263238"/>
<path d="M146.603 83.4499C147.032 83.2863 147.481 83.1764 147.939 83.123C148.153 83.123 148.349 83.0353 148.374 82.8918C148.377 82.6793 148.314 82.4709 148.194 82.2938L147.455 80.763C146.784 79.4792 146.216 78.1463 145.758 76.7765C146.54 78.0154 147.217 79.3139 147.783 80.6594C148.03 81.1935 148.267 81.7118 148.497 82.1981C148.64 82.4392 148.698 82.7194 148.661 82.9954C148.634 83.0699 148.591 83.1377 148.534 83.1941C148.477 83.2506 148.409 83.2943 148.333 83.3223C148.216 83.3594 148.095 83.3834 147.972 83.3941C147.52 83.4694 147.06 83.4882 146.603 83.4499Z" fill="#263238"/>
<path d="M143.166 74.4961C143.101 74.7194 142.264 74.6715 141.296 74.8549C140.329 75.0383 139.558 75.3413 139.41 75.1499C139.262 74.9585 139.476 74.8469 139.779 74.6077C140.183 74.3162 140.653 74.1222 141.149 74.0417C141.642 73.9472 142.152 73.9719 142.633 74.1134C143.002 74.233 143.199 74.3925 143.166 74.4961Z" fill="#263238"/>
<path d="M150.875 74.6796C150.736 74.8709 150.154 74.7194 149.465 74.7513C148.776 74.7832 148.202 74.9586 148.054 74.7513C147.907 74.544 148.054 74.4723 148.308 74.2809C148.633 74.0441 149.026 73.913 149.432 73.9062C149.837 73.8888 150.237 73.9917 150.58 74.2012C150.834 74.4005 150.933 74.5839 150.875 74.6796Z" fill="#263238"/>
<path d="M134.555 81.058C134.457 81.058 130.758 80.2607 131.127 83.8246C131.496 87.3886 135.498 86.2165 135.49 86.1368C135.482 86.0571 134.555 81.058 134.555 81.058Z" fill="#FFBE9D"/>
<path d="M133.85 84.925C133.85 84.925 133.792 84.9728 133.694 85.0286C133.546 85.1077 133.373 85.1277 133.21 85.0844C132.957 84.9611 132.741 84.774 132.587 84.5427C132.433 84.3115 132.345 84.0443 132.333 83.7689C132.29 83.4632 132.321 83.152 132.423 82.8599C132.444 82.7429 132.495 82.6328 132.571 82.5395C132.647 82.4463 132.745 82.3728 132.857 82.3257C132.929 82.3019 133.007 82.3023 133.079 82.3269C133.15 82.3515 133.211 82.3989 133.251 82.4613C133.317 82.557 133.3 82.6367 133.317 82.6367C133.333 82.6367 133.391 82.5729 133.317 82.4214C133.287 82.3367 133.229 82.2638 133.153 82.2141C133.098 82.1807 133.038 82.1584 132.974 82.1488C132.911 82.1392 132.846 82.1425 132.784 82.1583C132.636 82.2037 132.502 82.2844 132.395 82.393C132.287 82.5017 132.209 82.6348 132.169 82.7802C132.046 83.1063 132.006 83.4566 132.054 83.8008C132.063 84.1226 132.172 84.4342 132.367 84.6946C132.561 84.9551 132.832 85.1521 133.145 85.2598C133.247 85.278 133.352 85.2738 133.453 85.2476C133.554 85.2214 133.647 85.1738 133.727 85.1083C133.899 85.0446 133.899 84.925 133.85 84.925Z" fill="#EB996E"/>
<path d="M152.056 69.4333C151.802 70.8604 148.817 72.176 146.316 72.1042C144.036 72.0404 142.904 70.9402 141.256 70.1588C140.206 69.6645 140.206 69.6645 138.795 69.8877C137.647 70.0711 137.048 71.3866 136.409 72.3354C137.639 74.9426 137.139 77.9724 136.614 80.7948C136.594 81.1116 136.463 81.4123 136.245 81.648C136.008 81.7891 135.728 81.8449 135.454 81.8056C135.18 81.7662 134.928 81.6342 134.744 81.4327C134.137 80.798 133.733 80.006 133.579 79.1524C133.063 77.2467 132.94 75.2603 133.218 73.3082C133.49 71.3552 134.346 69.5228 135.679 68.038C137.436 66.2371 139.845 65.1707 142.396 65.064C144.936 64.9729 147.441 65.6619 149.555 67.0334C150.564 67.6234 151.408 68.4446 152.015 69.4253" fill="#263238"/>
<path d="M147.152 85.2996L145.266 84.4465C145.161 84.3885 145.042 84.3608 144.921 84.3667C144.79 84.3953 144.675 84.4725 144.601 84.582C144.38 84.8377 144.242 85.1514 144.204 85.4834C144.166 85.8155 144.23 86.1511 144.388 86.4477C144.56 86.7383 144.832 86.9607 145.156 87.0758C145.48 87.191 145.835 87.1916 146.16 87.0776C146.477 86.9082 146.741 86.6588 146.924 86.3557C147.107 86.0526 147.203 85.707 147.201 85.3554L147.152 85.2996Z" fill="#EB996E"/>
<path d="M146.201 87.2132C146.201 87.2132 145.807 87.5082 145.094 87.3088C144.677 87.1714 144.329 86.8868 144.118 86.5115C143.984 86.2864 143.903 86.035 143.882 85.7756C143.86 85.5163 143.899 85.2556 143.995 85.0126C144.095 84.7591 144.252 84.5303 144.454 84.3429C144.552 84.2551 144.659 84.1776 144.774 84.1117C144.85 84.0726 144.934 84.0521 145.02 84.0521C145.106 84.0521 145.19 84.0726 145.266 84.1117C145.7 84.3429 145.987 84.5422 146.275 84.7176C146.824 85.0764 147.152 85.3236 147.095 85.3714C147.037 85.4192 146.685 85.2678 146.094 84.9728L145.085 84.4625C145.012 84.4625 145.02 84.4625 144.938 84.4625C144.855 84.5163 144.778 84.5777 144.708 84.6459C144.554 84.7936 144.436 84.9735 144.364 85.1721C144.29 85.3598 144.258 85.5604 144.269 85.7609C144.281 85.9614 144.335 86.1574 144.429 86.3361C144.589 86.637 144.849 86.876 145.167 87.0138C145.782 87.269 146.201 87.1414 146.201 87.2132Z" fill="#263238"/>
<path d="M145.619 78.9531C145.619 78.9531 145.619 78.6262 145.422 78.0601C145.184 77.27 144.685 76.5779 144.003 76.0908C143.456 75.6957 142.808 75.456 142.129 75.3986C141.451 75.3412 140.769 75.4682 140.161 75.7655C139.552 76.0628 139.041 76.5187 138.683 77.0823C138.326 77.6459 138.136 78.295 138.136 78.9571C138.136 79.6192 138.326 80.2682 138.683 80.8318C139.041 81.3954 139.552 81.8513 140.161 82.1486C140.769 82.4459 141.451 82.5729 142.129 82.5155C142.808 82.4581 143.456 82.2185 144.003 81.8234C144.685 81.3362 145.184 80.6442 145.422 79.854C145.586 79.2879 145.578 78.9531 145.619 78.9531C145.66 78.9531 145.619 79.0408 145.619 79.2002C145.624 79.4335 145.599 79.6666 145.545 79.8939C145.36 80.7509 144.869 81.5165 144.159 82.0546C143.628 82.4576 143.001 82.7244 142.336 82.8303C141.671 82.9362 140.989 82.8778 140.353 82.6605C139.567 82.3886 138.886 81.8866 138.405 81.2235C137.923 80.5604 137.665 79.7687 137.665 78.9571C137.665 78.1455 137.923 77.3537 138.405 76.6906C138.886 76.0275 139.567 75.5255 140.353 75.2536C140.989 75.0363 141.671 74.978 142.336 75.0838C143.001 75.1897 143.628 75.4565 144.159 75.8595C144.869 76.3976 145.36 77.1632 145.545 78.0202C145.599 78.2475 145.624 78.4806 145.619 78.7139C145.643 78.8733 145.635 78.9531 145.619 78.9531Z" fill="#263238"/>
<path d="M154.828 78.6023C154.787 78.6023 154.828 78.2834 154.631 77.7333C154.402 76.9652 153.917 76.2925 153.254 75.8197C152.722 75.4356 152.09 75.2027 151.43 75.147C150.77 75.0914 150.107 75.2152 149.515 75.5046C148.923 75.7941 148.425 76.2377 148.078 76.7861C147.73 77.3345 147.546 77.9661 147.546 78.6103C147.546 79.2545 147.73 79.8861 148.078 80.4345C148.425 80.9829 148.923 81.4265 149.515 81.716C150.107 82.0054 150.77 82.1292 151.43 82.0735C152.09 82.0179 152.722 81.785 153.254 81.4008C153.917 80.9281 154.402 80.2554 154.631 79.4873C154.795 78.9372 154.787 78.6103 154.828 78.6103C154.869 78.6103 154.828 78.69 154.828 78.8495C154.833 79.0771 154.811 79.3044 154.763 79.5272C154.58 80.3614 154.101 81.1065 153.41 81.6321C152.891 82.0262 152.279 82.2869 151.63 82.3901C150.98 82.4932 150.315 82.4354 149.694 82.2221C148.928 81.9561 148.265 81.4663 147.796 80.8197C147.328 80.1731 147.076 79.4014 147.076 78.6103C147.076 77.8192 147.328 77.0475 147.796 76.4009C148.265 75.7543 148.928 75.2645 149.694 74.9985C150.315 74.7852 150.98 74.7274 151.63 74.8305C152.279 74.9336 152.891 75.1943 153.41 75.5885C154.101 76.117 154.58 76.8647 154.763 77.7014C154.811 77.924 154.833 78.1515 154.828 78.3791C154.853 78.5226 154.845 78.6023 154.828 78.6023Z" fill="#263238"/>
<path d="M147.316 77.781C147.234 77.8528 146.865 77.6216 146.373 77.6375C145.881 77.6534 145.553 77.8847 145.438 77.8129C145.323 77.7411 145.668 77.2388 146.365 77.2229C147.062 77.207 147.423 77.7172 147.316 77.781Z" fill="#263238"/>
<path d="M138.139 78.4269C138.213 78.5146 137.491 79.1524 136.54 79.8461C136.002 80.3232 135.372 80.6917 134.686 80.9304C134.613 80.8427 135.334 80.2049 136.286 79.5112C136.822 79.0324 137.453 78.6636 138.139 78.4269Z" fill="#263238"/>
<path d="M214.27 78.7777C214.27 78.8894 204.781 78.985 193.078 78.985C181.375 78.985 171.887 78.8894 171.887 78.7777C171.887 78.6661 181.375 78.5704 193.078 78.5704C204.781 78.5704 214.27 78.6661 214.27 78.7777Z" fill="#263238"/>
<path d="M194.661 83.091C194.661 83.2026 189.625 83.2983 183.409 83.2983C177.193 83.2983 172.157 83.2026 172.157 83.091C172.157 82.9794 177.193 82.8757 183.409 82.8757C189.625 82.8757 194.661 82.9714 194.661 83.091Z" fill="#263238"/>
<path d="M341.215 110.63C344.927 112.683 348.184 115.431 350.797 118.715C353.409 122 355.326 125.756 356.436 129.765C360.397 143.543 372.51 179.421 372.51 179.421C372.51 179.421 379.432 187.338 380.17 193.199C380.908 199.059 379.432 213.243 377.201 215.89C376.555 216.658 375.725 217.261 374.785 217.646C373.844 218.031 372.821 218.186 371.805 218.098L342.666 215.412L331.185 140.72L341.215 110.63Z" fill="#7476D1"/>
<path d="M244.868 109.33C244.868 109.33 224.029 115.709 218.838 121.21L235.896 198.357L235.593 222.707H334.399C334.399 221.503 335.285 141.876 335.285 141.876L341.214 110.63L306.122 104.626L299.2 99.3322L260.138 101.262L254.201 107.026L244.868 109.33Z" fill="#7476D1"/>
<g opacity="0.3">
<path d="M252.815 176.264C252.511 175.61 252.069 174.9 251.347 174.757C250.158 174.518 249.362 175.881 248.96 176.997C245.81 185.743 241.445 194.03 235.986 201.626L235.732 213.474C241.473 208.762 247.164 203.715 250.838 197.329C254.513 190.942 255.882 182.929 252.815 176.264Z" fill="black"/>
</g>
<path d="M218.838 121.21C218.838 121.21 211.974 130.307 209.128 136.247C206.282 142.187 182.655 192.059 181.244 197.217C179.833 202.376 176.159 218.593 186.944 222.356H209.144L231.418 178.56L232.558 127.732L218.838 121.21Z" fill="#7476D1"/>
<path d="M210.546 190.719C210.546 190.719 210.054 190.296 209.029 189.73C207.566 188.967 205.997 188.414 204.371 188.088C203.253 187.85 202.118 187.695 200.976 187.625C199.66 187.529 198.336 187.62 197.047 187.897C194.13 188.625 191.519 190.219 189.576 192.457C187.601 194.67 186.156 197.282 185.344 200.103C184.675 202.41 184.23 204.772 184.016 207.159C183.803 209.201 183.729 210.867 183.655 212.007C183.655 212.549 183.589 212.988 183.573 213.331C183.573 213.487 183.551 213.643 183.507 213.793C183.497 213.639 183.497 213.485 183.507 213.331C183.507 212.98 183.507 212.533 183.507 212.007C183.507 210.851 183.557 209.193 183.729 207.136C183.902 204.709 184.323 202.306 184.984 199.96C185.789 197.074 187.256 194.403 189.273 192.146C191.276 189.846 193.973 188.216 196.982 187.49C198.297 187.224 199.646 187.151 200.984 187.275C202.142 187.357 203.291 187.531 204.42 187.793C206.064 188.148 207.642 188.751 209.095 189.579C209.486 189.814 209.857 190.081 210.202 190.376C210.329 190.478 210.444 190.593 210.546 190.719Z" fill="#263238"/>
<path d="M200.024 181.997C200.267 181.928 200.518 181.89 200.771 181.885C201.456 181.833 202.144 181.833 202.829 181.885C203.849 181.943 204.862 182.09 205.855 182.323C208.299 182.898 210.593 183.962 212.588 185.449C213.402 186.05 214.156 186.723 214.844 187.458C215.31 187.957 215.735 188.49 216.115 189.053C216.27 189.248 216.397 189.462 216.492 189.691C216.427 189.738 215.82 188.893 214.622 187.681C213.915 186.992 213.156 186.355 212.351 185.776C211.359 185.074 210.305 184.46 209.201 183.942C208.091 183.439 206.939 183.028 205.757 182.714C204.788 182.471 203.801 182.301 202.805 182.204C201.099 181.989 200.024 182.076 200.024 181.997Z" fill="#263238"/>
<path d="M220.084 179.597C219.741 179.61 219.397 179.586 219.059 179.525C218.403 179.445 217.46 179.35 216.279 179.262C210.146 178.817 203.982 179.535 198.13 181.375C197.006 181.725 196.104 182.036 195.489 182.268C195.175 182.403 194.848 182.507 194.513 182.579C194.796 182.388 195.101 182.233 195.424 182.116C196.022 181.837 196.916 181.486 198.032 181.096C203.888 179.08 210.132 178.355 216.312 178.975C217.485 179.094 218.436 179.23 219.084 179.365C219.424 179.411 219.759 179.489 220.084 179.597Z" fill="#263238"/>
<path d="M283.307 136.981C283.217 136.905 283.139 136.816 283.077 136.718L282.47 135.92L280.239 132.922C278.329 130.291 275.655 126.624 272.514 122.318L272.858 122.27C271.661 125.683 270.341 129.446 268.955 133.433L268.864 133.68L268.635 133.536L268.176 133.249C266.389 132.137 264.764 130.796 263.345 129.263C262.034 127.835 260.877 126.28 259.892 124.623C258.254 121.817 256.979 118.826 256.095 115.717C255.502 113.616 255.023 111.487 254.66 109.338C254.529 108.621 254.431 108.039 254.349 107.6C254.325 107.451 254.29 107.305 254.242 107.162C254.242 107.066 254.184 107.018 254.193 107.01C254.201 107.002 254.529 107.807 254.824 109.314C255.119 110.821 255.587 112.99 256.391 115.613C257.299 118.694 258.59 121.655 260.237 124.431C261.219 126.058 262.364 127.585 263.657 128.992C265.051 130.489 266.645 131.797 268.397 132.883L268.848 133.17L268.536 133.281C269.939 129.295 271.267 125.555 272.481 122.119L272.604 121.768L272.826 122.071C275.909 126.416 278.566 130.116 280.428 132.763C281.322 134.055 282.068 135.083 282.568 135.833L283.118 136.63C283.193 136.74 283.257 136.858 283.307 136.981Z" fill="#263238"/>
<g opacity="0.3">
<path d="M309.017 173.808C308.132 182.805 310.138 191.846 314.758 199.689C319.35 207.454 326.092 214.383 334.481 218.098C334.752 210.181 334.358 200.853 334.629 192.936L309.017 173.808Z" fill="black"/>
</g>
<path d="M308.09 163.387C308.09 163.387 304.498 164.352 307.188 171.504C309.878 178.656 310.78 178.217 312.576 184.899C314.372 191.58 316.464 197.656 319.596 201.467C322.729 205.278 334.399 212.948 334.399 212.948L344.864 203.38C344.864 203.38 343.142 196.204 343.552 191.373C343.962 186.541 345.012 174.629 344.864 172.564C344.716 170.499 342.469 165.588 342.469 165.588V162.207L337.089 146.118C337.089 146.118 334.096 144.81 333.054 149.459L331.258 144.523C331.258 144.523 328.421 144.085 327.674 149.754C326.928 155.422 328.273 163.268 328.273 163.268L326.772 173.146L324.533 179.836L322.59 180.123C322.59 180.123 319.662 179.326 318.063 173.992C316.464 168.658 312.125 162.223 308.09 163.387Z" fill="#FFBE9D"/>
<path d="M341.387 188.694C341.387 188.694 341.387 188.574 341.337 188.335C341.288 188.096 341.288 187.705 341.264 187.267C341.206 186.294 341.132 184.947 341.042 183.28C340.878 179.812 340.657 174.98 340.394 169.343L340.435 169.463C340.167 169.193 339.828 169 339.455 168.904C339.082 168.808 338.689 168.814 338.319 168.921C337.918 169.015 337.54 169.187 337.208 169.425C336.876 169.663 336.596 169.963 336.384 170.308C335.465 171.735 335.416 173.601 335.129 175.395C334.563 179.469 334.022 183.368 333.53 186.884C333.284 188.654 333.021 190.328 332.669 191.883C332.337 193.325 331.901 194.742 331.365 196.125C330.906 197.392 330.495 198.517 330.241 199.577C330.014 200.45 329.901 201.348 329.905 202.248C329.934 203.023 330.072 203.79 330.315 204.528C330.217 204.349 330.134 204.163 330.069 203.97C329.874 203.417 329.764 202.84 329.741 202.256C329.702 201.331 329.793 200.406 330.012 199.505C330.299 198.322 330.658 197.156 331.086 196.013C331.593 194.636 332.004 193.227 332.316 191.795C332.652 190.257 332.907 188.606 333.136 186.82C333.612 183.28 334.145 179.405 334.703 175.323C334.834 174.422 334.932 173.521 335.096 172.628C335.231 171.726 335.543 170.857 336.015 170.069C336.259 169.682 336.58 169.346 336.958 169.08C337.337 168.815 337.766 168.625 338.221 168.522C338.663 168.393 339.133 168.387 339.579 168.506C340.024 168.624 340.426 168.862 340.739 169.192L340.78 169.248V169.311C340.985 174.948 341.157 179.78 341.28 183.256C341.28 184.939 341.354 186.286 341.387 187.243C341.387 187.681 341.387 188.04 341.387 188.311C341.4 188.438 341.4 188.567 341.387 188.694Z" fill="#EB996E"/>
<path d="M335.646 170.356C335.459 170.072 335.311 169.767 335.203 169.447C334.86 168.597 334.567 167.73 334.325 166.848C333.974 165.539 333.724 164.207 333.579 162.861C333.478 162.068 333.461 161.266 333.53 160.469C333.606 159.579 333.917 158.722 334.432 157.982C334.892 157.318 335.568 156.824 336.351 156.579L336.507 156.539L336.589 156.674C338.106 159.273 339.427 161.57 340.345 163.22L341.419 165.173C341.566 165.402 341.682 165.649 341.764 165.907C341.58 165.704 341.421 165.482 341.288 165.245L340.107 163.356C339.123 161.761 337.753 159.473 336.228 156.882L336.466 156.977C335.78 157.2 335.189 157.638 334.785 158.221C334.313 158.905 334.03 159.696 333.965 160.517C333.882 161.297 333.882 162.082 333.965 162.861C334.088 164.203 334.305 165.535 334.612 166.848C334.875 167.964 335.162 168.857 335.351 169.471C335.479 169.756 335.578 170.052 335.646 170.356Z" fill="#EB996E"/>
<path d="M333.136 171.664C333.063 171.358 333.03 171.044 333.038 170.731C333.038 170.045 332.972 169.2 332.931 168.203C332.866 166.066 332.792 163.116 332.751 159.855C332.629 157.067 332.672 154.275 332.882 151.492C332.985 150.647 333.172 149.814 333.44 149.004C333.519 148.699 333.65 148.408 333.825 148.143C333.524 149.253 333.308 150.383 333.177 151.524C332.972 153.636 333.177 156.587 333.177 159.847C333.177 163.108 333.243 166.058 333.235 168.195C333.235 169.2 333.235 170.045 333.235 170.731C333.237 171.044 333.204 171.357 333.136 171.664Z" fill="#EB996E"/>
<path d="M324.287 198.461C324.23 198.413 324.886 197.664 325.69 196.3C326.161 195.505 326.569 194.676 326.912 193.821C327.314 192.768 327.627 191.686 327.846 190.584C328.038 189.477 328.134 188.357 328.134 187.235C328.121 186.319 328.039 185.405 327.887 184.5C327.617 182.945 327.272 182.021 327.346 181.997C327.476 182.192 327.575 182.404 327.641 182.626C327.873 183.217 328.054 183.825 328.183 184.444C328.383 185.36 328.499 186.291 328.527 187.227C328.599 189.533 328.172 191.829 327.272 193.964C326.91 194.83 326.468 195.663 325.952 196.452C325.61 196.987 325.223 197.493 324.796 197.967C324.492 198.301 324.312 198.477 324.287 198.461Z" fill="#EB996E"/>
<path d="M342.658 193.478L351.737 196.539C351.737 196.539 360.413 192.178 366.392 196.539C372.37 200.901 377.562 212.39 375.922 217.038C375.922 217.038 371.821 221.997 368.655 222.723C365.49 223.448 353.311 220.57 348.235 219.534C343.158 218.497 334.399 212.964 334.399 212.964L342.658 193.478Z" fill="#FFBE9D"/>
<path d="M343.773 206.466C343.709 206.205 343.676 205.937 343.675 205.669C343.675 205.071 343.601 204.361 343.552 203.532C343.453 201.73 343.33 199.242 343.289 196.484C343.248 193.725 343.33 191.229 343.494 189.427C343.576 188.527 343.683 187.833 343.773 187.299C343.793 187.025 343.857 186.756 343.962 186.501C344.027 186.501 343.888 187.618 343.798 189.419C343.708 191.221 343.675 193.701 343.716 196.452C343.757 199.202 343.814 201.578 343.847 203.492C343.847 204.393 343.847 205.126 343.847 205.629C343.869 205.91 343.844 206.192 343.773 206.466Z" fill="#EB996E"/>
<path d="M373.715 196.172C372.774 195.222 371.766 194.338 370.697 193.525C368.071 191.615 364.923 190.503 361.648 190.329C358.374 190.154 355.119 190.925 352.294 192.545C351.148 193.239 350.052 194.009 349.014 194.849C349.23 194.556 349.481 194.289 349.76 194.052C350.498 193.385 351.303 192.792 352.163 192.282C355.015 190.554 358.346 189.725 361.701 189.906C365.057 190.087 368.273 191.27 370.911 193.294C371.708 193.891 372.439 194.567 373.092 195.311C373.334 195.574 373.543 195.863 373.715 196.172Z" fill="#263238"/>
<path d="M372.551 188.814C371.378 187.995 370.109 187.315 368.77 186.788C365.48 185.653 361.906 185.55 358.552 186.493C356.706 186.997 354.931 187.714 353.262 188.63C351.903 189.389 350.621 190.27 349.432 191.261C348.415 192.106 347.636 192.856 347.103 193.358C346.841 193.649 346.553 193.916 346.242 194.155C346.455 193.834 346.702 193.534 346.98 193.262C347.688 192.486 348.441 191.748 349.235 191.054C350.414 190.019 351.697 189.103 353.065 188.319C354.751 187.362 356.556 186.619 358.437 186.111C361.873 185.135 365.544 185.283 368.885 186.533C369.883 186.921 370.823 187.436 371.681 188.064C371.985 188.279 372.19 188.487 372.346 188.614C372.502 188.742 372.551 188.806 372.551 188.814Z" fill="#263238"/>
<path d="M372.625 182.435C372.625 182.515 370.984 182.044 368.377 181.702C366.835 181.501 365.281 181.405 363.726 181.415C361.822 181.435 359.921 181.6 358.043 181.909C356.169 182.244 354.323 182.718 352.524 183.328C351.057 183.834 349.629 184.442 348.251 185.146C345.897 186.342 344.569 187.315 344.52 187.243C344.798 186.98 345.103 186.745 345.43 186.541C345.787 186.268 346.162 186.017 346.553 185.792C347.004 185.513 347.513 185.186 348.103 184.883C349.482 184.142 350.916 183.502 352.393 182.969C354.205 182.326 356.071 181.836 357.969 181.502C359.866 181.19 361.786 181.033 363.71 181.032C365.284 181.04 366.855 181.165 368.409 181.407C369.074 181.486 369.664 181.638 370.181 181.741C370.629 181.83 371.073 181.942 371.509 182.076C371.891 182.164 372.264 182.284 372.625 182.435Z" fill="#263238"/>
<path d="M303.055 104.363C303.395 105.106 303.606 105.898 303.678 106.707C303.923 108.994 303.807 111.304 303.334 113.556C303.046 115.173 302.654 116.771 302.161 118.34C301.515 120.166 300.719 121.939 299.783 123.642C297.823 127.31 295.362 131.304 292.508 135.602L292.18 136.104V135.506C292.18 132.683 292.18 129.725 292.18 126.656L292.5 126.807L284.799 132.779L284.865 132.683C283.038 138.503 281.915 144.51 281.519 150.583C280.764 160.286 281.371 169.567 281.839 177.986C282.306 186.406 282.511 194.004 282.782 200.382C283.052 206.761 283.274 211.911 283.471 215.475C283.586 217.245 283.668 218.617 283.725 219.574C283.725 220.028 283.782 220.371 283.799 220.642C283.815 220.913 283.799 221.009 283.799 221.009C283.799 221.009 283.799 220.889 283.741 220.65C283.684 220.411 283.676 220.036 283.627 219.581C283.536 218.649 283.422 217.269 283.299 215.483C283.053 211.927 282.765 206.769 282.478 200.39C282.191 194.012 281.839 186.43 281.445 178.002C281.051 169.575 280.338 160.286 281.092 150.551C281.507 144.442 282.66 138.402 284.529 132.556V132.5H284.578L292.254 126.512L292.574 126.257V126.656C292.574 129.725 292.574 132.683 292.574 135.506L292.238 135.402C297.872 126.911 302.456 119.528 303.162 113.556C303.649 111.325 303.798 109.036 303.604 106.763C303.537 106.166 303.425 105.574 303.268 104.993C303.104 104.562 303.055 104.363 303.055 104.363Z" fill="#263238"/>
<path d="M288.342 207.207H288.08C287.482 207.245 286.923 207.506 286.521 207.937C286.119 208.368 285.905 208.933 285.924 209.515C285.943 210.096 286.194 210.648 286.624 211.052C287.054 211.457 287.629 211.684 288.227 211.684C288.826 211.684 289.4 211.457 289.83 211.052C290.26 210.648 290.511 210.096 290.53 209.515C290.55 208.933 290.335 208.368 289.933 207.937C289.531 207.506 288.972 207.245 288.375 207.207H288.342Z" fill="white"/>
<path d="M288.342 176.479H288.08C287.485 176.517 286.928 176.777 286.527 177.206C286.126 177.636 285.913 178.2 285.932 178.779C285.951 179.358 286.201 179.908 286.63 180.311C287.058 180.714 287.631 180.94 288.227 180.94C288.823 180.94 289.396 180.714 289.825 180.311C290.253 179.908 290.503 179.358 290.522 178.779C290.542 178.2 290.328 177.636 289.927 177.206C289.527 176.777 288.97 176.517 288.375 176.479H288.342Z" fill="white"/>
<path d="M288.08 148.988C288.692 149.027 289.295 148.828 289.756 148.435C290.218 148.042 290.5 147.487 290.54 146.891C290.58 146.296 290.376 145.71 289.971 145.261C289.567 144.812 288.995 144.539 288.383 144.499H288.08C287.466 144.499 286.878 144.736 286.444 145.158C286.011 145.58 285.767 146.151 285.767 146.748C285.767 147.344 286.011 147.916 286.444 148.338C286.878 148.759 287.466 148.996 288.08 148.996V148.988Z" fill="white"/>
<path d="M252.626 68.3569C249.756 65.2553 246.885 62.1299 244.761 58.4942C242.637 54.8585 241.415 50.6089 242.104 46.5347C242.514 44.1427 243.564 41.8306 243.744 39.3589C243.974 36.0103 242.531 32.5101 243.744 29.3767C245.647 24.4653 252.446 23.7079 256.563 20.3193C259.769 17.6802 261.327 13.3987 264.854 11.1822C267.938 9.2368 271.899 9.28464 275.515 9.77896C279.132 10.2733 282.806 11.1742 286.447 10.6959C289.039 10.361 291.483 9.34045 294.017 8.72652C296.551 8.1126 299.397 7.92922 301.652 9.2368C303.908 10.5444 305.187 13.6299 303.703 15.7268C307.918 13.8372 313.273 17.0344 314.43 21.4036C315.586 25.7729 313.273 30.5009 309.698 33.3632C306.122 36.2255 301.496 37.5889 296.945 38.4261C284.036 40.818 270.021 39.4546 258.892 32.6616" fill="#263238"/>
<path d="M298.036 110.558C297.404 105.774 296.888 101.844 296.855 101.349C296.855 101.349 313.191 97.7774 312.289 81.7197C311.855 73.9539 309.624 58.0398 307.426 43.6644C306.297 36.2122 302.32 29.4475 296.289 24.7189C290.258 19.9903 282.615 17.645 274.884 18.1507L273.244 18.2463C256.145 20.3432 248.411 35.6355 251.035 52.2035L260.27 107.752C260.27 107.752 264.206 120.038 272.629 122.167L283.29 136.933L285.045 130.555L292.968 123.841C294.486 122.106 295.798 120.209 296.88 118.188C298.089 115.829 298.494 113.156 298.036 110.558Z" fill="#FFBE9D"/>
<path d="M296.863 101.126C296.863 101.126 286.489 102.625 274.933 96.5735C274.933 96.5735 280.822 107.792 297.191 105.28L296.863 101.126Z" fill="#EB996E"/>
<path d="M302.12 57.4737C302.166 58.0712 301.971 58.6626 301.576 59.1225C301.181 59.5825 300.617 59.8747 300.004 59.9373C299.705 59.9798 299.401 59.9638 299.109 59.89C298.817 59.8162 298.544 59.6863 298.304 59.5079C298.065 59.3295 297.865 59.1062 297.716 58.8513C297.567 58.5964 297.472 58.315 297.437 58.0238C297.382 57.4215 297.575 56.8226 297.973 56.358C298.371 55.8934 298.942 55.6008 299.561 55.5442C299.86 55.5029 300.164 55.5204 300.456 55.5957C300.748 55.671 301.022 55.8025 301.26 55.9825C301.499 56.1624 301.698 56.3871 301.846 56.6433C301.993 56.8995 302.086 57.1818 302.12 57.4737Z" fill="#263238"/>
<path d="M304.424 51.7809C304.154 52.0998 302.276 50.9278 299.742 51.1032C297.208 51.2786 295.461 52.6261 295.133 52.355C294.993 52.2354 295.256 51.6773 296.027 51.0474C297.071 50.2355 298.349 49.7591 299.684 49.684C301.005 49.5908 302.322 49.9122 303.44 50.6009C304.26 51.1112 304.556 51.6374 304.424 51.7809Z" fill="#263238"/>
<path d="M278.156 59.1401C278.204 59.7372 278.01 60.3288 277.614 60.7879C277.218 61.247 276.654 61.5371 276.04 61.5957C275.742 61.6394 275.439 61.6244 275.147 61.5516C274.855 61.4788 274.581 61.3497 274.342 61.1719C274.102 60.9941 273.902 60.7713 273.753 60.5168C273.604 60.2622 273.509 59.9811 273.473 59.6902C273.427 59.0939 273.621 58.5036 274.015 58.0439C274.408 57.5841 274.97 57.2911 275.581 57.2265C275.88 57.184 276.185 57.2 276.477 57.2737C276.769 57.3474 277.044 57.4772 277.284 57.6555C277.524 57.8338 277.724 58.0571 277.874 58.312C278.024 58.567 278.12 58.8485 278.156 59.1401Z" fill="#263238"/>
<path d="M279.526 53.8618C279.247 54.1807 277.377 53.0087 274.843 53.1841C272.309 53.3595 270.529 54.707 270.234 54.4199C270.087 54.3003 270.349 53.7422 271.12 53.1123C272.168 52.3017 273.449 51.8255 274.786 51.749C276.104 51.6569 277.417 51.9783 278.534 52.6659C279.354 53.1921 279.657 53.7183 279.526 53.8618Z" fill="#263238"/>
<path d="M289.982 71.5541C289.982 71.4106 291.524 71.0438 294.083 70.5575C294.722 70.4538 295.329 70.2864 295.411 69.8558C295.419 69.2003 295.222 68.5579 294.845 68.0141L292.598 63.3419C289.474 56.6923 287.161 51.1989 287.44 51.0793C287.719 50.9597 290.474 56.2538 293.607 62.9113L295.772 67.6154C296.231 68.3484 296.411 69.2145 296.281 70.0631C296.201 70.2905 296.07 70.4976 295.897 70.6687C295.723 70.8399 295.513 70.9709 295.28 71.0518C294.928 71.1707 294.561 71.2457 294.189 71.275C291.598 71.578 290.007 71.6896 289.982 71.5541Z" fill="#263238"/>
<path d="M279.51 44.1507C279.305 44.8444 276.754 44.6849 273.769 45.2271C270.784 45.7692 268.463 46.718 268.028 46.144C267.831 45.8649 268.208 45.2111 269.135 44.4936C270.376 43.6178 271.806 43.0266 273.315 42.7642C274.825 42.5019 276.376 42.5752 277.853 42.9787C279.009 43.3375 279.6 43.8318 279.51 44.1507Z" fill="#263238"/>
<path d="M302.997 44.7009C302.595 45.2909 300.808 44.8285 298.7 44.9321C296.592 45.0358 294.845 45.562 294.394 45.0039C294.197 44.7328 294.444 44.1507 295.214 43.5687C296.216 42.8681 297.409 42.4715 298.642 42.4289C299.875 42.3864 301.094 42.6997 302.144 43.3295C302.899 43.8557 303.178 44.382 302.997 44.7009Z" fill="#263238"/>
<path d="M253.241 64.0435C252.954 63.9478 241.678 61.524 242.793 72.471C243.908 83.418 256.095 79.846 256.095 79.5351C256.095 79.2242 253.241 64.0435 253.241 64.0435Z" fill="#FFBE9D"/>
<path d="M251.109 75.9392C251.052 75.9392 250.929 76.0907 250.609 76.2661C250.164 76.5074 249.64 76.5704 249.149 76.4415C247.911 76.1306 246.689 74.3925 246.467 72.455C246.345 71.5194 246.437 70.5691 246.738 69.6724C246.811 69.3225 246.97 68.9948 247.202 68.7173C247.433 68.4397 247.729 68.2204 248.066 68.0778C248.287 67.9988 248.528 67.9969 248.75 68.0726C248.972 68.1483 249.159 68.2968 249.28 68.4924C249.461 68.7874 249.411 69.0107 249.469 69.0186C249.526 69.0266 249.69 68.8193 249.559 68.3728C249.467 68.1071 249.284 67.8795 249.042 67.727C248.875 67.6181 248.688 67.5423 248.491 67.504C248.294 67.4657 248.091 67.4656 247.894 67.5038C247.442 67.6386 247.032 67.8838 246.705 68.216C246.378 68.5481 246.143 68.9562 246.024 69.4013C245.64 70.3953 245.513 71.4659 245.655 72.5188C245.95 74.7194 247.295 76.6727 248.993 76.9678C249.305 77.0254 249.626 77.0138 249.933 76.9337C250.24 76.8536 250.524 76.7072 250.764 76.5053C251.117 76.2023 251.175 75.9552 251.109 75.9392Z" fill="#EB996E"/>
<path d="M306.598 28.7149C305.827 33.0762 296.757 37.0707 289.195 36.8554C282.249 36.6561 278.813 33.3074 273.769 30.9235C270.57 29.4165 270.57 29.4165 266.232 30.1261C262.73 30.6763 260.91 34.7027 258.941 37.573C262.689 45.546 261.172 54.7628 259.581 63.3737C259.512 64.3448 259.111 65.2656 258.441 65.9889C257.178 67.0732 255.161 66.4274 253.881 65.3191C251.888 63.5411 250.978 60.91 250.33 58.3587C248.741 52.5557 248.362 46.5024 249.215 40.5549C250.077 34.5783 252.723 28.9788 256.825 24.4494C262.191 18.9531 269.541 15.6971 277.328 15.3681C285.076 15.0981 292.714 17.207 299.159 21.3957C302.145 23.3012 304.9 25.6533 306.622 28.707" fill="#263238"/>
<path d="M291.647 77.0714L285.906 74.4722C285.592 74.2913 285.23 74.2027 284.865 74.2171C284.461 74.3055 284.106 74.539 283.872 74.8709C283.199 75.6539 282.78 76.6129 282.666 77.6272C282.552 78.6415 282.749 79.6659 283.233 80.5716C283.758 81.4538 284.584 82.1296 285.568 82.482C286.552 82.8344 287.632 82.8411 288.621 82.5011C290.655 81.7038 291.639 79.3836 291.803 77.2469L291.647 77.0714Z" fill="#EB996E"/>
<path d="M288.801 82.9157C288.801 82.9635 288.531 83.123 287.981 83.2425C287.159 83.386 286.313 83.3257 285.521 83.0671C284.31 82.6707 283.295 81.849 282.675 80.7629C282.283 80.1012 282.047 79.3626 281.986 78.6012C281.925 77.8397 282.04 77.0746 282.322 76.3618C282.611 75.623 283.065 74.9558 283.651 74.4084C283.935 74.1468 284.249 73.9168 284.586 73.7227C284.788 73.6058 285.015 73.5375 285.25 73.5234C285.478 73.5145 285.705 73.5554 285.914 73.643C286.221 73.7931 286.519 73.9581 286.808 74.1373L287.587 74.6077L288.99 75.4529C290.687 76.5053 291.713 77.2069 291.655 77.3026C291.598 77.3983 290.466 76.888 288.686 75.9632L287.235 75.1659L286.415 74.7273C286.136 74.5918 285.841 74.4084 285.595 74.3127C285.493 74.2657 285.381 74.2467 285.27 74.258C285.158 74.2692 285.052 74.3102 284.963 74.3765C284.691 74.5435 284.438 74.7387 284.209 74.9586C283.722 75.4296 283.342 75.9945 283.093 76.6169C282.855 77.2208 282.754 77.8674 282.796 78.5127C282.839 79.158 283.024 79.7869 283.339 80.3563C283.85 81.3105 284.689 82.0608 285.709 82.4771C286.415 82.7536 287.171 82.8918 287.932 82.8838C288.473 82.9077 288.777 82.8598 288.801 82.9157Z" fill="#263238"/>
<path d="M286.989 57.7527C286.907 56.8185 286.757 55.8912 286.538 54.9781C286.132 53.4514 285.401 52.0242 284.394 50.7882C283.387 49.5522 282.125 48.5347 280.689 47.8011C279.253 47.0675 277.676 46.634 276.057 46.5285C274.439 46.423 272.816 46.6478 271.292 47.1884C270.242 47.5548 269.255 48.0736 268.364 48.7272C267.415 49.3882 266.584 50.1962 265.904 51.1191C264.442 53.0404 263.653 55.367 263.653 57.7567C263.653 60.1464 264.442 62.473 265.904 64.3943C266.584 65.3172 267.415 66.1252 268.364 66.7862C269.255 67.4398 270.242 67.9586 271.292 68.325C272.816 68.8605 274.438 69.0814 276.055 68.9736C277.671 68.8657 279.247 68.4315 280.682 67.6986C282.116 66.9657 283.378 65.9501 284.386 64.7168C285.394 63.4834 286.127 62.0593 286.538 60.5353C286.755 59.6247 286.906 58.7001 286.989 57.7686C286.998 57.8294 286.998 57.8913 286.989 57.952C286.989 58.0956 286.989 58.2789 286.989 58.4942C286.996 58.7906 286.974 59.0869 286.923 59.3792C286.877 59.7823 286.803 60.1819 286.702 60.5752C286.442 61.6606 286.013 62.7011 285.431 63.6607C284.03 65.9883 281.834 67.7653 279.226 68.6829C276.618 69.6005 273.761 69.6008 271.153 68.6837C270.066 68.3059 269.045 67.7681 268.126 67.0891C267.147 66.4072 266.289 65.5751 265.584 64.6255C264.069 62.6352 263.251 60.2247 263.251 57.7487C263.251 55.2728 264.069 52.8623 265.584 50.872C266.284 49.9208 267.14 49.0884 268.118 48.4083C269.037 47.7294 270.058 47.1916 271.144 46.8137C273.154 46.1121 275.32 45.9469 277.418 46.3353C279.079 46.6441 280.652 47.2948 282.033 48.2437C283.413 49.1926 284.569 50.4177 285.422 51.8367C286.005 52.7963 286.434 53.8369 286.694 54.9223C286.795 55.3156 286.869 55.7152 286.915 56.1182C286.966 56.4105 286.988 56.7069 286.981 57.0032C286.981 57.2185 286.981 57.4019 286.981 57.5454C286.994 57.6137 286.997 57.6836 286.989 57.7527Z" fill="#263238"/>
<path d="M315.069 56.6763C314.989 55.7667 314.844 54.8636 314.635 53.9735C313.977 51.562 312.504 49.436 310.452 47.9379C309.054 46.9043 307.424 46.2075 305.696 45.9048C303.713 45.5509 301.668 45.7188 299.774 46.3911C298.756 46.7494 297.797 47.2518 296.929 47.8821C296.015 48.5322 295.213 49.3178 294.55 50.2102C293.133 52.0844 292.368 54.35 292.368 56.6763C292.368 59.0027 293.133 61.2683 294.55 63.1425C295.211 64.0342 296.014 64.8175 296.929 65.4626C297.794 66.0983 298.754 66.6036 299.774 66.9616C301.669 67.6301 303.712 67.7979 305.696 67.4479C307.424 67.1452 309.054 66.4484 310.452 65.4148C312.504 63.9167 313.977 61.7906 314.635 59.3792C314.844 58.4891 314.989 57.586 315.069 56.6763C315.089 56.9125 315.089 57.1498 315.069 57.3859C315.072 57.6769 315.051 57.9676 315.004 58.255C314.96 58.6473 314.889 59.0363 314.791 59.4191C314.268 61.5072 313.14 63.4058 311.541 64.8897C309.942 66.3735 307.939 67.3804 305.769 67.7908C303.723 68.1662 301.611 68.0039 299.651 67.3204C297.484 66.5527 295.596 65.1832 294.222 63.3817C292.747 61.4404 291.95 59.0902 291.95 56.6763C291.95 54.2625 292.747 51.9123 294.222 49.971C295.596 48.1695 297.484 46.8 299.651 46.0323C301.611 45.3488 303.723 45.1864 305.769 45.5619C307.939 45.9723 309.942 46.9792 311.541 48.463C313.14 49.9469 314.268 51.8455 314.791 53.9336C314.889 54.3164 314.96 54.7054 315.004 55.0977C315.051 55.3851 315.072 55.6758 315.069 55.9667C315.089 56.2029 315.089 56.4402 315.069 56.6763Z" fill="#263238"/>
<path d="M292.18 54.1569C292.131 54.1967 291.86 53.9815 291.36 53.7502C290.715 53.4517 290.008 53.3016 289.293 53.3117C288.581 53.3217 287.881 53.4966 287.251 53.822C286.759 54.0692 286.497 54.3004 286.431 54.2526C286.366 54.2047 286.579 53.9017 287.071 53.5669C287.719 53.1377 288.482 52.9023 289.266 52.8895C290.05 52.8768 290.821 53.0873 291.483 53.4951C291.983 53.814 292.18 54.125 292.18 54.1569Z" fill="#263238"/>
<path d="M264.174 56.1262C262.551 57.5592 260.836 58.8908 259.04 60.1127C257.321 61.4411 255.519 62.6634 253.643 63.7724C255.264 62.334 256.982 61.0023 258.785 59.7859C260.499 58.4546 262.298 57.2321 264.174 56.1262Z" fill="#263238"/>
<g opacity="0.3">
<path d="M254.455 108.015C253.315 118.834 257.547 130.26 266.478 136.813C267.175 137.332 268.053 137.842 268.881 137.547C269.433 137.287 269.874 136.847 270.127 136.303C272.629 132.102 273.567 127.192 272.785 122.398C271.374 126.018 270.16 129.574 268.733 133.353C260.967 128.761 256.095 119.002 254.455 108.015Z" fill="black"/>
</g>
<path opacity="0.3" d="M284.692 132.62L291.253 130.291L292.336 141.063C292.336 141.063 299.405 128.537 302.333 122.829C305.261 117.12 303.752 107.026 303.752 107.026C303.752 107.026 304.793 115.796 297.716 127.015L292.369 135.466V126.616L284.692 132.62Z" fill="black"/>
<g opacity="0.3">
<path d="M208.529 187.362C205.538 186.127 202.252 185.727 199.04 186.206C195.618 186.479 192.343 187.683 189.593 189.683C186.936 191.764 185.139 195.048 185.492 198.349L185.82 198.389C188.108 192.377 192.652 188.024 198.515 187.474C204.379 186.924 210.095 189.475 214.098 193.661C213.663 190.536 211.416 188.694 208.529 187.362Z" fill="black"/>
</g>
<g opacity="0.3">
<path d="M374.142 193.478C371.869 191.21 368.898 189.723 365.678 189.244C362.874 188.788 360 188.95 357.269 189.719C354.538 190.487 352.019 191.843 349.899 193.685L351.146 192.696C354.317 190.84 357.958 189.879 361.66 189.922C365.375 189.983 368.938 191.368 371.673 193.813C374.134 196.077 375.602 199.146 377.004 202.136C377.231 200.577 377.092 198.987 376.596 197.487C376.1 195.988 375.261 194.617 374.142 193.478Z" fill="black"/>
</g>
<path d="M331.914 143.487C331.981 143.188 332.08 142.897 332.21 142.618C332.464 141.988 332.775 141.214 333.136 140.298C333.956 138.344 335.023 135.649 336.171 132.643C337.319 129.638 338.311 126.903 339.025 124.926L339.845 122.574C339.933 122.28 340.054 121.996 340.206 121.728C340.18 122.034 340.111 122.334 340.001 122.621C339.845 123.195 339.599 124.009 339.279 125.013C338.639 127.022 337.688 129.797 336.54 132.787C335.392 135.777 334.252 138.488 333.382 140.409C332.956 141.374 332.562 142.147 332.324 142.682C332.222 142.965 332.084 143.236 331.914 143.487Z" fill="#263238"/>
<path d="M228.523 144.268C228.408 144.268 227.515 140.497 226.53 135.793C225.546 131.089 224.841 127.302 224.931 127.238C225.021 127.174 225.932 131.009 226.916 135.713C227.9 140.417 228.638 144.244 228.523 144.268Z" fill="#263238"/>
<path d="M226.973 191.7C227.236 191.827 223.972 166.856 223.972 166.856C223.972 166.856 226.03 147.904 227.187 147.027V140.337C227.187 140.337 230.377 138.464 231.23 141.493C231.23 141.493 234.059 139.102 234.51 144.786C234.961 150.471 235.109 156.275 235.109 156.275L241.399 171.568L242.432 172.078C242.432 172.078 243.786 160.119 244.573 158.333C245.36 156.547 245.901 152.281 248.878 152.927C251.855 153.573 252.11 155.965 251.577 159.871C251.043 163.778 250.371 167.844 250.625 170.348C250.879 172.851 252.052 178.425 251.691 182.842C251.331 187.259 248.837 191.915 246.229 195.184C243.622 198.453 238.627 205.222 235.921 207.255C235.043 207.973 226.973 191.7 226.973 191.7Z" fill="#FFBE9D"/>
<path d="M230.155 171.376C230.114 171.021 230.114 170.663 230.155 170.308C230.205 169.511 230.278 168.57 230.36 167.406C230.549 164.958 230.844 161.578 231.18 157.838C231.361 155.98 231.533 154.21 231.689 152.584C231.783 151.835 231.783 151.077 231.689 150.328C231.602 149.686 231.316 149.085 230.869 148.605C230.541 148.262 230.144 147.987 229.702 147.799C229.261 147.612 228.784 147.514 228.302 147.513C227.941 147.53 227.582 147.572 227.228 147.641C227.308 147.586 227.397 147.543 227.49 147.513C227.753 147.417 228.03 147.361 228.31 147.346C228.827 147.317 229.345 147.397 229.827 147.58C230.31 147.763 230.746 148.045 231.107 148.406C231.603 148.924 231.921 149.579 232.017 150.28C232.12 151.055 232.12 151.84 232.017 152.616C231.869 154.21 231.705 156.02 231.541 157.878C231.189 161.609 230.844 164.982 230.574 167.446L230.237 170.34C230.241 170.687 230.213 171.034 230.155 171.376Z" fill="#EB996E"/>
<path d="M233.534 161.163C233.076 161.77 232.701 162.432 232.419 163.132C231.919 164.898 231.57 166.701 231.377 168.522C231.033 170.659 230.705 172.588 230.442 173.984C230.347 174.745 230.177 175.495 229.934 176.224C229.937 175.457 230.008 174.691 230.147 173.936C230.328 172.533 230.615 170.595 230.967 168.458C231.32 166.322 231.55 164.368 232.156 163.029C232.372 162.504 232.674 162.016 233.05 161.586C233.321 161.267 233.518 161.147 233.534 161.163Z" fill="#EB996E"/>
<path d="M231.221 141.167C231.336 141.42 231.41 141.689 231.443 141.964C231.558 142.474 231.697 143.216 231.853 144.141C232.164 145.982 232.509 148.542 232.73 151.388C232.952 154.234 232.993 156.818 232.96 158.683C232.96 159.616 232.919 160.374 232.878 160.892C232.885 161.161 232.852 161.429 232.78 161.689C232.68 160.688 232.639 159.681 232.657 158.675C232.615 156.81 232.517 154.242 232.304 151.412C232.091 148.582 231.795 146.022 231.558 144.172C231.384 143.178 231.272 142.174 231.221 141.167Z" fill="#EB996E"/>
<path d="M249.37 164.575C249.059 164.771 248.704 164.889 248.335 164.919C247.966 164.95 247.595 164.892 247.255 164.751C246.049 164.4 245.491 163.499 245.614 163.459C246.179 163.808 246.775 164.107 247.394 164.352C248.045 164.48 248.706 164.554 249.37 164.575Z" fill="#EB996E"/>
<path d="M227.326 188.59L210.711 195.383H200.804C200.804 195.383 191.012 198.357 189.503 207.287C187.994 216.217 187.78 220.801 192.086 221.91C196.391 223.018 208.554 223.137 214.581 221.192C220.609 219.247 236.405 206.84 236.405 206.84L237.922 197.879L227.326 188.59Z" fill="#FFBE9D"/>
<path d="M231.221 198.461C231.221 198.461 231.033 198.325 230.746 198.038C230.35 197.621 229.991 197.173 229.671 196.699C228.631 195.122 227.848 193.398 227.35 191.588C226.836 189.794 226.493 187.958 226.325 186.103C226.215 185.337 226.193 184.561 226.26 183.79C226.437 184.538 226.558 185.298 226.621 186.063C226.874 187.89 227.255 189.699 227.761 191.476C228.256 193.25 228.983 194.954 229.926 196.547C230.672 197.751 231.279 198.405 231.221 198.461Z" fill="#EB996E"/>
<path d="M238.463 201.291C238.903 200.174 239.219 199.014 239.406 197.831C239.778 194.946 238.978 192.034 237.176 189.714C236.167 188.343 235.027 187.147 234.067 185.983C233.193 184.968 232.44 183.861 231.82 182.682C231.414 181.878 231.137 181.017 231 180.131C230.95 179.809 230.95 179.481 231 179.158C231.192 180.338 231.574 181.482 232.132 182.547C232.778 183.685 233.545 184.754 234.42 185.736C235.379 186.868 236.528 188.064 237.561 189.467C238.566 190.783 239.273 192.291 239.636 193.892C239.915 195.204 239.951 196.554 239.742 197.879C239.605 198.762 239.351 199.625 238.988 200.446C238.857 200.733 238.734 200.948 238.652 201.092C238.57 201.236 238.471 201.299 238.463 201.291Z" fill="#EB996E"/>
<path d="M212.835 162.383C211.361 160.059 210.008 157.664 208.783 155.207C206.651 151.221 205.011 147.904 205.109 147.848C206.583 150.172 207.935 152.567 209.161 155.024C210.514 157.414 211.74 159.871 212.835 162.383Z" fill="white"/>
<path d="M239.693 133.289C240.392 131.245 241.228 129.248 242.194 127.309C243.033 125.318 244 123.379 245.089 121.505C244.386 123.548 243.55 125.545 242.588 127.485C241.751 129.478 240.784 131.416 239.693 133.289Z" fill="white"/>
<path d="M266.043 152.169C264.682 150.897 263.421 149.527 262.271 148.071C261.016 146.702 259.868 145.244 258.834 143.71C260.196 144.979 261.455 146.35 262.599 147.808C263.857 149.176 265.008 150.634 266.043 152.169Z" fill="white"/>
<path d="M259.983 178.138C260.815 176.68 261.764 175.289 262.82 173.976C263.772 172.588 264.839 171.279 266.01 170.061C265.181 171.52 264.232 172.911 263.173 174.223C262.227 175.614 261.159 176.924 259.983 178.138Z" fill="white"/>
<path d="M251.831 214.822C251.448 214.328 251.126 213.793 250.871 213.227C250.33 212.206 249.633 210.779 248.928 209.177C248.222 207.574 247.656 206.083 247.287 205.007C247.042 204.433 246.866 203.834 246.762 203.221C247.1 203.75 247.375 204.314 247.583 204.903L249.346 209.009C250.026 210.532 250.633 211.911 251.166 213.099C251.453 213.648 251.676 214.225 251.831 214.822Z" fill="white"/>
<path d="M274.958 199.226C273.281 199.118 271.616 198.876 269.98 198.501C268.309 198.26 266.663 197.881 265.059 197.369C268.387 197.717 271.68 198.339 274.9 199.226H274.958Z" fill="white"/>
<path d="M293 164.95C294.47 163.1 296.053 161.337 297.74 159.672C299.328 157.908 301.02 156.236 302.809 154.665C301.333 156.516 299.748 158.281 298.06 159.951C296.474 161.71 294.784 163.379 293 164.95Z" fill="white"/>
<path d="M311.043 210.66C310.952 210.739 308.303 207.749 305.121 204.002C301.939 200.255 299.438 197.145 299.528 197.074C299.618 197.002 302.267 199.984 305.449 203.731C308.631 207.478 311.116 210.588 311.043 210.66Z" fill="white"/>
<path d="M198.852 191.181C198.909 191.293 196.49 192.489 193.849 194.458C191.208 196.428 189.371 198.373 189.273 198.285C189.571 197.781 189.947 197.323 190.388 196.93C191.37 195.91 192.44 194.974 193.587 194.131C194.728 193.284 195.94 192.532 197.211 191.883C197.72 191.573 198.273 191.336 198.852 191.181Z" fill="white"/>
<path d="M205.609 173.545C205.088 174.673 204.442 175.743 203.682 176.734C203.035 177.802 202.267 178.797 201.394 179.7C201.917 178.573 202.563 177.504 203.321 176.511C203.967 175.442 204.735 174.447 205.609 173.545Z" fill="white"/>
<path d="M220.831 190.863C219.517 188.833 218.956 186.428 219.24 184.046C219.363 184.046 219.404 185.64 219.855 187.498C220.306 189.356 220.945 190.807 220.831 190.863Z" fill="white"/>
<path d="M223.086 135.912C222.066 136.258 221.005 136.475 219.928 136.558C218.87 136.774 217.786 136.852 216.705 136.789C217.728 136.444 218.792 136.227 219.871 136.144C220.928 135.932 222.009 135.854 223.086 135.912Z" fill="white"/>
<path d="M234.518 116.195C232.752 117.466 230.822 118.506 228.777 119.289C229.617 118.597 230.546 118.015 231.541 117.558C232.47 116.983 233.47 116.525 234.518 116.195Z" fill="white"/>
<path d="M266.675 124.527C265.516 123.381 264.457 122.144 263.509 120.827C262.457 119.591 261.513 118.271 260.688 116.881C262.907 119.257 264.91 121.815 266.675 124.527Z" fill="white"/>
<path d="M307.491 144.348C305.231 142.182 303.531 139.526 302.53 136.598C302.653 136.55 303.53 138.408 304.908 140.537C306.286 142.666 307.59 144.268 307.491 144.348Z" fill="white"/>
<path d="M323.074 149.339C322.084 152.142 320.821 154.847 319.301 157.416C319.739 155.995 320.307 154.615 320.999 153.294C321.56 151.914 322.255 150.59 323.074 149.339Z" fill="white"/>
<path d="M325.255 128.665C323.764 127.258 322.377 125.75 321.105 124.152C319.723 122.644 318.449 121.046 317.292 119.368C320.161 122.287 322.822 125.393 325.255 128.665Z" fill="white"/>
<path d="M301.456 111.874C301.196 110.603 301.072 109.31 301.087 108.015C300.963 106.722 300.982 105.42 301.144 104.132C301.404 105.402 301.528 106.696 301.513 107.991C301.642 109.283 301.623 110.585 301.456 111.874Z" fill="white"/>
<path d="M320.884 110.829C319.222 111.253 317.527 111.543 315.816 111.698C314.126 111.987 312.414 112.139 310.698 112.153C312.36 111.729 314.056 111.438 315.767 111.284C317.456 110.995 319.168 110.843 320.884 110.829Z" fill="white"/>
<path d="M351.417 132.651C350.278 130.834 349.259 128.949 348.366 127.007C347.352 125.121 346.464 123.175 345.709 121.178C346.852 122.994 347.874 124.879 348.768 126.823C349.778 128.709 350.663 130.655 351.417 132.651Z" fill="white"/>
<path d="M346.307 151.508C346.651 148.462 347.271 145.453 348.161 142.514C348.062 144.044 347.823 145.562 347.447 147.051C347.208 148.567 346.826 150.059 346.307 151.508Z" fill="white"/>
<path d="M360.446 166.369C359.49 164.383 358.668 162.337 357.986 160.246C357.173 158.202 356.496 156.108 355.96 153.979C356.911 155.971 357.733 158.019 358.421 160.111C359.23 162.153 359.907 164.244 360.446 166.369Z" fill="white"/>
<path d="M358.469 175.068C357.005 174.854 355.598 174.364 354.328 173.625C352.993 173.002 351.802 172.123 350.826 171.042C350.908 170.946 352.417 172.158 354.533 173.258C356.649 174.358 358.51 174.948 358.469 175.068Z" fill="white"/>
<path d="M376.652 194.889C375.547 193.148 374.69 191.271 374.101 189.308C375.205 191.048 376.063 192.926 376.652 194.889Z" fill="white"/>
<path d="M269.389 222.539C269.04 221.389 268.825 220.204 268.75 219.007C268.542 217.825 268.47 216.625 268.536 215.427C268.911 216.584 269.14 217.781 269.217 218.991C269.414 220.164 269.471 221.354 269.389 222.539Z" fill="white"/>
<path d="M325.099 221.168C325.137 220.001 325.316 218.842 325.632 217.716C325.817 216.562 326.139 215.433 326.592 214.351C326.554 215.519 326.372 216.678 326.05 217.804C325.871 218.958 325.551 220.087 325.099 221.168Z" fill="white"/>
<path d="M335.777 63.071L343.027 50.7607C338.556 43.7443 336.947 35.3557 338.515 27.2442C340.084 19.1327 344.717 11.8851 351.504 6.92651C358.291 1.96787 366.74 -0.343068 375.191 0.448051C383.641 1.23917 391.482 5.07511 397.171 11.2017C402.86 17.3282 405.985 25.3021 405.933 33.5556C405.88 41.8091 402.654 49.745 396.888 55.803C391.122 61.8609 383.234 65.6027 374.774 66.2926C366.314 66.9825 357.894 64.5705 351.171 59.531L335.777 63.071Z" fill="#FAFAFA"/>
<path d="M335.778 63.0708L351.171 59.6583H351.327L351.228 59.5307L351.081 59.6663C353.238 61.2923 355.583 62.6677 358.068 63.7644C361.031 65.0534 364.168 65.9233 367.385 66.3477C369.166 66.5896 370.967 66.6776 372.764 66.6108C373.691 66.563 374.626 66.539 375.577 66.4673L378.448 66.0447C387.001 64.414 394.594 59.6754 399.68 52.7935C402.506 48.9867 404.463 44.6376 405.421 40.0367C406.397 35.1692 406.26 30.1526 405.019 25.3424C403.73 20.3273 401.234 15.6817 397.737 11.7882L396.334 10.2335C395.875 9.73116 395.334 9.32453 394.842 8.8621C394.35 8.39966 393.858 7.93723 393.3 7.55452L391.66 6.37452C391.125 5.97298 390.56 5.61054 389.97 5.29018L388.248 4.26963L386.444 3.41652C385.853 3.11655 385.246 2.85033 384.623 2.61922C379.785 0.765709 374.581 -0.0107388 369.394 0.346895C364.502 0.666711 359.743 2.02764 355.452 4.33341C347.716 8.51645 341.933 15.4345 339.304 23.6521C338.251 27.1376 337.753 30.7596 337.828 34.3918C337.912 37.5434 338.464 40.6666 339.468 43.6644C340.314 46.1557 341.456 48.5425 342.871 50.7764V50.6727C338.328 58.5899 336.106 62.4568 335.753 63.0628C336.114 62.4648 338.394 58.6218 343.044 50.7684V50.7205V50.6727C341.663 48.4438 340.556 46.0648 339.747 43.5847C338.748 40.6075 338.196 37.506 338.107 34.3758C338.052 30.7772 338.558 27.1913 339.607 23.7398C342.24 15.6332 347.965 8.81446 355.608 4.68423C359.856 2.38338 364.575 1.02219 369.427 0.697711C374.551 0.346634 379.691 1.11769 384.467 2.95408C385.082 3.18514 385.681 3.45137 386.263 3.75138L388.051 4.59652L389.774 5.63302C390.345 5.95184 390.893 6.30883 391.414 6.70141L393.054 7.87344C393.603 8.25615 394.063 8.73453 394.571 9.16508C395.08 9.59562 395.596 10.0262 396.047 10.5205L397.417 11.9796C400.875 15.8359 403.343 20.4347 404.617 25.3982C405.85 30.1473 405.987 35.1024 405.019 39.9091C404.082 44.4609 402.153 48.7646 399.361 52.5304C394.339 59.344 386.839 64.0446 378.382 65.678L375.545 66.1085C374.602 66.1803 373.675 66.2122 372.756 66.26C370.976 66.3306 369.192 66.2505 367.426 66.0208C364.23 65.6189 361.109 64.7759 358.158 63.5173C355.683 62.4413 353.347 61.0873 351.196 59.4829L350.564 59.0125L351.048 59.6264L351.105 59.467L335.778 63.0708Z" fill="#263238"/>
<path d="M381.08 32.0636C381.088 32.6909 381.287 33.302 381.65 33.8203C382.014 34.3386 382.527 34.7411 383.124 34.9776C383.722 35.214 384.378 35.2738 385.011 35.1495C385.643 35.0251 386.224 34.7222 386.68 34.2786C387.136 33.835 387.448 33.2704 387.576 32.6555C387.704 32.0406 387.642 31.4027 387.399 30.8216C387.156 30.2405 386.742 29.742 386.209 29.3886C385.676 29.0352 385.047 28.8424 384.402 28.8345C383.964 28.8292 383.53 28.9091 383.124 29.0694C382.719 29.2298 382.35 29.4675 382.041 29.7684C381.731 30.0693 381.487 30.4274 381.322 30.8216C381.157 31.2158 381.075 31.6381 381.08 32.0636Z" fill="#263238"/>
<path d="M367.803 32.0636C367.811 32.6926 368.01 33.3053 368.375 33.8245C368.741 34.3437 369.256 34.7462 369.856 34.9815C370.456 35.2168 371.114 35.2743 371.748 35.1467C372.382 35.0192 372.962 34.7124 373.417 34.2648C373.872 33.8172 374.18 33.249 374.303 32.6314C374.427 32.0139 374.359 31.3747 374.11 30.7943C373.86 30.2138 373.44 29.7181 372.901 29.3694C372.363 29.0207 371.73 28.8346 371.083 28.8345C370.649 28.8345 370.219 28.9183 369.818 29.0811C369.418 29.2438 369.054 29.4823 368.749 29.7827C368.444 30.0831 368.203 30.4394 368.041 30.8309C367.878 31.2225 367.797 31.6415 367.803 32.0636Z" fill="#263238"/>
<path d="M354.558 30.453C354.241 31.0001 354.097 31.6261 354.144 32.2523C354.192 32.8786 354.428 33.4774 354.824 33.9735C355.22 34.4697 355.758 34.8412 356.37 35.0414C356.982 35.2416 357.642 35.2617 358.265 35.099C358.889 34.9364 359.45 34.5984 359.877 34.1272C360.304 33.6561 360.579 33.0729 360.666 32.4507C360.754 31.8286 360.65 31.1951 360.369 30.6298C360.088 30.0645 359.641 29.5925 359.085 29.273C358.709 29.0571 358.293 28.9163 357.86 28.8588C357.428 28.8013 356.988 28.8283 356.566 28.9382C356.145 29.0481 355.75 29.2387 355.405 29.4988C355.06 29.7589 354.772 30.0833 354.558 30.453Z" fill="#263238"/>
</svg>
