<svg width="14" height="11" viewBox="0 0 14 11" fill="none" xmlns="http://www.w3.org/2000/svg">
<path d="M5.38777 0.361235C6.18286 -0.120425 7.21026 -0.120407 8.00535 0.361262L13.1762 3.49386C13.3102 3.57502 13.3914 3.71291 13.3927 3.86122C13.394 4.00953 13.3152 4.1486 13.1826 4.23174L8.03718 7.45885C7.22747 7.96671 6.16565 7.96671 5.35593 7.45894L0.956624 4.69988V7.49865C0.956624 7.74336 0.742474 7.94181 0.478312 7.94181C0.21415 7.94181 0 7.74336 0 7.49865V3.95338C0 3.93837 0.000803593 3.92354 0.00237246 3.90893C0.000679232 3.89317 -0.000122422 3.87725 1.91585e-05 3.86122C0.00129147 3.71291 0.0825758 3.57502 0.216561 3.49385L5.38777 0.361235Z" fill="#5F61BE"/>
<path d="M1.91357 8.38497V6.37012L4.82001 8.19291C5.95362 8.90383 7.44017 8.90383 8.57377 8.19282L11.4798 6.3702V8.38497C11.4798 8.49018 11.4394 8.59184 11.366 8.67196C11.366 8.67196 11.366 8.67196 11.0015 8.38497L11.366 8.67196L11.3646 8.67338L11.3628 8.67542L11.3572 8.68145L11.3387 8.70077C11.3232 8.71672 11.3013 8.73888 11.2732 8.76636C11.2169 8.82122 11.1355 8.89735 11.03 8.98758C10.8194 9.16777 10.5108 9.40592 10.1129 9.64372C9.31833 10.1187 8.15302 10.6008 6.69679 10.6008C5.24055 10.6008 4.0752 10.1187 3.28058 9.64372C2.88275 9.40592 2.57413 9.16777 2.36344 8.98758C2.25793 8.89735 2.17649 8.82122 2.12023 8.76636C2.09209 8.73897 2.07019 8.71681 2.0547 8.70077L2.03624 8.68145L2.03064 8.67542L2.02874 8.67338L2.02802 8.67258L2.39189 8.38497C2.02745 8.67205 2.02802 8.67258 2.02802 8.67258C1.95451 8.59246 1.91357 8.49018 1.91357 8.38497Z" fill="#5F61BE"/>
</svg>
