<svg width="535" height="377" viewBox="0 0 535 377" fill="none" xmlns="http://www.w3.org/2000/svg">
<g clip-path="url(#clip0_389_406)">
<path d="M273.235 376.201C289.326 376.201 302.371 363.157 302.371 347.067C302.371 330.978 289.326 317.934 273.235 317.934C257.144 317.934 244.1 330.978 244.1 347.067C244.1 363.157 257.144 376.201 273.235 376.201Z" fill="#7476D1"/>
<path d="M447.292 374.564C463.592 369.669 480.921 364.565 493.848 352.929C505.399 342.531 513.197 326.652 508.412 311.058C503.636 295.496 489.332 285.119 474.563 279.958C466.187 277.031 457.423 275.407 448.663 274.131C439.141 272.744 429.576 271.608 420.015 270.515C381.304 266.087 342.448 263.383 303.446 262.401C284.201 261.916 264.959 261.928 245.712 262.207C228.522 262.457 210.418 262.451 194.472 255.145C182.071 249.465 170.817 239.129 167.361 225.547C163.373 209.869 170.73 193.904 181.283 182.549C186.846 176.564 193.347 171.527 200.054 166.895C207.33 161.87 214.859 157.201 222.552 152.842C237.703 144.262 253.543 136.96 269.908 131.012C277.98 128.077 286.173 125.545 294.437 123.208C301.415 121.236 308.415 119.26 315.159 116.573C328.196 111.377 340.596 102.576 343.911 88.1477C347.052 74.4731 341.755 59.6282 332.469 49.4696C321.725 37.7168 305.525 32.5648 289.994 31.7312C272.558 30.7953 255.524 35.1588 239.136 40.6966C221.657 46.603 204.554 53.3944 186.706 58.1786C169.006 62.9181 150.965 66.2716 132.744 68.2085C123.825 69.1582 114.636 70.2306 105.664 69.5035C98.1438 68.8942 90.6624 66.6828 85.1205 61.3464C80.3685 56.7707 77.5377 50.4821 78.5109 43.8458C78.6877 42.6405 80.5189 43.1529 80.3432 44.3509C79.1586 52.4292 84.6502 59.8731 91.4173 63.6862C99.2384 68.0931 108.756 68.0991 117.463 67.5951C136.343 66.4549 155.096 63.7442 173.526 59.4912C191.636 55.3552 209.099 49.4425 226.543 43.1264C243.109 37.1278 260.046 31.2731 277.745 29.9738C293.102 28.8464 309.257 31.0835 322.635 39.1084C334.393 46.1613 343.04 57.9231 345.795 71.42C348.487 84.609 344.758 97.8839 334.774 107.088C324.436 116.617 310.262 120.691 297.052 124.443C280.298 129.202 263.903 134.766 248.033 141.989C231.947 149.29 216.52 157.962 201.923 167.91C187.833 177.538 173.927 189.653 169.471 206.829C167.395 214.83 167.778 223.316 171.252 230.873C174.34 237.593 179.426 243.245 185.352 247.605C199.489 258.007 217.307 260.143 234.384 260.356C253.564 260.594 272.744 259.947 291.93 260.262C331.03 260.904 370.05 263.283 408.99 267.401C418.748 268.434 428.493 269.575 438.226 270.826C446.98 271.951 455.764 273.068 464.371 275.066C479.674 278.618 494.566 285.447 504.078 298.422C508.3 304.046 510.915 310.71 511.645 317.704C512.311 325.003 510.524 332.315 507.224 338.808C499.92 353.178 486.238 362.319 471.708 368.324C463.926 371.54 455.854 373.977 447.797 376.396C446.624 376.749 446.122 374.916 447.292 374.564Z" fill="#F2F2F2"/>
<path d="M79.738 59.2167C88.1333 59.2167 94.9391 52.4114 94.9391 44.0167C94.9391 35.6219 88.1333 28.8167 79.738 28.8167C71.3426 28.8167 64.5369 35.6219 64.5369 44.0167C64.5369 52.4114 71.3426 59.2167 79.738 59.2167Z" fill="#F2F2F2"/>
<path d="M185.196 88.0336C193.591 88.0336 200.397 81.2283 200.397 72.8336C200.397 64.4388 193.591 57.6335 185.196 57.6335C176.8 57.6335 169.995 64.4388 169.995 72.8336C169.995 81.2283 176.8 88.0336 185.196 88.0336Z" fill="#F2F2F2"/>
<path d="M274.502 30.4001C282.897 30.4001 289.703 23.5948 289.703 15.2C289.703 6.80529 282.897 0 274.502 0C266.107 0 259.301 6.80529 259.301 15.2C259.301 23.5948 266.107 30.4001 274.502 30.4001Z" fill="#F2F2F2"/>
<path d="M330.239 95.0002C338.635 95.0002 345.441 88.1949 345.441 79.8001C345.441 71.4054 338.635 64.6001 330.239 64.6001C321.844 64.6001 315.038 71.4054 315.038 79.8001C315.038 88.1949 321.844 95.0002 330.239 95.0002Z" fill="#F2F2F2"/>
<path d="M254.867 169.734C263.263 169.734 270.068 162.929 270.068 154.534C270.068 146.139 263.263 139.334 254.867 139.334C246.472 139.334 239.666 146.139 239.666 154.534C239.666 162.929 246.472 169.734 254.867 169.734Z" fill="#F2F2F2"/>
<path d="M159.227 205.834C167.622 205.834 174.428 199.029 174.428 190.634C174.428 182.239 167.622 175.434 159.227 175.434C150.832 175.434 144.026 182.239 144.026 190.634C144.026 199.029 150.832 205.834 159.227 205.834Z" fill="#F2F2F2"/>
<path d="M260.568 262.201C268.963 262.201 275.769 255.395 275.769 247.001C275.769 238.606 268.963 231.801 260.568 231.801C252.172 231.801 245.367 238.606 245.367 247.001C245.367 255.395 252.172 262.201 260.568 262.201Z" fill="#F2F2F2"/>
<path d="M369.509 293.867C377.904 293.867 384.71 287.062 384.71 278.667C384.71 270.273 377.904 263.467 369.509 263.467C361.114 263.467 354.308 270.273 354.308 278.667C354.308 287.062 361.114 293.867 369.509 293.867Z" fill="#F2F2F2"/>
<path d="M496.818 286.901C505.214 286.901 512.019 280.096 512.019 271.701C512.019 263.306 505.214 256.501 496.818 256.501C488.423 256.501 481.617 263.306 481.617 271.701C481.617 280.096 488.423 286.901 496.818 286.901Z" fill="#F2F2F2"/>
<path d="M270.114 43.0688C224.58 43.3905 187.296 80.3912 186.649 125.919C186.643 126.34 186.641 129.295 186.641 133.161C186.641 138.829 188.893 144.265 192.901 148.273C196.909 152.281 202.345 154.533 208.014 154.534C210.823 154.533 213.606 153.979 216.201 152.903C218.797 151.826 221.155 150.249 223.141 148.261C225.127 146.274 226.701 143.914 227.775 141.317C228.848 138.721 229.4 135.938 229.397 133.128C229.395 130.499 229.394 128.679 229.394 128.567C229.392 121.531 231.223 114.615 234.705 108.501C238.187 102.386 243.201 97.2834 249.253 93.6944C255.306 90.1053 262.189 88.1535 269.224 88.0309C276.26 87.9084 283.207 89.6194 289.38 92.9956C295.554 96.3717 300.743 101.297 304.436 107.286C308.129 113.276 310.199 120.123 310.442 127.155C310.686 134.188 309.095 141.162 305.825 147.393C302.555 153.623 297.72 158.895 291.794 162.691L291.802 162.7C291.802 162.7 261.382 182.282 252.107 209.146L252.115 209.147C250.485 214.651 249.658 220.361 249.662 226.1C249.662 228.46 249.801 249.104 250.069 265.86C250.163 271.641 252.526 277.154 256.648 281.209C260.77 285.264 266.322 287.535 272.104 287.534C275.01 287.534 277.887 286.959 280.569 285.843C283.252 284.727 285.687 283.092 287.736 281.031C289.784 278.97 291.404 276.525 292.504 273.835C293.603 271.146 294.16 268.266 294.142 265.361C294.049 250.015 293.998 232.147 293.998 230.851C293.998 214.355 309.912 197.92 322.984 187.203C338.037 174.861 348.869 158.042 353.22 139.07C354.183 135.164 354.713 131.164 354.803 127.142C354.803 116.05 352.608 105.067 348.344 94.8275C344.081 84.5875 337.833 75.2922 329.961 67.4774C322.089 59.6625 312.748 53.4825 302.477 49.2933C292.206 45.1042 281.207 42.9887 270.114 43.0688Z" fill="#7476D1"/>
<path d="M534.246 377H0.754171C0.554535 376.999 0.363278 376.92 0.222318 376.778C0.0813585 376.637 0.00219727 376.445 0.00219727 376.246C0.00219727 376.046 0.0813585 375.855 0.222318 375.713C0.363278 375.572 0.554535 375.492 0.754171 375.492H534.246C534.446 375.492 534.638 375.571 534.779 375.713C534.921 375.854 535 376.046 535 376.246C535 376.446 534.921 376.638 534.779 376.779C534.638 376.92 534.446 377 534.246 377Z" fill="#3F3D56"/>
<path d="M398.047 172.898C408.541 172.898 417.048 164.391 417.048 153.898C417.048 143.404 408.541 134.898 398.047 134.898C387.552 134.898 379.045 143.404 379.045 153.898C379.045 164.391 387.552 172.898 398.047 172.898Z" fill="#2F2E41"/>
<path d="M362.934 368.683H355.169L351.475 338.734H362.936L362.934 368.683Z" fill="#A0616A"/>
<path d="M349.623 366.464H364.598V375.892H340.194C340.194 374.654 340.437 373.428 340.911 372.284C341.385 371.14 342.08 370.101 342.955 369.225C343.831 368.35 344.87 367.655 346.014 367.182C347.158 366.708 348.384 366.464 349.623 366.464Z" fill="#2F2E41"/>
<path d="M423.105 368.683H415.341L411.646 338.734H423.107L423.105 368.683Z" fill="#A0616A"/>
<path d="M409.794 366.464H424.769V375.892H400.365C400.365 374.654 400.609 373.428 401.082 372.284C401.556 371.14 402.251 370.101 403.126 369.225C404.002 368.35 405.041 367.655 406.185 367.182C407.329 366.708 408.556 366.464 409.794 366.464Z" fill="#2F2E41"/>
<path d="M395.159 173.009C403.751 173.009 410.715 166.045 410.715 157.454C410.715 148.863 403.751 141.898 395.159 141.898C386.567 141.898 379.603 148.863 379.603 157.454C379.603 166.045 386.567 173.009 395.159 173.009Z" fill="#A0616A"/>
<path d="M404.431 223.191L411.392 207.199C413.082 203.448 413.567 199.264 412.778 195.226C411.99 191.187 409.968 187.493 406.99 184.653C406.379 184.048 405.729 183.483 405.045 182.962C401.611 180.275 397.378 178.811 393.018 178.801C390.086 178.812 387.191 179.456 384.53 180.688C384.302 180.789 384.081 180.897 383.853 181.005C383.416 181.214 382.985 181.442 382.567 181.676C379.84 183.241 377.52 185.426 375.792 188.053C374.065 190.68 372.979 193.676 372.623 196.8L369.551 222.539C368.778 224.559 341.214 297.519 350.854 353.221C350.956 353.816 351.246 354.362 351.682 354.78C352.117 355.199 352.675 355.467 353.273 355.545L363.046 356.875C363.76 356.973 364.484 356.797 365.073 356.382C365.661 355.967 366.071 355.344 366.219 354.64L382.618 276.48C382.72 275.994 382.982 275.557 383.362 275.238C383.742 274.918 384.218 274.736 384.714 274.719C385.21 274.702 385.697 274.852 386.098 275.145C386.499 275.438 386.79 275.857 386.924 276.334L410.094 358.528C410.259 359.126 410.615 359.652 411.108 360.027C411.601 360.403 412.204 360.606 412.823 360.606C413.008 360.605 413.193 360.588 413.375 360.555L425.314 358.256C426.008 358.126 426.628 357.742 427.054 357.178C427.479 356.615 427.678 355.913 427.613 355.21C425.858 335.646 416.535 237.65 404.431 223.191Z" fill="#2F2E41"/>
<path d="M334.703 170.399C334.595 171.324 334.691 172.261 334.984 173.144C335.278 174.028 335.761 174.836 336.401 175.513C337.041 176.189 337.821 176.717 338.687 177.06C339.553 177.402 340.483 177.55 341.413 177.494L350.108 198.389L356.686 188.64L347.42 170.292C347.222 168.737 346.461 167.309 345.28 166.277C344.1 165.246 342.582 164.684 341.014 164.697C339.446 164.71 337.938 165.298 336.775 166.349C335.612 167.4 334.874 168.841 334.703 170.399Z" fill="#A0616A"/>
<path d="M394.296 244.231C395.221 244.12 396.11 243.808 396.901 243.317C397.692 242.826 398.366 242.167 398.874 241.387C399.383 240.608 399.715 239.726 399.846 238.804C399.977 237.882 399.905 236.943 399.634 236.052L417.929 222.728L406.914 218.604L391.229 231.889C389.763 232.444 388.551 233.517 387.823 234.905C387.096 236.294 386.903 237.901 387.281 239.422C387.659 240.943 388.582 242.273 389.875 243.159C391.168 244.046 392.741 244.427 394.296 244.231Z" fill="#A0616A"/>
<path d="M364.472 212.32C363.77 212.319 363.07 212.25 362.382 212.114C360.718 211.797 359.158 211.076 357.838 210.014C356.518 208.952 355.48 207.582 354.815 206.024L342.632 191.17C342.375 190.856 342.187 190.49 342.083 190.098C341.978 189.706 341.958 189.295 342.025 188.895C342.091 188.494 342.243 188.112 342.469 187.775C342.695 187.438 342.991 187.153 343.336 186.939L352.004 181.574C352.324 181.376 352.68 181.243 353.051 181.183C353.423 181.124 353.803 181.138 354.169 181.226C354.535 181.314 354.88 181.473 355.184 181.695C355.488 181.916 355.745 182.196 355.94 182.518L364.527 196.663L380.97 184.511C382.279 183.825 383.792 183.632 385.231 183.969C386.671 184.306 387.941 185.149 388.81 186.344C389.679 187.54 390.089 189.009 389.965 190.482C389.841 191.955 389.191 193.334 388.133 194.367L371.721 209.337C369.793 211.248 367.187 212.321 364.472 212.32Z" fill="#2F2E41"/>
<path d="M408.903 234.659C408.881 234.659 408.859 234.659 408.836 234.659C408.437 234.649 408.043 234.555 407.682 234.384C407.321 234.213 407 233.967 406.739 233.664L399.033 224.675C398.771 224.369 398.576 224.01 398.463 223.624C398.349 223.237 398.319 222.83 398.374 222.431C398.429 222.031 398.568 221.648 398.782 221.306C398.997 220.965 399.281 220.672 399.616 220.449L414.046 210.83L400.974 195.115C400.213 193.848 399.934 192.349 400.188 190.893C400.441 189.436 401.21 188.12 402.354 187.184C403.499 186.248 404.941 185.754 406.419 185.794C407.897 185.834 409.311 186.404 410.403 187.4L426.29 202.924C427.541 204.067 428.495 205.495 429.072 207.087C429.649 208.68 429.831 210.388 429.602 212.066C429.373 213.744 428.74 215.341 427.758 216.721C426.776 218.101 425.473 219.221 423.963 219.987L410.978 233.764C410.711 234.047 410.389 234.272 410.033 234.426C409.676 234.58 409.292 234.659 408.903 234.659Z" fill="#2F2E41"/>
<path d="M391.204 201.536C391.08 201.536 390.956 201.529 390.834 201.513C390.297 201.448 389.79 201.23 389.374 200.885C388.957 200.541 388.648 200.084 388.484 199.569L382.693 181.817C382.548 181.369 382.57 180.882 382.756 180.449C382.941 180.015 383.278 179.663 383.703 179.458L383.891 179.37C384.061 179.289 384.23 179.209 384.402 179.132C387.102 177.88 390.041 177.227 393.018 177.217C396.882 177.224 400.659 178.36 403.887 180.483C404.32 180.771 404.623 181.218 404.729 181.726C404.836 182.235 404.739 182.765 404.458 183.203L393.596 200.219C393.341 200.623 392.988 200.956 392.57 201.186C392.151 201.417 391.681 201.537 391.204 201.536Z" fill="#E6E6E6"/>
<path d="M413.027 145.415C416.461 145.415 419.245 142.632 419.245 139.198C419.245 135.765 416.461 132.981 413.027 132.981C409.594 132.981 406.81 135.765 406.81 139.198C406.81 142.632 409.594 145.415 413.027 145.415Z" fill="#2F2E41"/>
<path d="M391.713 132.365C387.345 132.365 383.157 134.099 380.068 137.187C376.98 140.276 375.245 144.464 375.245 148.831V155.798H383.814L387.912 148.831L389.142 155.798H415.148L408.181 148.831C408.181 144.464 406.446 140.276 403.357 137.187C400.269 134.099 396.08 132.365 391.713 132.365Z" fill="#2F2E41"/>
<path d="M416.223 134.94C416.911 132.79 418.334 130.951 420.243 129.747C422.153 128.543 424.425 128.05 426.662 128.356C430.624 129.018 433.757 132.203 435.624 135.76C437.49 139.317 438.352 143.298 439.607 147.114C440.862 150.931 442.642 154.767 445.81 157.238C448.978 159.708 453.839 160.378 456.951 157.837C456.595 160.485 455.416 162.955 453.58 164.896C451.744 166.838 449.344 168.153 446.72 168.656C444.095 169.159 441.379 168.824 438.955 167.698C436.532 166.573 434.523 164.714 433.214 162.385C431.572 159.464 431.148 156.041 430.661 152.726C430.174 149.411 429.542 145.981 427.582 143.264C425.622 140.546 421.952 138.771 418.839 140.009L416.223 134.94Z" fill="#2F2E41"/>
<path d="M214.048 144.425C208.38 144.424 202.944 142.172 198.936 138.164C194.928 134.156 192.676 128.72 192.675 123.052C192.675 119.186 192.678 116.231 192.684 115.81C192.864 102.57 196.199 89.5625 202.412 77.8682C192.204 91.8414 186.591 108.641 186.35 125.944C186.344 126.364 186.341 129.32 186.342 133.186C186.342 138.854 188.594 144.289 192.602 148.297C196.61 152.305 202.046 154.557 207.715 154.558C212.372 154.556 216.902 153.034 220.616 150.223C224.33 147.412 227.025 143.466 228.292 138.984C224.378 142.493 219.305 144.431 214.048 144.425Z" fill="#3F3D56"/>
<path d="M271.563 88.1028C278.116 88.4158 284.495 90.3143 290.153 93.6356C295.811 96.9568 300.578 101.601 304.045 107.171C307.512 112.74 309.575 119.067 310.058 125.609C310.541 132.152 309.428 138.713 306.816 144.731C310.594 140.294 313.371 135.095 314.958 129.488C316.544 123.881 316.903 117.998 316.009 112.239C315.116 106.481 312.991 100.983 309.78 96.1205C306.568 91.2578 302.346 87.1446 297.401 84.0613C292.456 80.9781 286.905 78.9973 281.125 78.254C275.345 77.5106 269.472 78.0223 263.908 79.754C258.344 81.4858 253.218 84.3969 248.881 88.2889C244.544 92.1809 241.097 96.9623 238.775 102.307C242.788 97.5871 247.831 93.8517 253.516 91.3889C259.2 88.9262 265.375 87.8019 271.563 88.1028Z" fill="#3F3D56"/>
<path d="M278.139 277.425C272.356 277.426 266.805 275.155 262.683 271.1C258.56 267.045 256.197 261.532 256.104 255.751C255.835 238.995 255.697 218.351 255.697 215.992C255.693 210.252 256.519 204.542 258.15 199.038L258.142 199.037C259.105 196.274 260.268 193.586 261.622 190.993C257.466 196.531 254.159 202.657 251.808 209.17L251.816 209.172C250.185 214.675 249.359 220.385 249.363 226.125C249.363 228.484 249.502 249.129 249.77 265.884C249.864 271.666 252.227 277.178 256.349 281.233C260.471 285.288 266.023 287.56 271.805 287.558C276.573 287.558 281.212 286.011 285.026 283.151C288.841 280.291 291.625 276.271 292.961 271.694C288.909 275.388 283.622 277.433 278.139 277.425Z" fill="#3F3D56"/>
<path d="M80.1485 368.972L87.9131 368.971L91.6076 339.022L80.1466 339.022L80.1485 368.972Z" fill="#FFB8B8"/>
<path d="M102.889 376.18L78.4846 376.182L78.4842 366.753L93.4597 366.752C95.9604 366.752 98.3588 367.746 100.127 369.514C101.896 371.282 102.889 373.68 102.889 376.18Z" fill="#2F2E41"/>
<path d="M52.2797 368.972L60.0443 368.971L63.7388 339.022L52.2778 339.022L52.2797 368.972Z" fill="#FFB8B8"/>
<path d="M75.0204 376.18L50.6158 376.182L50.6154 366.753L65.5909 366.752C68.0917 366.752 70.49 367.746 72.2584 369.514C74.0267 371.282 75.0203 373.68 75.0204 376.18Z" fill="#2F2E41"/>
<path d="M59.0653 359.761L51.4806 359.362C51.0895 359.341 50.7064 359.243 50.3534 359.073C50.0004 358.904 49.6846 358.666 49.4243 358.373C49.164 358.08 48.9644 357.739 48.837 357.369C48.7095 356.999 48.6569 356.607 48.682 356.216L57.7474 255.854L99.494 267.118L103.516 266.021L90.9383 354.868C90.8311 355.536 90.4992 356.148 89.9973 356.602C89.4955 357.057 88.8537 357.326 88.1779 357.366L80.0017 357.747C79.5929 357.77 79.1838 357.708 78.8003 357.564C78.4168 357.421 78.0672 357.199 77.7736 356.914C77.4801 356.628 77.2489 356.285 77.0948 355.906C76.9407 355.526 76.8669 355.119 76.8782 354.71L78.3597 301.386C78.3666 301.139 78.2809 300.899 78.1195 300.712C77.9581 300.526 77.7327 300.406 77.4876 300.378C77.2426 300.349 76.9957 300.413 76.7957 300.558C76.5956 300.702 76.4569 300.916 76.4068 301.157L62.1197 357.406C61.9849 358.073 61.6227 358.673 61.095 359.103C60.5673 359.533 59.9066 359.767 59.2257 359.765C59.1726 359.765 59.1191 359.764 59.0653 359.761Z" fill="#2F2E41"/>
<path d="M81.5425 173.736C90.1341 173.736 97.099 166.772 97.099 158.181C97.099 149.59 90.1341 142.626 81.5425 142.626C72.9509 142.626 65.9861 149.59 65.9861 158.181C65.9861 166.772 72.9509 173.736 81.5425 173.736Z" fill="#FFB8B8"/>
<path d="M55.6421 203.882L57.3526 240.785L57.971 254.21C57.9956 254.795 58.194 255.359 58.5409 255.83C58.8878 256.301 59.3673 256.658 59.9182 256.855L100.034 271.386C100.358 271.506 100.701 271.566 101.047 271.563C101.442 271.565 101.834 271.487 102.198 271.335C102.562 271.182 102.892 270.957 103.168 270.674C103.444 270.391 103.66 270.056 103.803 269.687C103.946 269.319 104.013 268.926 104.001 268.531L102.356 202.178C102.248 196.734 100.244 191.499 96.6895 187.374C93.1349 183.249 88.2524 180.494 82.8838 179.582C82.4958 179.523 82.101 179.464 81.7063 179.411C78.3773 178.998 74.9982 179.319 71.8068 180.353C68.6153 181.386 65.689 183.105 63.2337 185.391C60.6914 187.729 58.6937 190.597 57.3818 193.792C56.07 196.987 55.4761 200.432 55.6421 203.882Z" fill="#CCCCCC"/>
<path d="M119.197 264.022C118.248 263.728 117.381 263.216 116.666 262.527C115.95 261.838 115.405 260.991 115.075 260.054C114.744 259.117 114.638 258.116 114.763 257.131C114.888 256.145 115.242 255.203 115.797 254.379L102.193 236.29L113.932 235.564L125.051 252.852C126.241 253.772 127.069 255.082 127.39 256.552C127.711 258.022 127.504 259.558 126.806 260.89C126.108 262.223 124.962 263.267 123.571 263.84C122.18 264.412 120.631 264.477 119.197 264.022Z" fill="#FFB8B8"/>
<path d="M109.632 251.105C109.272 250.959 108.944 250.743 108.668 250.469C108.392 250.195 108.172 249.869 108.023 249.51L87.5278 200.684C87.1257 199.728 86.9159 198.702 86.9104 197.665C86.9049 196.628 87.1039 195.6 87.4959 194.64C87.888 193.679 88.4654 192.806 89.1952 192.069C89.925 191.332 90.7929 190.746 91.7493 190.345C92.7056 189.943 93.7317 189.734 94.7689 189.73C95.806 189.725 96.834 189.925 97.7939 190.318C98.7538 190.71 99.6269 191.289 100.363 192.019C101.1 192.749 101.685 193.617 102.086 194.574L122.581 243.401C122.884 244.125 122.887 244.94 122.59 245.666C122.293 246.393 121.72 246.972 120.997 247.276L111.898 251.094C111.54 251.246 111.155 251.325 110.766 251.327C110.377 251.329 109.992 251.254 109.632 251.105Z" fill="#CCCCCC"/>
<path d="M76.5411 249.383L96.226 211.694C96.6056 210.969 97.2573 210.425 98.038 210.18C98.8187 209.935 99.6647 210.009 100.39 210.387L128.963 225.309C129.688 225.688 130.233 226.34 130.478 227.121C130.723 227.901 130.648 228.747 130.27 229.473L110.585 267.162C110.206 267.887 109.554 268.431 108.773 268.676C107.992 268.921 107.146 268.847 106.421 268.469L77.848 253.547C77.1231 253.168 76.5784 252.516 76.3334 251.735C76.0884 250.955 76.1631 250.109 76.5411 249.383Z" fill="#3F3D56"/>
<path d="M89.7425 232.164C89.3926 231.234 88.8301 230.399 88.1001 229.725C87.3701 229.052 86.4927 228.558 85.5379 228.284C84.5831 228.009 83.5774 227.962 82.601 228.145C81.6246 228.328 80.7046 228.737 79.9144 229.339L61.0533 216.828L61.0212 228.589L78.9369 238.667C79.9259 239.8 81.2825 240.55 82.7688 240.783C84.2552 241.017 85.7763 240.72 87.0654 239.944C88.3546 239.168 89.3294 237.963 89.8189 236.541C90.3084 235.118 90.2814 233.569 89.7425 232.164Z" fill="#FFB8B8"/>
<path d="M65.8957 234.809L50.4813 222.599C48.8138 222.04 47.307 221.083 46.0904 219.813C44.8737 218.543 43.9836 216.996 43.4963 215.306C43.009 213.616 42.9391 211.833 43.2926 210.11C43.6462 208.387 44.4126 206.775 45.5261 205.414L59.522 187.073C60.4946 185.884 61.8624 185.086 63.3755 184.823C64.8885 184.56 66.4457 184.85 67.7623 185.64C69.079 186.431 70.0672 187.668 70.5463 189.127C71.0254 190.586 70.9633 192.169 70.3715 193.586L59.2976 211.7L75.5717 219.418C75.9501 219.597 76.2862 219.855 76.5576 220.174C76.829 220.493 77.0297 220.866 77.1463 221.268C77.263 221.67 77.2929 222.093 77.2342 222.507C77.1754 222.922 77.0294 223.32 76.8056 223.674L70.2364 234.069C70.0143 234.42 69.721 234.72 69.3755 234.951C69.03 235.181 68.6399 235.336 68.2306 235.406C68.2144 235.409 68.198 235.412 68.1817 235.414C67.7795 235.475 67.3691 235.452 66.9759 235.348C66.5828 235.244 66.2151 235.061 65.8957 234.809Z" fill="#CCCCCC"/>
<path d="M69.7877 168.597C69.721 168.402 69.6998 168.194 69.7258 167.989C69.7518 167.785 69.8244 167.589 69.9379 167.416C70.0514 167.244 70.2028 167.1 70.3806 166.995C70.5583 166.89 70.7577 166.828 70.9635 166.812C71.3848 166.835 71.7971 166.943 72.1756 167.129C72.554 167.316 72.8906 167.578 73.1652 167.898C73.7282 168.547 74.3836 169.11 75.1104 169.568C75.8629 169.947 76.8835 169.893 77.3125 169.17C77.7154 168.491 77.4394 167.582 77.1955 166.793C76.5749 164.786 76.2276 162.705 76.1631 160.605C76.0929 158.262 76.4235 155.816 77.7211 153.988C79.3956 151.629 82.39 150.734 85.2237 150.799C88.0575 150.863 90.8453 151.738 93.6522 152.291C94.6212 152.482 95.7602 152.58 96.4084 151.829C97.0975 151.03 96.8444 149.738 96.5513 148.66C95.7906 145.862 94.9837 142.969 93.2164 140.71C91.3055 138.362 88.5759 136.825 85.5773 136.409C82.6985 136.053 79.7761 136.384 77.0505 137.377C72.6098 138.777 68.7023 141.499 65.8506 145.179C62.9109 149.093 61.6406 154.011 62.3175 158.859C62.9788 163.081 65.2163 166.896 68.579 169.534L69.7877 168.597Z" fill="#2F2E41"/>
<path d="M266.816 369.095C262.677 367.292 259.014 364.553 256.115 361.092C253.217 357.632 251.162 353.545 250.114 349.154C249.065 344.763 249.051 340.189 250.074 335.792C251.096 331.396 253.126 327.296 256.004 323.819C252.667 326.255 249.887 329.373 247.847 332.965C245.808 336.558 244.556 340.543 244.174 344.657C243.793 348.77 244.291 352.918 245.635 356.824C246.979 360.731 249.139 364.307 251.971 367.315C254.803 370.323 258.242 372.694 262.061 374.271C265.879 375.848 269.989 376.596 274.119 376.463C278.248 376.33 282.302 375.321 286.011 373.502C289.721 371.683 293.001 369.096 295.634 365.913C291.527 368.914 286.706 370.787 281.649 371.346C276.593 371.904 271.479 371.128 266.816 369.095Z" fill="#3F3D56"/>
</g>
<defs>
<clipPath id="clip0_389_406">
<rect width="535" height="377" fill="white"/>
</clipPath>
</defs>
</svg>
