<svg width="300" height="59" viewBox="0 0 300 59" fill="none" xmlns="http://www.w3.org/2000/svg">
<path d="M19.1359 57.3952H7.84291V29.1773H0.149902V19.9901H7.84261V13.4528C7.84261 5.70607 11.2451 0.150146 22.5075 0.150146C24.8896 0.150146 28.6292 0.631389 28.6292 0.631389V9.16218H24.7013C20.6992 9.16218 19.1365 10.3824 19.1365 13.7559V19.9901H28.4794L27.6474 29.1773H19.1362L19.1359 57.3952ZM45.048 19.256C44.8835 19.256 44.7141 19.262 44.5466 19.2662C34.0751 19.2662 29.2841 27.1613 29.2841 38.3687C29.2841 52.4869 35.4987 58.1375 44.6284 58.1375C49.8519 58.1375 53.2838 55.9338 55.3697 51.8213V57.3991H66.1109V19.9941H55.3697V25.7464C53.6665 22.0455 50.1387 19.2998 45.048 19.256ZM47.7792 28.0947C52.1773 28.0947 54.817 31.1696 54.817 36.3999L54.8272 41.7419C54.8272 45.2671 52.6469 49.3913 47.7792 49.3913C40.2957 49.3913 40.4956 41.2919 40.4956 38.5943C40.4956 29.5201 44.4828 28.0947 47.7792 28.0947ZM70.4488 38.6985C70.4488 34.1532 70.2318 19.2803 89.5637 19.2803C97.3238 19.2803 100.564 21.7535 100.564 21.7535L97.9598 29.8502C97.9598 29.8502 94.7236 28.064 90.5068 28.064C85.1059 28.064 81.6597 31.2023 81.6597 36.724L81.6657 40.6833C81.6657 45.989 84.9909 49.5307 90.5179 49.5307C94.3595 49.5307 97.9001 47.7277 97.9001 47.7277L100.498 55.6553C100.498 55.6553 97.5351 58.1441 89.6179 58.1441C71.2109 58.1441 70.4491 44.8003 70.4491 38.6985H70.4488ZM163.544 19.2662C174.016 19.2662 178.882 27.1613 178.882 38.3687C178.882 52.4869 172.668 58.1375 163.538 58.1375C158.314 58.1375 154.453 55.9341 152.367 51.8213V57.3991L141.761 57.3949V1.28747L153.022 0.303051V25.2397C154.647 20.8769 159.988 19.2662 163.544 19.2662ZM160.387 28.0947C155.989 28.0947 153.022 31.1696 153.022 36.3999L153.011 41.7419C153.005 45.2671 155.066 49.3913 160.387 49.3913C167.871 49.3913 167.671 41.2919 167.671 38.5943C167.671 29.5201 163.684 28.0947 160.387 28.0947ZM120.103 19.2971C108.226 19.2971 101.955 25.7879 101.955 37.3227V39.4658C101.955 54.4369 110.761 58.2913 121.259 58.2913C131.463 58.2913 136.081 55.4306 136.081 55.4306L133.974 47.8124C133.974 47.8124 128.541 50.1294 122.609 50.1294C116.459 50.1294 113.814 48.5583 113.136 42.6344H136.982V36.5227C136.982 24.0104 129.944 19.2968 120.103 19.2968L120.103 19.2971ZM120.389 26.9255C124.5 26.9255 127.164 29.4525 127.018 35.313H113.157C113.397 29.1449 116.27 26.9255 120.389 26.9255ZM201.336 19.2458C189.139 19.2458 182.718 26.1352 182.718 38.4813C182.718 55.421 193.787 58.1477 201.357 58.1477C212.438 58.1477 219.811 52.1676 219.811 38.6352C219.811 24.5502 211.521 19.2458 201.336 19.2458ZM201.183 28.1253C206.546 28.1253 208.671 32.1486 208.671 36.7282V40.6656C208.671 46.2134 205.698 49.4223 201.162 49.4223C196.921 49.4223 193.94 46.4207 193.94 40.6656V36.7282C193.94 30.5904 197.487 28.1253 201.183 28.1253ZM242.245 19.2458C230.048 19.2458 223.627 26.1352 223.627 38.4813C223.627 55.421 234.695 58.1477 242.265 58.1477C253.347 58.1477 260.72 52.1676 260.72 38.6352C260.72 24.5502 252.43 19.2458 242.245 19.2458ZM242.091 28.1253C247.454 28.1253 249.579 32.1486 249.579 36.7282V40.6656C249.579 46.2134 246.606 49.4223 242.071 49.4223C237.83 49.4223 234.849 46.4207 234.849 40.6656V36.7282C234.849 30.5904 238.396 28.1253 242.091 28.1253ZM264.975 57.3952V1.28747L276.269 0.303051V37.91L287.473 19.9901H299.4L287.712 38.5498L299.85 57.3952H287.889L276.269 39.0966V57.3952H264.975Z" fill="#1877F2"/>
</svg>
