<svg width="11" height="10" viewBox="0 0 11 10" fill="none" xmlns="http://www.w3.org/2000/svg">
<path d="M10.7364 4.97366C10.7364 2.22602 8.33177 0 5.36819 0C2.4026 0 0 2.22602 0 4.97366C0 7.45552 1.96241 9.51337 4.52941 9.88608V6.41167H3.16623V4.97397H4.52941V3.87759C4.52941 2.63138 5.32961 1.94315 6.55624 1.94315C7.14372 1.94315 7.75871 2.04013 7.75871 2.04013V3.26396H7.08065C6.41499 3.26396 6.20697 3.64787 6.20697 4.0411V4.97366H7.69564L7.45642 6.41136H6.20697V9.88577C8.77196 9.51306 10.7364 7.4552 10.7364 4.97335V4.97366Z" fill="#5F61BE"/>
</svg>
