<svg width="219" height="60" viewBox="0 0 219 60" fill="none" xmlns="http://www.w3.org/2000/svg">
<path d="M90.5911 49.3097H90.4933C90.5373 49.3097 90.5667 49.3589 90.6107 49.3638H90.64L90.5911 49.3146V49.3097ZM90.6107 49.3638C90.156 49.3687 89.012 49.6096 87.8044 49.6096C83.9911 49.6096 82.6711 47.84 82.6711 45.5297V30.139H90.4444C90.8844 30.139 91.2267 29.7458 91.2267 29.2051V20.8486C91.2267 20.4062 90.8356 20.013 90.4444 20.013H82.6711V9.64118C82.6711 9.24794 82.4267 9.00216 81.9867 9.00216H71.4267C70.9867 9.00216 70.7422 9.24794 70.7422 9.64118V20.3079C70.7422 20.3079 65.4133 21.6351 65.0711 21.6843C64.68 21.7826 64.4356 22.1267 64.4356 22.5199V29.2051C64.4356 29.7458 64.8267 30.139 65.2667 30.139H70.6933V46.2621C70.6933 58.256 79.0044 59.4849 84.6756 59.4849C87.2667 59.4849 90.3956 58.6493 90.8844 58.4035C91.1778 58.3052 91.3244 57.9611 91.3244 57.617V50.2437C91.3312 50.0345 91.2627 49.83 91.1316 49.6675C91.0005 49.505 90.8156 49.3954 90.6107 49.3589V49.3638ZM206.458 38.5447C206.458 29.6475 202.889 28.4678 199.124 28.861C196.191 29.0576 193.844 30.5323 193.844 30.5323V47.835C193.844 47.835 196.24 49.5063 199.809 49.6046C204.844 49.7521 206.458 47.9334 206.458 38.5447ZM218.338 37.7582C218.338 54.6185 212.911 59.4358 203.427 59.4358C195.409 59.4358 191.107 55.3559 191.107 55.3559C191.107 55.3559 190.911 57.617 190.667 57.9119C190.52 58.2069 190.276 58.3052 189.982 58.3052H182.747C182.258 58.3052 181.818 57.9119 181.818 57.4695L181.916 2.85771C181.916 2.41531 182.307 2.02207 182.747 2.02207H193.16C193.6 2.02207 193.991 2.41531 193.991 2.85771V21.3894C193.991 21.3894 198 18.7841 203.867 18.7841L203.818 18.6858C209.684 18.6858 218.338 20.8978 218.338 37.7582ZM175.707 20.013H165.44C164.902 20.013 164.609 20.4062 164.609 20.947V47.6876C164.609 47.6876 161.92 49.6046 158.253 49.6046C154.587 49.6046 153.511 47.9334 153.511 44.2467V20.8978C153.511 20.4554 153.12 20.0622 152.68 20.0622H142.218C141.778 20.0622 141.387 20.4554 141.387 20.8978V46.0163C141.387 56.8305 147.4 59.5341 155.662 59.5341C162.458 59.5341 167.982 55.7491 167.982 55.7491C167.982 55.7491 168.227 57.6662 168.373 57.9611C168.471 58.2069 168.813 58.4035 169.156 58.4035H175.707C176.244 58.4035 176.538 58.0103 176.538 57.5679L176.636 20.8486C176.636 20.4062 176.244 20.013 175.707 20.013ZM59.84 19.9638H49.4267C48.9867 19.9638 48.5956 20.4062 48.5956 20.947V57.0271C48.5956 58.0103 49.2311 58.3543 50.0622 58.3543H59.4489C60.4267 58.3543 60.6711 57.9119 60.6711 57.0271V20.7995C60.6711 20.3571 60.28 19.9638 59.84 19.9638ZM54.7067 3.34927C50.9422 3.34927 47.96 6.34776 47.96 10.1327C47.96 13.9177 50.9422 16.9162 54.7067 16.9162C58.3733 16.9162 61.3556 13.9177 61.3556 10.1327C61.3556 6.34776 58.3733 3.34927 54.7067 3.34927ZM135.324 2.12038H125.009C124.569 2.12038 124.178 2.51362 124.178 2.95602V23.0606H107.996V2.95602C107.996 2.51362 107.604 2.12038 107.164 2.12038H96.7511C96.3111 2.12038 95.92 2.51362 95.92 2.95602V57.5679C95.92 58.0103 96.36 58.4035 96.7511 58.4035H107.164C107.604 58.4035 107.996 58.0103 107.996 57.5679V34.219H124.178L124.08 57.5679C124.08 58.0103 124.471 58.4035 124.911 58.4035H135.324C135.764 58.4035 136.156 58.0103 136.156 57.5679V2.95602C136.156 2.51362 135.764 2.12038 135.324 2.12038ZM43.0711 26.3049V54.5202C43.0711 54.7168 43.0222 55.0609 42.7778 55.1592C42.7778 55.1592 36.6667 59.5341 26.5956 59.5341C14.4222 59.5341 0 55.6999 0 30.434C0 5.16802 12.6133 -0.0424648 24.9333 0.00669071C35.5911 0.00669071 39.8933 2.41531 40.5778 2.85771C40.7733 3.10349 40.8711 3.30011 40.8711 3.54589L38.8178 12.2956C38.8178 12.738 38.3778 13.2787 37.84 13.1312C36.08 12.5905 33.44 11.5091 27.2311 11.5091C20.0444 11.5091 12.32 13.5736 12.32 29.8441C12.32 46.1146 19.6533 48.0317 24.9333 48.0317C29.4311 48.0317 31.0444 47.491 31.0444 47.491V36.1852H23.8578C23.32 36.1852 22.9289 35.7919 22.9289 35.3495V26.3049C22.9289 25.8625 23.32 25.4693 23.8578 25.4693H42.1422C42.68 25.4693 43.0711 25.8625 43.0711 26.3049Z" fill="#24292E"/>
</svg>
