<svg width="30" height="29" viewBox="0 0 30 29" fill="none" xmlns="http://www.w3.org/2000/svg">
<path d="M25.6718 23.2466L21.4572 19.1613C22.817 17.4771 23.5548 15.3973 23.5521 13.2562C23.5521 11.3495 22.9705 9.48549 21.8808 7.90005C20.7912 6.31461 19.2424 5.07891 17.4304 4.34922C15.6183 3.61952 13.6244 3.4286 11.7008 3.80059C9.77713 4.17259 8.01015 5.0908 6.62328 6.4391C5.23641 7.78741 4.29194 9.50525 3.9093 11.3754C3.52666 13.2456 3.72305 15.184 4.47362 16.9457C5.22418 18.7073 6.49523 20.213 8.12602 21.2724C9.7568 22.3317 11.6741 22.8972 13.6354 22.8972C15.8377 22.8998 17.977 22.1825 19.7094 20.8605L23.9116 24.9579C24.0268 25.0708 24.1639 25.1605 24.315 25.2217C24.466 25.2829 24.628 25.3144 24.7917 25.3144C24.9553 25.3144 25.1173 25.2829 25.2684 25.2217C25.4194 25.1605 25.5565 25.0708 25.6718 24.9579C25.788 24.8459 25.8802 24.7126 25.9431 24.5657C26.006 24.4189 26.0384 24.2614 26.0384 24.1023C26.0384 23.9432 26.006 23.7857 25.9431 23.6388C25.8802 23.492 25.788 23.3587 25.6718 23.2466ZM6.19792 13.2562C6.19792 11.8262 6.63412 10.4282 7.45137 9.2391C8.26861 8.05002 9.43019 7.12325 10.7892 6.57597C12.1482 6.0287 13.6437 5.88551 15.0864 6.16451C16.5291 6.4435 17.8544 7.13216 18.8945 8.14339C19.9347 9.15462 20.643 10.443 20.93 11.8456C21.217 13.2482 21.0697 14.7021 20.5068 16.0233C19.9438 17.3445 18.9906 18.4738 17.7675 19.2683C16.5444 20.0629 15.1064 20.4869 13.6354 20.4869C11.6629 20.4869 9.77112 19.7251 8.37631 18.3691C6.98151 17.0131 6.19792 15.1739 6.19792 13.2562Z" fill="#7476D1"/>
</svg>
