<svg width="99" height="27" viewBox="0 0 99 27" fill="none" xmlns="http://www.w3.org/2000/svg">
<path d="M7.072 20.6H14.956V26H0.0160001V0.619998H7.072V20.6ZM29.8676 26.252C27.4916 26.252 25.3076 25.7 23.3156 24.596C21.3236 23.468 19.7396 21.92 18.5636 19.952C17.4116 17.96 16.8356 15.716 16.8356 13.22C16.8356 10.724 17.4116 8.492 18.5636 6.524C19.7396 4.532 21.3236 2.984 23.3156 1.88C25.3076 0.775999 27.4916 0.223999 29.8676 0.223999C32.2676 0.223999 34.4516 0.775999 36.4196 1.88C38.4116 2.984 39.9836 4.532 41.1356 6.524C42.2876 8.492 42.8636 10.724 42.8636 13.22C42.8636 15.716 42.2876 17.96 41.1356 19.952C39.9836 21.92 38.4116 23.468 36.4196 24.596C34.4276 25.7 32.2436 26.252 29.8676 26.252ZM29.8676 19.7C31.6676 19.7 33.0836 19.112 34.1156 17.936C35.1716 16.76 35.6996 15.188 35.6996 13.22C35.6996 11.204 35.1716 9.62 34.1156 8.468C33.0836 7.292 31.6676 6.704 29.8676 6.704C28.0436 6.704 26.6156 7.292 25.5836 8.468C24.5516 9.62 24.0356 11.204 24.0356 13.22C24.0356 15.212 24.5516 16.796 25.5836 17.972C26.6156 19.124 28.0436 19.7 29.8676 19.7ZM62.2355 8.972C61.8275 8.3 61.2635 7.784 60.5435 7.424C59.8475 7.064 59.0195 6.884 58.0595 6.884C56.2835 6.884 54.8795 7.46 53.8475 8.612C52.8395 9.764 52.3355 11.312 52.3355 13.256C52.3355 15.44 52.8755 17.108 53.9555 18.26C55.0595 19.388 56.6555 19.952 58.7435 19.952C61.2155 19.952 62.9795 18.836 64.0355 16.604H56.9435V11.528H70.1195V18.368C69.5675 19.712 68.7515 20.972 67.6715 22.148C66.6155 23.324 65.2715 24.296 63.6395 25.064C62.0075 25.808 60.1475 26.18 58.0595 26.18C55.5155 26.18 53.2595 25.64 51.2915 24.56C49.3475 23.456 47.8355 21.932 46.7555 19.988C45.6995 18.02 45.1715 15.776 45.1715 13.256C45.1715 10.76 45.6995 8.54 46.7555 6.596C47.8355 4.628 49.3475 3.104 51.2915 2.024C53.2355 0.92 55.4795 0.368 58.0235 0.368C61.2155 0.368 63.8555 1.136 65.9435 2.672C68.0315 4.208 69.3275 6.308 69.8315 8.972H62.2355ZM85.4496 26.252C83.0736 26.252 80.8896 25.7 78.8976 24.596C76.9056 23.468 75.3216 21.92 74.1456 19.952C72.9936 17.96 72.4176 15.716 72.4176 13.22C72.4176 10.724 72.9936 8.492 74.1456 6.524C75.3216 4.532 76.9056 2.984 78.8976 1.88C80.8896 0.775999 83.0736 0.223999 85.4496 0.223999C87.8496 0.223999 90.0336 0.775999 92.0016 1.88C93.9936 2.984 95.5656 4.532 96.7176 6.524C97.8696 8.492 98.4456 10.724 98.4456 13.22C98.4456 15.716 97.8696 17.96 96.7176 19.952C95.5656 21.92 93.9936 23.468 92.0016 24.596C90.0096 25.7 87.8256 26.252 85.4496 26.252ZM85.4496 19.7C87.2496 19.7 88.6656 19.112 89.6976 17.936C90.7536 16.76 91.2816 15.188 91.2816 13.22C91.2816 11.204 90.7536 9.62 89.6976 8.468C88.6656 7.292 87.2496 6.704 85.4496 6.704C83.6256 6.704 82.1976 7.292 81.1656 8.468C80.1336 9.62 79.6176 11.204 79.6176 13.22C79.6176 15.212 80.1336 16.796 81.1656 17.972C82.1976 19.124 83.6256 19.7 85.4496 19.7Z" fill="#47464A"/>
</svg>
