<svg width="288" height="60" viewBox="0 0 288 60" fill="none" xmlns="http://www.w3.org/2000/svg">
<path d="M101.659 34.5582L99.942 39.3024H99.799C99.5129 38.2326 98.9884 36.6047 98.1301 34.6512L88.9274 12.0931H79.9155V48.0466H85.8758V25.8605C85.8758 24.4652 85.8758 22.8838 85.8281 20.9303C85.7804 19.9535 85.6851 19.2093 85.6374 18.6512H85.7804C86.0665 20.0466 86.4003 21.0698 86.6387 21.721L97.701 47.9535H101.897L112.864 21.4884C113.102 20.8838 113.341 19.6745 113.579 18.6512H113.722C113.579 21.3024 113.484 23.6745 113.436 25.1163V47.907H119.778V12H111.1L101.659 34.5582ZM125.786 22.1396H131.984V47.907H125.786V22.1396ZM128.933 11.2559C127.884 11.2559 127.025 11.6279 126.31 12.2791C125.595 12.9303 125.214 13.7675 125.214 14.7907C125.214 15.7675 125.595 16.6047 126.31 17.2559C127.025 17.907 127.884 18.2326 128.933 18.2326C129.982 18.2326 130.888 17.8605 131.555 17.2559C132.27 16.6047 132.652 15.7675 132.652 14.7907C132.652 13.814 132.27 12.9768 131.555 12.2791C130.935 11.6279 130.029 11.2559 128.933 11.2559ZM153.966 21.907C152.821 21.6745 151.629 21.5349 150.485 21.5349C147.672 21.5349 145.097 22.1396 142.951 23.3489C140.806 24.5582 139.089 26.2326 137.992 28.3256C136.848 30.4652 136.276 32.9303 136.276 35.7675C136.276 38.2326 136.848 40.4186 137.945 42.4186C139.041 44.3721 140.567 45.9535 142.618 47.0233C144.572 48.0931 146.861 48.6512 149.436 48.6512C152.392 48.6512 154.919 48.0466 156.922 46.9303L156.97 46.8838V41.3024L156.731 41.4884C155.825 42.1396 154.776 42.6977 153.727 43.0233C152.631 43.3954 151.629 43.5814 150.771 43.5814C148.292 43.5814 146.337 42.8838 144.954 41.3489C143.523 39.8605 142.808 37.814 142.808 35.2559C142.808 32.6047 143.523 30.5117 145.002 28.9768C146.48 27.4419 148.435 26.6512 150.819 26.6512C152.821 26.6512 154.872 27.3024 156.731 28.6047L156.97 28.7907V22.8838L156.922 22.8372C156.112 22.5117 155.206 22.1396 153.966 21.907ZM174.421 21.721C172.896 21.721 171.465 22.1861 170.225 23.1628C169.176 24 168.461 25.2093 167.841 26.6512H167.794V22.1396H161.595V47.907H167.794V34.7442C167.794 32.5117 168.27 30.6512 169.319 29.3024C170.368 27.907 171.704 27.2093 173.325 27.2093C173.897 27.2093 174.469 27.3489 175.184 27.4419C175.852 27.6279 176.329 27.814 176.663 28.0466L176.901 28.2326V22.1861L176.758 22.1396C176.329 21.8605 175.47 21.721 174.421 21.721ZM191.301 21.5814C186.962 21.5814 183.481 22.8373 181.049 25.3024C178.57 27.7675 177.378 31.1628 177.378 35.4419C177.378 39.4419 178.618 42.6977 181.002 45.0698C183.386 47.3954 186.628 48.6047 190.681 48.6047C194.925 48.6047 198.31 47.3489 200.742 44.8372C203.221 42.3256 204.414 38.9768 204.414 34.8373C204.414 30.7442 203.269 27.4884 200.933 25.1163C198.692 22.7442 195.402 21.5814 191.301 21.5814ZM196.26 41.3954C195.116 42.8372 193.304 43.5349 191.063 43.5349C188.821 43.5349 187.01 42.8373 185.722 41.3024C184.435 39.8605 183.815 37.7675 183.815 35.1163C183.815 32.3721 184.482 30.2791 185.722 28.7907C187.01 27.3024 188.774 26.5582 191.015 26.5582C193.208 26.5582 194.925 27.2559 196.165 28.6977C197.404 30.1396 198.072 32.2326 198.072 34.9768C197.976 37.7675 197.452 39.9535 196.26 41.3954ZM218.241 32.8372C216.286 32.0466 215.047 31.4419 214.474 30.9303C213.998 30.4652 213.759 29.814 213.759 28.9768C213.759 28.2791 214.045 27.5814 214.761 27.1163C215.476 26.6512 216.286 26.4186 217.478 26.4186C218.527 26.4186 219.624 26.6047 220.673 26.8838C221.722 27.1628 222.676 27.5814 223.439 28.1396L223.677 28.3256V22.6512L223.534 22.6047C222.819 22.3256 221.865 22.0466 220.721 21.814C219.576 21.6279 218.527 21.5349 217.669 21.5349C214.713 21.5349 212.281 22.2326 210.374 23.7675C208.467 25.2093 207.561 27.1628 207.561 29.4419C207.561 30.6512 207.751 31.721 208.18 32.6047C208.61 33.4884 209.229 34.3256 210.088 35.0233C210.946 35.6745 212.186 36.4186 213.902 37.1163C215.333 37.721 216.429 38.1861 217.097 38.5582C217.765 38.9303 218.194 39.3489 218.527 39.6745C218.766 40.0466 218.909 40.5117 218.909 41.1163C218.909 42.8372 217.574 43.6745 214.856 43.6745C213.807 43.6745 212.71 43.4884 211.423 43.0698C210.135 42.6512 208.943 42.0466 207.942 41.3489L207.704 41.1628V47.0698L207.847 47.1163C208.753 47.5349 209.849 47.814 211.184 48.1396C212.519 48.3721 213.712 48.5582 214.761 48.5582C217.955 48.5582 220.578 47.8605 222.437 46.3256C224.345 44.8372 225.346 42.9303 225.346 40.4652C225.346 38.7442 224.869 37.2093 223.82 36.0466C222.437 34.9303 220.721 33.7675 218.241 32.8372ZM241.701 21.5814C237.362 21.5814 233.881 22.8373 231.449 25.3024C229.018 27.7675 227.778 31.1628 227.778 35.4419C227.778 39.4419 229.017 42.6977 231.402 45.0698C233.786 47.3954 237.028 48.6047 241.081 48.6047C245.325 48.6047 248.71 47.3489 251.142 44.8372C253.621 42.3256 254.814 38.9768 254.814 34.8373C254.814 30.7442 253.669 27.4884 251.333 25.1163C249.092 22.7442 245.802 21.5814 241.701 21.5814ZM246.612 41.3954C245.468 42.8372 243.656 43.5349 241.415 43.5349C239.126 43.5349 237.362 42.8373 236.074 41.3024C234.787 39.8605 234.167 37.7675 234.167 35.1163C234.167 32.3721 234.835 30.2791 236.074 28.7907C237.362 27.3024 239.126 26.5582 241.367 26.5582C243.513 26.5582 245.277 27.2559 246.517 28.6977C247.757 30.1396 248.424 32.2326 248.424 34.9768C248.424 37.7675 247.804 39.9535 246.612 41.3954ZM287.953 27.1163V22.1396H281.706V14.5117L281.516 14.5582L275.603 16.2791L275.46 16.3256V22.1396H266.114V18.8838C266.114 17.3954 266.496 16.2326 267.163 15.4884C267.831 14.7442 268.832 14.3721 270.072 14.3721C270.93 14.3721 271.836 14.5582 272.837 14.9768L273.076 15.1163V9.86051L272.933 9.81399C272.074 9.53492 270.93 9.34888 269.452 9.34888C267.592 9.34888 265.971 9.76748 264.493 10.4652C263.015 11.2559 261.918 12.3256 261.108 13.7675C260.297 15.1628 259.868 16.7442 259.868 18.5582V22.1396H255.529V27.0698H259.868V47.907H266.114V27.1163H275.46V40.3721C275.46 45.814 278.082 48.5582 283.327 48.5582C284.186 48.5582 285.092 48.4186 285.95 48.2791C286.856 48.0931 287.523 47.8605 287.905 47.6745L287.953 47.6279V42.6512L287.714 42.8372C287.333 43.0698 286.999 43.2559 286.427 43.3954C285.95 43.5349 285.521 43.5814 285.187 43.5814C283.947 43.5814 283.089 43.3024 282.469 42.6047C281.897 41.9535 281.611 40.8838 281.611 39.3024V27.1163H287.953Z" fill="#737373"/>
<path d="M0 0H29.2291V28.5116H0V0Z" fill="#F25022"/>
<path d="M32.2808 0H61.5099V28.5116H32.2808V0Z" fill="#7FBA00"/>
<path d="M0 31.4883H29.2291V59.9999H0V31.4883Z" fill="#00A4EF"/>
<path d="M32.2808 31.4883H61.5099V59.9999H32.2808V31.4883Z" fill="#FFB900"/>
</svg>
