<svg width="39" height="26" viewBox="0 0 39 26" fill="none" xmlns="http://www.w3.org/2000/svg">
<path d="M39 17.225C39 18.2 37.05 18.85 34.775 19.175C33.3125 16.4125 30.3875 14.3 26.975 12.8375C27.3 12.35 27.625 12.025 27.95 11.5375H29.25C34.2875 11.375 39 14.4625 39 17.225ZM11.05 11.375H9.75C4.7125 11.375 0 14.4625 0 17.225C0 18.2 1.95 18.85 4.225 19.175C5.6875 16.4125 8.6125 14.3 12.025 12.8375L11.05 11.375ZM19.5 13C23.075 13 26 10.075 26 6.5C26 2.925 23.075 0 19.5 0C15.925 0 13 2.925 13 6.5C13 10.075 15.925 13 19.5 13ZM19.5 14.625C12.8375 14.625 6.5 18.85 6.5 22.75C6.5 26 19.5 26 19.5 26C19.5 26 32.5 26 32.5 22.75C32.5 18.85 26.1625 14.625 19.5 14.625ZM28.7625 9.75H29.25C32.0125 9.75 34.125 7.6375 34.125 4.875C34.125 2.1125 32.0125 0 29.25 0C28.4375 0 27.7875 0.1625 27.1375 0.4875C28.4375 2.1125 29.25 4.225 29.25 6.5C29.25 7.6375 29.0875 8.775 28.7625 9.75ZM9.75 9.75H10.2375C9.9125 8.775 9.75 7.6375 9.75 6.5C9.75 4.225 10.5625 2.1125 11.8625 0.4875C11.2125 0.1625 10.5625 0 9.75 0C6.9875 0 4.875 2.1125 4.875 4.875C4.875 7.6375 6.9875 9.75 9.75 9.75Z" fill="black"/>
</svg>
