<svg width="34" height="34" viewBox="0 0 34 34" fill="none" xmlns="http://www.w3.org/2000/svg">
<path d="M28.6875 9.5625H7.4375C7.15571 9.5625 6.88546 9.45056 6.6862 9.2513C6.48694 9.05204 6.375 8.78179 6.375 8.5C6.375 8.21821 6.48694 7.94796 6.6862 7.7487C6.88546 7.54944 7.15571 7.4375 7.4375 7.4375H25.5C25.7818 7.4375 26.052 7.32556 26.2513 7.1263C26.4506 6.92704 26.5625 6.65679 26.5625 6.375C26.5625 6.09321 26.4506 5.82296 26.2513 5.6237C26.052 5.42444 25.7818 5.3125 25.5 5.3125H7.4375C6.59212 5.3125 5.78137 5.64833 5.1836 6.2461C4.58583 6.84387 4.25 7.65462 4.25 8.5V25.5C4.25 26.3454 4.58583 27.1561 5.1836 27.7539C5.78137 28.3517 6.59212 28.6875 7.4375 28.6875H28.6875C29.2511 28.6875 29.7916 28.4636 30.1901 28.0651C30.5886 27.6666 30.8125 27.1261 30.8125 26.5625V11.6875C30.8125 11.1239 30.5886 10.5834 30.1901 10.1849C29.7916 9.78638 29.2511 9.5625 28.6875 9.5625ZM23.9062 20.1875C23.591 20.1875 23.2829 20.094 23.0208 19.9189C22.7587 19.7438 22.5544 19.4949 22.4338 19.2037C22.3132 18.9124 22.2816 18.592 22.3431 18.2828C22.4046 17.9737 22.5564 17.6897 22.7793 17.4668C23.0022 17.2439 23.2862 17.0921 23.5953 17.0306C23.9045 16.9691 24.2249 17.0007 24.5162 17.1213C24.8074 17.2419 25.0563 17.4462 25.2314 17.7083C25.4065 17.9704 25.5 18.2785 25.5 18.5938C25.5 19.0164 25.3321 19.4218 25.0332 19.7207C24.7343 20.0196 24.3289 20.1875 23.9062 20.1875Z" fill="black"/>
</svg>
